<svg width="55" height="55" viewBox="0 0 55 55" fill="none" xmlns="http://www.w3.org/2000/svg">
<path d="M27.7874 54.2793C42.8094 54.2793 54.9871 42.191 54.9871 27.2793C54.9871 12.3676 42.8094 0.279297 27.7874 0.279297C12.7654 0.279297 0.587646 12.3676 0.587646 27.2793C0.587646 42.191 12.7654 54.2793 27.7874 54.2793Z" fill="#FFFEFE"/>
<path d="M32.3098 25.9035H29.9237V24.375C29.9237 23.801 30.3132 23.6671 30.5876 23.6671C30.8613 23.6671 32.2714 23.6671 32.2714 23.6671V21.1436L29.9525 21.1348C27.3782 21.1348 26.7924 23.0169 26.7924 24.2214V25.9035H25.3037V28.5039H26.7924C26.7924 31.8411 26.7924 35.862 26.7924 35.862H29.9237C29.9237 35.862 29.9237 31.8015 29.9237 28.5039H32.0367L32.3098 25.9035Z" fill="#231F20"/>
</svg>
