<svg width="67" height="17" viewBox="0 0 67 17" fill="none" xmlns="http://www.w3.org/2000/svg">
<path d="M12.7626 1.02051H0.933594V16.3026H4.03239V12.3713H10.1406V9.4921H4.03239V3.87206H10.081L10.1406 3.84437L12.7626 1.38041L13.1798 1.02051H12.7626Z" fill="white"/>
<path d="M14.0013 2.95586L13.0479 3.86947V16.3H16.1466V0.990234L14.0013 2.95586Z" fill="white"/>
<path d="M43.2329 3.81542V16.2736H46.3317V0.963867L43.2329 3.81542Z" fill="white"/>
<path d="M36.5397 10.0198V6.72526H38.3573L41.4561 3.84603H36.5397V0.966797H33.4409V10.0198C33.4409 11.9854 34.007 13.5081 35.1095 14.5324C36.7781 16.0828 39.3107 16.2766 41.0985 16.2766V13.3973C39.1916 13.3973 37.9401 13.0928 37.3144 12.5114C36.7781 12.0131 36.5397 11.2102 36.5397 10.0198Z" fill="white"/>
<path d="M58.2754 10.6836C59.8545 9.21627 60.0929 7.97045 60.0929 6.66926C60.0929 3.51317 57.3219 0.938477 53.9251 0.938477C50.5284 0.938477 47.7573 3.51317 47.7573 6.66926C47.7573 8.6072 48.7704 10.3514 50.4688 11.4311L52.7333 9.32701C51.4521 8.88405 50.8263 7.74897 50.8263 6.66926C50.8263 5.09122 52.2267 3.79002 53.9251 3.79002C55.6235 3.79002 56.9643 5.09122 57.0239 6.66926C57.0537 7.58286 56.6962 8.27498 53.2398 11.348L47.7275 16.359H60.0333V13.5074H55.1468L58.2754 10.6836Z" fill="white"/>
<path d="M64.4682 5.72636C65.867 5.72636 67.0009 4.648 67.0009 3.31777C67.0009 1.98754 65.867 0.90918 64.4682 0.90918C63.0695 0.90918 61.9355 1.98754 61.9355 3.31777C61.9355 4.648 63.0695 5.72636 64.4682 5.72636Z" fill="white"/>
<path d="M31.5729 10.1852C31.5729 6.69691 28.5337 3.87305 24.7793 3.87305C21.025 3.87305 17.9858 6.69691 17.9858 10.1852C17.9858 13.6735 21.025 16.4974 24.7793 16.4974C26.15 16.4974 27.4312 16.1098 28.4741 15.473V16.3036H31.5729V10.3236C31.5729 10.2683 31.5729 10.2406 31.5729 10.1852ZM24.7793 13.6181C22.7234 13.6181 21.0846 12.0678 21.0846 10.1852C21.0846 8.30264 22.7234 6.7246 24.7793 6.7246C26.8353 6.7246 28.4741 8.27495 28.4741 10.1575C28.4741 12.0401 26.8055 13.6181 24.7793 13.6181Z" fill="white"/>
</svg>
