<svg width="115" height="116" viewBox="0 0 115 116" fill="none" xmlns="http://www.w3.org/2000/svg">
<path d="M104.221 12.5918C104.221 11.4872 103.326 10.5918 102.221 10.5918L84.2209 10.5918C83.1164 10.5918 82.2209 11.4872 82.2209 12.5918C82.2209 13.6964 83.1164 14.5918 84.2209 14.5918L100.221 14.5918L100.221 30.5918C100.221 31.6964 101.116 32.5918 102.221 32.5918C103.326 32.5918 104.221 31.6964 104.221 30.5918L104.221 12.5918ZM70.0653 47.5758L103.635 14.006L100.807 11.1776L67.2369 44.7474L70.0653 47.5758Z" fill="white"/>
<path d="M10.6067 12.5918C10.6067 11.4872 11.5021 10.5918 12.6067 10.5918L30.6067 10.5918C31.7113 10.5918 32.6067 11.4872 32.6067 12.5918C32.6067 13.6964 31.7113 14.5918 30.6067 14.5918L14.6067 14.5918L14.6067 30.5918C14.6067 31.6964 13.7113 32.5918 12.6067 32.5918C11.5021 32.5918 10.6067 31.6964 10.6067 30.5918L10.6067 12.5918ZM44.7623 47.5758L11.1925 14.006L14.0209 11.1776L47.5907 44.7474L44.7623 47.5758Z" fill="white"/>
<path d="M104.221 103.178C104.221 104.283 103.326 105.178 102.221 105.178L84.2209 105.178C83.1164 105.178 82.2209 104.283 82.2209 103.178C82.2209 102.074 83.1164 101.178 84.2209 101.178L100.221 101.178L100.221 85.1782C100.221 84.0737 101.116 83.1782 102.221 83.1782C103.326 83.1782 104.221 84.0737 104.221 85.1782L104.221 103.178ZM70.0653 68.1942L103.635 101.764L100.807 104.592L67.2369 71.0226L70.0653 68.1942Z" fill="white"/>
<path d="M10.6067 103.178C10.6067 104.283 11.5021 105.178 12.6067 105.178L30.6067 105.178C31.7113 105.178 32.6067 104.283 32.6067 103.178C32.6067 102.074 31.7113 101.178 30.6067 101.178L14.6067 101.178L14.6067 85.1782C14.6067 84.0737 13.7113 83.1782 12.6067 83.1782C11.5021 83.1782 10.6067 84.0737 10.6067 85.1782L10.6067 103.178ZM44.7623 68.1942L11.1925 101.764L14.0209 104.592L47.5907 71.0226L44.7623 68.1942Z" fill="white"/>
</svg>
