<?xml version="1.0" encoding="utf-8"?>
<!-- Generator: Adobe Illustrator 22.0.1, SVG Export Plug-In . SVG Version: 6.00 Build 0)  -->
<svg version="1.1" id="Слой_1" xmlns="http://www.w3.org/2000/svg" xmlns:xlink="http://www.w3.org/1999/xlink" x="0px" y="0px"
	 viewBox="0 0 1051.2 17.7" style="enable-background:new 0 0 1051.2 17.7;" xml:space="preserve">
<style type="text/css">
	.st0{fill:#FFFFFF;}
</style>
<g>
	<path class="st0" d="M1051.2,10.7l-12.7-0.3c-0.8,0.2-1.6,0.4-2.3,0.6c-0.5,0.2-1,0.3-1.4,0.4c-1.5,0.5-3.3,0-4.6-0.3
		c-0.9-0.2-1.7-0.4-2-0.2c-0.6,0.3-1.2,0.1-1.9-0.1c-0.5-0.1-1.1-0.3-1.5-0.2c-0.3,0.1-0.5,0.1-0.6,0.2c-0.4,0.2-0.9,0.4-3.3,0.6
		c-3.4,0.3-3.9,0.3-4.7,0c-0.4-0.2-0.9-0.6-1.5-1c-0.3-0.2-0.6-0.4-0.8-0.6h-1.3c-1.3,0.5-3.2,0.8-5.3,0.8h-2.9
		c-1.3-0.3-2.1-0.3-2.4-0.3h-0.3c-0.5,0-1.1,0-1.8-0.3c-0.2,0-0.5-0.1-0.8-0.1c-0.4-0.1-0.8-0.1-1.3-0.1l-42.6-0.5
		c-0.8,0.5-1.6,0.8-1.8,0.8c-0.3,0-0.7,0.1-1.3,0.1c-1.4,0.2-3.4,0.4-4.5-0.1c-0.5-0.3-1.1-0.8-1.3-1h-2.6c-0.5,0.5-1.1,1-1.8,1.3
		c-0.6,0.1-1.5,0.2-2.3,0.4c-1,0.1-2.1,0.3-2.7,0.4h-0.3c-0.5,0.2-1.2,0.2-2.1,0.3c-0.6,0.1-1.3,0.1-2.1,0.2h-1.1
		c-0.4,0-0.7-0.1-1.1-0.1c-0.3-0.1-0.7-0.1-1.1-0.1c-0.3,0-0.5-0.1-0.8-0.1c-0.3-0.1-0.5-0.1-0.8-0.1c-1.3-0.3-2.6-0.5-3.4-0.5
		c-0.5-0.3-0.8-0.3-1.3-0.3c-1-0.2-1.9-0.5-3.3-1c-0.5-0.2-1.1-0.4-1.7-0.6c-0.1,0-0.3-0.1-0.4-0.1c-0.1-0.1-0.3-0.1-0.4-0.1
		l-19.5-0.3c-0.5,0.5-1.3,1-3.2,0.8c-0.5,0-1.8-0.3-3.4-0.8h-1.1l-13.7-1.6h-0.3c-0.8,0.2-1.8,0-2.9-0.3c-0.4-0.1-0.9-0.2-1.3-0.3
		c-0.8-0.3-1.3-0.3-1.8,0c-1.2,0.4-3.1,0.2-4.1,0.1c-0.3,0-0.5-0.1-0.7-0.1c-0.2,0.1-0.4,0-0.6,0c-0.4-0.1-1.2-0.4-2.8-0.2
		c-1.3,0.1-1.8,0.2-2.4,0.2c-0.7,0-1.3-0.2-2.8-0.4c-1.2-0.2-2.6-0.4-3.9-0.6C850.7,5,849,4.8,848,4.5c-0.4,0-0.6-0.1-0.9-0.3
		c-0.1-0.1-0.2-0.1-0.4-0.2c-0.3-0.1-0.5-0.3-0.7-0.4c-0.2-0.1-0.4-0.3-0.7-0.4l-8.9-1c-0.1,0-0.3,0.1-0.4,0.1
		c-0.1,0.1-0.3,0.1-0.4,0.1c-0.8,0.3-1.6,0.5-2.4,0.5c-0.5,0.3-1.3,0.3-1.8,0.3c-1.5,0.2-3,0.1-4.1,0c-0.4,0-0.8,0-1.1,0
		c-0.6,0-1-0.1-1.4-0.2c-0.4-0.1-0.8-0.2-1.2-0.1c-0.5,0.3-2.1-0.3-3.7-0.8c-1.1-0.3-2.1-0.5-2.6-0.5h-1.8c-0.4,0-0.9-0.1-1.3-0.1
		c-0.5-0.1-0.9-0.1-1.3-0.1c-0.7-0.1-1.3-0.1-1.9-0.1s-1.2,0-1.7-0.1C809.1,1.1,809.1,1,809,1s-0.1,0-0.2,0l-0.3-0.3
		c-0.1-0.1-0.1-0.2-0.1-0.2c0-0.1-0.2-0.1-1.2-0.1c-0.7,0-1.2-0.1-1.8-0.1c-0.9-0.1-1.6-0.2-2.5,0.1h-0.3c0.1-0.1,0.2-0.1,0.3-0.2
		c0.4-0.2,0.7-0.4-1.1,0c-0.5,0.3-1.3,0.5-2.4,0.8c-0.1,0-0.3,0.1-0.5,0.1c-0.2,0.1-0.4,0.1-0.5,0.1c-1.3,0.3-2.6,0.6-3.7,0.9
		c-4.1,0.9-6.7,1.5-7.1,2.7c-0.3,1.1-0.8,1.1-1.4,1c-0.4,0-0.8,0-1.2,0.3s-0.7,0.5-1.1,0.8c-0.3,0.3-0.7,0.5-1.1,0.8
		c0,0.3-0.3,0.3-0.3,0.3c-0.3,0.3-0.8,0.3-1.3,0.3h-0.3c-1.6-0.5-6.8,0.5-6.8,0.5s-2.9,0.5-4.5,0.3c-0.1,0-0.2-0.1-0.3-0.1
		c-0.1-0.1-0.1-0.1-0.3-0.1l-5.8,1.6h-7.4c-0.4,0.1-0.9,0.3-1.3,0.4c-0.5,0.1-0.9,0.3-1.3,0.4c-0.4,0.2-0.9,0.1-1.5-0.1
		c-0.1,0-0.2-0.1-0.3-0.1c-0.5-0.3-1.3-0.5-2.1-0.5H749c-0.4,0.2-0.7,0.1-1.1,0.1c-0.2,0-0.4-0.1-0.5-0.1h-1.6H745
		c-0.3,0.3-0.8,0.5-1.3,0.5c-0.5,0.2-1.2,0.1-1.8,0.1c-0.3,0-0.6-0.1-0.8-0.1c-0.5,0-1.3-0.3-1.8-0.5h-10c-1.1,0.5-1.8,0.8-2.6,1
		l0,0h-0.3c-1.8,0-2.6,0-4.7,1.3c-1.2,0.7-2.4,1.1-3.5,1.5c-0.8,0.3-1.5,0.5-2.1,0.8c-1.6,0.8-3.4,0.3-5-0.3
		c-0.8-0.4-1.2-0.9-1.6-1.4c-0.4-0.5-0.6-0.9-1.3-0.5c-1.3,0.8-2.1,0.8-2.9,0.8c-0.3,0-0.7,0.1-1.1,0.3c-0.7,0.3-1.5,0.5-2,0.2
		c-0.8-0.5-2.4-1.3-3.4-1.6c-0.3-0.1-0.5-0.1-0.6,0c-0.3,0-0.4,0.1-2-1c-0.1,0-0.2-0.1-0.3-0.1c-0.1-0.1-0.1-0.1-0.3-0.1
		c-0.4-0.4-1-0.6-1.4-0.8c-0.1-0.1-0.3-0.1-0.4-0.2h-19.5c-0.4,0.2-0.8,0.4-1.1,0.6c-0.7,0.4-1.2,0.7-2.3,0.7
		c-0.6,0-1.1-0.2-1.6-0.4c-0.1-0.1-0.3-0.1-0.5-0.2c-0.3-0.1-0.6-0.3-0.9-0.4c-0.3-0.1-0.7-0.3-0.9-0.4h-2.9h-0.5H651
		c-1.6,0.5-3,0.9-4.2,1.3c-2,0.6-3.4,1-4.2,1.3c-0.7,0.2-1.6,0.5-2.4,0.7c-1,0.3-1.9,0.5-2.1,0.6c-0.3,0.3-2.9,1.3-5,0
		c-0.1,0-0.2-0.1-0.3-0.1c-0.1-0.1-0.1-0.1-0.3-0.1c-0.8-0.5-1.1-0.8-1.1-1c-0.1-0.1-0.2-0.2-0.2-0.3c-0.1-0.1-0.1-0.2-0.3-0.2h-1.8
		c-0.3,0.1-0.7,0.2-1,0.2c-0.4,0.1-0.7,0.1-0.9,0.3c-0.8,0.5-2.6,0.3-2.9,0c-0.1-0.1-0.1-0.2-0.2-0.3c-0.2-0.4-0.4-0.9-1.1-0.2
		c-0.7,0.7-1.3,0.4-1.9,0.1c-0.3-0.1-0.6-0.2-0.8-0.1c-0.1,0-0.3,0-0.4-0.1c-0.3-0.1-0.6-0.2-0.9-0.2c-0.5,0-0.8,0-1.1,0.3
		c-0.3,0.1-1,0.1-1.6,0.1c-0.3,0-0.6,0-0.8,0.1c-0.4,0.2-1.3,0-1.9-0.2c-0.2-0.1-0.4-0.1-0.5-0.1c-0.2,0-0.5-0.1-0.8-0.2
		c-0.6-0.2-1.2-0.4-1.3-0.1c-0.2,0.2-1,0.3-1.8,0.4c-1,0.1-2.2,0.2-2.9,0.6c-0.9,0.4-4.2,1.2-6.5,1.8c-0.4,0.1-0.8,0.2-1.1,0.3
		c-1.8,0.5-12.4-1.8-14.2-2.3s-6.8-1.8-7.1-1.8c-0.2,0.1-0.3,0.3-0.5,0.6c-0.4,0.7-1,1.6-2.1,1.4c-0.9-0.1-2-0.6-2.7-1
		c-0.6-0.3-1-0.4-1-0.3c0,0.1-0.1,0.1-0.5,0.1s-0.9,0-1.6,0.1c-1.6,0.3-3.7-1-3.7-1s0.5-0.8,0.3-1h-18.9h-0.3h-1.6h-4.5h-1.8h-0.8
		h-0.8h-1.8c-1.2,0.5-2.7,0.9-3.6,0.5l-10.7-0.2c-0.8,0.2-1.6,0.4-2.3,0.6c-0.5,0.2-1,0.3-1.4,0.4c-1.5,0.5-3.3,0-4.6-0.3
		c-0.9-0.2-1.7-0.4-2-0.2c-0.6,0.3-1.2,0.1-1.9-0.1c-0.6-0.1-1.2-0.2-1.6-0.1c-0.3,0.1-0.5,0.1-0.6,0.2c-0.4,0.2-0.9,0.4-3.3,0.6
		c-3.4,0.3-3.9,0.3-4.7,0c-0.4-0.2-0.9-0.6-1.5-1c-0.3-0.2-0.6-0.4-0.8-0.6h-1.3c-1.3,0.5-3.2,0.8-5.3,0.8h-2.9
		c-1.3-0.3-2.1-0.3-2.4-0.3h-0.3c-0.5,0-1.1,0-1.8-0.3c-0.2,0-0.5-0.1-0.8-0.1c-0.4-0.1-0.8-0.1-1.3-0.1l-42.6-0.5
		c-0.8,0.5-1.6,0.8-1.8,0.8c-0.3,0-0.7,0.1-1.3,0.1c-1.4,0.2-3.4,0.4-4.5-0.1c-0.5-0.3-1.1-0.8-1.3-1h-2.6c-0.5,0.5-1.1,1-1.8,1.3
		c-0.6,0.1-1.5,0.2-2.3,0.4c-1,0.1-2.1,0.3-2.7,0.4h-0.3c-0.5,0.2-1.2,0.2-2.1,0.3c-0.6,0.1-1.3,0.1-2.1,0.2h-1.1
		c-0.4,0-0.7-0.1-1.1-0.1c-0.3-0.1-0.7-0.1-1.1-0.1c-0.3,0-0.5-0.1-0.8-0.1c-0.3-0.1-0.5-0.1-0.8-0.1c-1.3-0.3-2.6-0.5-3.4-0.5
		c-0.5-0.3-0.8-0.3-1.3-0.3c-1-0.2-1.9-0.5-3.3-1c-0.5-0.2-1.1-0.4-1.7-0.6c-0.1,0-0.3-0.1-0.4-0.1c-0.1-0.1-0.3-0.1-0.4-0.1
		l-19.5-0.3c-0.5,0.5-1.3,1-3.2,0.8c-0.5,0-1.8-0.3-3.4-0.8H372l-13.7-1.6H358c-0.8,0.2-1.8,0-2.9-0.3c-0.4-0.1-0.9-0.2-1.3-0.3
		C353,6,352.5,6,352,6.3c-1.2,0.4-3.1,0.2-4.1,0.1c-0.3,0-0.5-0.1-0.7-0.1c-0.2,0.1-0.4,0-0.6,0c-0.4-0.1-1.2-0.4-2.8-0.2
		c-1.3,0.1-1.8,0.2-2.4,0.2c-0.7,0-1.3-0.2-2.8-0.4c-1.2-0.2-2.6-0.4-3.9-0.6c-1.8-0.2-3.5-0.4-4.5-0.7c-0.4,0-0.6-0.1-0.9-0.3
		c-0.1-0.1-0.2-0.1-0.4-0.2c-0.3-0.1-0.5-0.3-0.7-0.4c-0.2-0.1-0.4-0.3-0.7-0.4l-8.9-1c-0.1,0-0.3,0.1-0.4,0.1
		c-0.1,0.1-0.3,0.1-0.4,0.1C317,2.8,316.2,3,315.4,3c-0.5,0.3-1.3,0.3-1.8,0.3c-1.5,0.2-3,0.1-4.2,0c-0.4,0-0.8,0-1.1,0
		c-0.6,0-1-0.1-1.4-0.2c-0.4-0.1-0.8-0.2-1.2-0.1c-0.5,0.3-2.1-0.3-3.7-0.8c-1.1-0.3-2.1-0.5-2.6-0.5h-1.8c-0.4,0-0.9-0.1-1.3-0.1
		c-0.5-0.1-0.9-0.1-1.3-0.1c-0.7-0.1-1.3-0.1-1.9-0.1s-1.2,0-1.7-0.1c-0.2-0.1-0.2-0.2-0.3-0.2c-0.1,0-0.1,0-0.2,0l-0.3-0.3
		c-0.1-0.1-0.1-0.2-0.1-0.2c0-0.1-0.2-0.1-1.2-0.1c-0.7,0-1.2-0.1-1.8-0.1c-0.9-0.1-1.6-0.2-2.5,0.1h-0.3c0.1-0.1,0.2-0.1,0.3-0.2
		c0.4-0.2,0.7-0.4-1.1,0c-0.5,0.3-1.3,0.5-2.4,0.8c-0.1,0-0.3,0.1-0.5,0.1c-0.2,0.1-0.4,0.1-0.5,0.1c-1.3,0.3-2.6,0.6-3.7,0.9
		c-4.1,0.9-6.7,1.5-7.1,2.7c-0.3,1.1-0.8,1.1-1.4,1c-0.4,0-0.8,0-1.2,0.3c-0.4,0.3-0.7,0.5-1.1,0.8c-0.3,0.3-0.7,0.5-1.1,0.8
		c0,0.3-0.3,0.3-0.3,0.3c-0.3,0.3-0.8,0.3-1.3,0.3H263c-1.6-0.5-6.8,0.5-6.8,0.5s-2.9,0.5-4.5,0.3c-0.1,0-0.2-0.1-0.3-0.1
		C251.3,9,251.3,9,251.1,9l-5.8,1.6h-7.4c-0.4,0.1-0.9,0.3-1.3,0.4c-0.5,0.1-0.9,0.3-1.3,0.4c-0.4,0.2-0.9,0.1-1.5-0.1
		c-0.1,0-0.2-0.1-0.3-0.1c-0.5-0.3-1.3-0.5-2.1-0.5h-0.3c-0.4,0.2-0.7,0.1-1.1,0.1c-0.2,0-0.3-0.1-0.5-0.1h-1.6h-0.8
		c-0.1-0.3-0.6,0-1.1,0c-0.5,0.2-1.2,0.1-1.8,0.1c-0.3,0-0.6-0.1-0.8-0.1c-0.5,0-1.3-0.3-1.8-0.5h-10c-1.1,0.5-1.8,0.8-2.6,1l0,0
		h-0.3c-1.8,0-2.6,0-4.7,1.3c-1.2,0.7-2.4,1.1-3.5,1.5c-0.8,0.3-1.5,0.5-2.1,0.8c-1.6,0.8-3.4,0.3-5-0.3c-0.8-0.4-1.2-0.9-1.6-1.4
		c-0.4-0.5-0.6-0.9-1.3-0.5c-1.3,0.8-2.1,0.8-2.9,0.8c-0.3,0-0.7,0.1-1.1,0.3c-0.7,0.3-1.5,0.5-2,0.2c-0.8-0.5-2.4-1.3-3.4-1.6
		c-0.3-0.1-0.5-0.1-0.6,0c-0.3,0-0.4,0.1-2-1c-0.1,0-0.2-0.1-0.3-0.1c-0.1-0.1-0.1-0.1-0.3-0.1c-0.4-0.4-1-0.6-1.4-0.8
		c-0.1-0.1-0.3-0.1-0.4-0.2h-19.5c-0.4,0.2-0.8,0.4-1.1,0.6c-0.7,0.4-1.2,0.7-2.3,0.7c-0.6,0-1.1-0.2-1.6-0.4
		c-0.1-0.1-0.3-0.1-0.5-0.2c-0.3-0.1-0.6-0.3-0.9-0.4c-0.3-0.1-0.7-0.3-0.9-0.4h-2.9h-0.5h-12.6c-1.6,0.5-3,0.9-4.2,1.3
		c-2,0.6-3.4,1-4.2,1.3c-0.7,0.2-1.6,0.5-2.4,0.7c-1,0.3-1.9,0.5-2.1,0.6c-0.3,0.3-2.9,1.3-5,0c-0.1,0-0.2-0.1-0.3-0.1
		c-0.1-0.1-0.1-0.1-0.3-0.1c-0.8-0.5-1.1-0.8-1.1-1c-0.1-0.1-0.2-0.2-0.2-0.3c-0.1-0.1-0.1-0.2-0.3-0.2h-1.8c-0.3,0.1-0.7,0.2-1,0.2
		c-0.4,0.1-0.7,0.1-0.9,0.3c-0.8,0.5-2.6,0.3-2.9,0c-0.1-0.1-0.1-0.2-0.2-0.3c-0.2-0.4-0.4-0.9-1.1-0.2c-0.7,0.7-1.3,0.4-1.9,0.1
		c-0.3-0.1-0.6-0.2-0.8-0.1c-0.1,0-0.3,0-0.4-0.1c-0.3-0.1-0.6-0.2-0.9-0.2c-0.5,0-0.8,0-1.1,0.3c-0.5,0.5-1.2,0.5-1.8,0.5
		c-0.3,0-0.6,0-0.8,0.1c-0.4,0.2-1.3,0-1.9-0.2c-0.2-0.1-0.4-0.1-0.5-0.1c-0.2,0-0.5-0.1-0.8-0.2c-0.6-0.2-1.2-0.4-1.3-0.1
		c-0.2,0.2-1,0.3-1.8,0.4c-1,0.1-2.2,0.2-2.9,0.6c-0.9,0.4-4.2,1.2-6.5,1.8c-0.4,0.1-0.8,0.2-1.1,0.3C79,15.8,68.4,13.5,66.6,13
		c-1.8-0.5-6.8-1.8-7.1-1.8c-0.2,0.1-0.3,0.3-0.5,0.6c-0.4,0.7-1,1.6-2.1,1.4c-0.9-0.1-2-0.6-2.7-1c-0.6-0.3-1-0.4-1-0.3
		c0,0.1-0.1,0.1-0.5,0.1s-0.9,0-1.6,0.1c-1.6,0.3-3.7-1-3.7-1s0.5-0.8,0.3-1h-19h-0.3h-1.6h-4.5h-1.8h-0.8h-0.8h-1.8
		c-1.3,0.5-3.2,1-3.9,0.3c0-0.3-0.3-0.3-0.3-0.3H0v7.6h1051.2V10.7z"/>
</g>
</svg>
