<?xml version="1.0" encoding="utf-8"?>
<!-- Generator: Adobe Illustrator 22.0.1, SVG Export Plug-In . SVG Version: 6.00 Build 0)  -->
<svg version="1.1" id="Слой_1" xmlns="http://www.w3.org/2000/svg" xmlns:xlink="http://www.w3.org/1999/xlink" x="0px" y="0px"
	 viewBox="0 0 160 160" style="enable-background:new 0 0 160 160;" xml:space="preserve">
<style type="text/css">
	.st0{fill:none;stroke:#43362E;stroke-width:3;stroke-linecap:round;stroke-linejoin:round;stroke-miterlimit:10;}
</style>
<g>
	<path class="st0" d="M15.9,84.8c0,0,6.4-1.6,11.2-13.3c0.5-1.1,0.5-4.2,0.6-6.4c0-1.6-0.7-3.1-2-4.1c0,0-5.9-5.3-6-4.8
		c-3.2,11.2-8.5,20.2-16,22.8C0.3,80.1,15.9,84.8,15.9,84.8z"/>
	<path class="st0" d="M144.1,83.2c0,0-6.4-1.6-11.2-13.3c-0.5-1.1-0.5-4.2-0.6-6.4c0-1.6,0.7-3.1,2-4.1c0,0,5.9-5.3,6-4.8
		c3.2,11.2,8.5,20.2,16,22.8C159.7,78.5,144.1,83.2,144.1,83.2z"/>
	<path class="st0" d="M59.7,107.1l-4.7,1c-2.1,0.4-4.4,0.1-6.3-0.9c0,0-17.6-7.9-22.7-11.7c-2.8-2.1-9.6-10.1-9.6-10.1"/>
	<path class="st0" d="M42.6,97l18.3,10c1.9,1.1,4.3,1,6.1-0.3l3.4-2.3"/>
	<path class="st0" d="M28.2,63h12.3c1.4,0,2.8-0.2,4.1-0.7l6.3-2.2c1.5-0.5,3.2-0.2,4.2,1c1.8,1.8,1.5,4.8-0.6,6.3L47.4,72
		l27.2,16.9c1.5,1,2,2.9,1.2,4.5c-0.9,1.6-3,2.3-4.7,1.3L49.5,82.7l1.2,0.6l23.2,13.1c2.1,1.2,2.8,3.9,1.5,6l-0.2,0.3
		c-1.2,1.9-3.4,2-5.4,0.9L45,89.6"/>
	<path class="st0" d="M131.8,61.4h-12.3c-1.4,0-2.8-0.2-4.1-0.7l-6.3-2.2c-1.5-0.5-3.2-0.2-4.2,1c-1.8,1.8-1.6,4.8,0.6,6.3l7.1,4.7
		L85.4,87.3c-1.5,1-2,2.9-1.2,4.5c0.9,1.6,3,2.3,4.7,1.3l21.5-12.1l-1.2,0.7L86.1,94.8c-2.1,1.2-2.8,3.9-1.5,6l0.2,0.3
		c1.2,1.9,3.3,1.6,4.9,1.1l23.2-13"/>
	<path class="st0" d="M107.8,67.3c0,0,9.6,6.9,18.7,5.8"/>
	<path class="st0" d="M89.6,102.8l3.4,2.3c1.8,1.2,4.2,1.3,6.1,0.3l18.3-10l2.7,1.6c-10.2-8-9.6-21.2-9.6-21.2"/>
	<path class="st0" d="M143.6,83.7c0,0-6.8,8-9.6,10.1c-5.1,3.8-22.7,11.7-22.7,11.7c-1.9,1-4.2,1.3-6.3,0.9l-4.7-1"/>
</g>
</svg>
