<?xml version="1.0" encoding="utf-8"?>
<!-- Generator: Adobe Illustrator 22.0.1, SVG Export Plug-In . SVG Version: 6.00 Build 0)  -->
<svg version="1.1" id="Слой_1" xmlns="http://www.w3.org/2000/svg" xmlns:xlink="http://www.w3.org/1999/xlink" x="0px" y="0px"
	 viewBox="0 0 160 160" style="enable-background:new 0 0 160 160;" xml:space="preserve">
<style type="text/css">
	.st0{fill:none;stroke:#43362E;stroke-width:3;stroke-linecap:round;stroke-linejoin:round;stroke-miterlimit:10;}
</style>
<path class="st0" d="M144,65.3l-43.4,39.6l-14.9,5.7l6.6-14.9l43.4-39.7L144,65.3z"/>
<path class="st0" d="M38.1,113.7c-0.2,1.3,1.4,2.2,2.6,1.7c1.2-0.4,2-1.6,2.7-2.6c1.8-2.6,3.9-4.9,6.3-7c0.3-0.3,0.8-0.6,1.1-0.3
	c0.2,0.2,0.2,0.4,0.3,0.7c0.2,1.8,0.3,3.5,0.1,5.3c0,0.5-0.1,1,0.1,1.5c0.4,0.9,1.5,1.1,2.4,0.8c0.9-0.3,1.5-1.1,2.1-1.8
	c0.4,1.4,1.6,2.4,2.9,3c1.3,0.6,2.7,0.8,4.1,1.1c0.9-0.7,2.2-0.9,3.4-0.6"/>
<path class="st0" d="M69.2,95.2H38"/>
<path class="st0" d="M88.6,61.4H38"/>
<path class="st0" d="M38,72.9h50.6"/>
<path class="st0" d="M88.6,83.4H38"/>
<path class="st0" d="M95.9,111.4v16.3H30.8V32.4h47.7l17.2,17.9v35.8"/>
<path class="st0" d="M100.6,104.9l-8.3-9.2l-6.6,14.9c0,0,13.2-5,13.4-5.1L100.6,104.9z"/>
<path class="st0" d="M131,60.4l5.5,6l1,4.8"/>
<path class="st0" d="M78.5,32.3v18.3h17.2"/>
</svg>
