<?xml version="1.0" encoding="utf-8"?>
<!-- Generator: Adobe Illustrator 22.0.1, SVG Export Plug-In . SVG Version: 6.00 Build 0)  -->
<svg version="1.1" id="Слой_1" xmlns="http://www.w3.org/2000/svg" xmlns:xlink="http://www.w3.org/1999/xlink" x="0px" y="0px"
	 viewBox="0 0 160 160" style="enable-background:new 0 0 160 160;" xml:space="preserve">
<style type="text/css">
	.st0{fill:none;stroke:#43362E;stroke-width:3;stroke-linecap:round;stroke-linejoin:round;stroke-miterlimit:10;}
</style>
<path class="st0" d="M78.7,99.5c10.3,0,18.7-8.4,18.7-18.7c0-10.3-8.4-18.7-18.7-18.7C68.4,62,60,70.4,60,80.8
	C60,91.1,68.4,99.5,78.7,99.5z"/>
<path class="st0" d="M91.2,73.2c0,6.2-5,11.2-11.2,11.2s-11.2-5-11.2-11.2S73.8,62,80,62c2.6,0,5,0.9,6.9,2.4
	C89.5,66.5,91.2,69.7,91.2,73.2z"/>
<path class="st0" d="M60,53.6c1.2-1.6-0.3-4.4-3.3-6.3c-3.1-1.9-6.5-2.2-7.8-0.6c-1.2,1.6,0.3,4.4,3.3,6.3
	C55.3,54.9,58.8,55.2,60,53.6z"/>
<path class="st0" d="M47.5,81.3c4.6-0.3,8.1-2.7,7.9-5.3c-0.2-2.6-4-4.5-8.6-4.2c-4.6,0.3-8.1,2.7-7.9,5.3
	C39.1,79.7,43,81.6,47.5,81.3z"/>
<path class="st0" d="M69.9,43.3c1.1-5.4-0.6-10.2-3.7-10.8c-3.1-0.6-6.4,3.2-7.5,8.6c-1.1,5.4,0.6,10.2,3.7,10.8
	C65.5,52.5,68.9,48.7,69.9,43.3z"/>
<path class="st0" d="M53.9,101.7c0.6-5.4-1.5-10.1-4.6-10.4c-3.1-0.3-6.1,3.8-6.7,9.2c-0.6,5.4,1.5,10.1,4.6,10.4
	C50.4,111.3,53.4,107.1,53.9,101.7z"/>
<path class="st0" d="M102,53c2.8-0.2,4.9-4.3,4.5-9.3c-0.4-4.9-2.9-8.7-5.8-8.5c-2.8,0.2-4.9,4.3-4.5,9.3
	C96.6,49.4,99.2,53.2,102,53z"/>
<path class="st0" d="M113.4,57c4.5-0.6,7.8-3.2,7.4-5.7c-0.4-2.5-4.3-4-8.8-3.4c-4.5,0.6-7.8,3.2-7.4,5.7
	C105,56.1,109,57.6,113.4,57z"/>
<path class="st0" d="M42.7,94.2c3.1-1.1,5.1-3.4,4.4-5.1c-0.7-1.7-3.9-2.1-7-0.9c-3.1,1.1-5.1,3.4-4.4,5.1
	C36.4,95,39.5,95.4,42.7,94.2z"/>
<path class="st0" d="M117.6,108.4c5.3-0.7,9.3-3.7,8.9-6.8c-0.4-3.1-5-5-10.3-4.3c-5.3,0.7-9.3,3.7-8.9,6.8
	C107.6,107.1,112.3,109.1,117.6,108.4z"/>
<path class="st0" d="M41.3,61.2c3,1.5,6,3.1,8.6,5.3c2.6,2.2,4.7,5,5.6,8.3l1.5,1.7c-4.6,3.1-7.8,8.2-8.2,14.1l0.8-2.8
	c-0.4,0-0.9,0-1.3,0c-9.7,0-17.5-7.8-17.5-17.5c0-9.7,7.8-17.5,17.5-17.5c1.5,0,2.9,0.2,4.2,0.5"/>
<path class="st0" d="M77.7,107.8c-2.9,1.8-6.4,2.9-10.1,2.9c-5.6,0-10.7-2.5-14.2-6.5"/>
<path class="st0" d="M96.7,75.2c4.6,1.6,8.5,4.9,10.8,9.2c1.4,2.7,2.2,5.7,2.2,9c0,10.6-8.6,19.2-19.2,19.2
	c-8.9,0-16.4-6.1-18.6-14.3"/>
<path class="st0" d="M77,62.5c3-6.3,9.4-10.7,16.9-10.7c10.4,0,18.7,8.4,18.7,18.7c0,5.2-2.1,9.9-5.5,13.2l1.1-1.8
	c3.6-1.6,7.9-1.6,11.4,0"/>
<path class="st0" d="M61.1,87c3.2,2.7,7.4,4.3,12.1,4.3c9.9,0,18-7.4,18-16.5c0-4-1.5-7.6-4-10.5"/>
<path class="st0" d="M80,39.5c1.6,2.1,3.2,4.2,4.2,6.6c1.1,2.4,1.6,5.1,1.1,7.7l-3.2,1.9c-3-3-7.1-4.8-11.6-4.8
	c-9,0-16.3,7.3-16.3,16.3c0,5,2.3,9.5,5.8,12.5"/>
<path class="st0" d="M97.5,37.7c-2.5-5.5-8-8.7-14.4-8.7c-5.9,0-10.7,2.6-13.4,7.5"/>
<path class="st0" d="M121.3,70c1.6-1.9,2.5-4.3,2.5-7c0-3.8-1.2-6.7-4.1-8.7"/>
<path class="st0" d="M121.7,97.6c4.4-3.2,6.5-7.8,6.5-13.6c0-9.2-7.1-16.7-16-17.5"/>
<path class="st0" d="M116.1,114.6v5.4c0,0-4.5,6.9-32.7,6.9c-34.1,0-33.9-6.9-33.9-6.9v-2.9V111v14.8c0,0-0.2,6.9,33.9,6.9
	c28.2,0,32.7-6.9,32.7-6.9v-17.2"/>
</svg>
