<svg width="55" height="55" viewBox="0 0 55 55" fill="none" xmlns="http://www.w3.org/2000/svg">
<path d="M27.2406 54.2793C42.2626 54.2793 54.4404 42.191 54.4404 27.2793C54.4404 12.3676 42.2626 0.279297 27.2406 0.279297C12.2185 0.279297 0.0407715 12.3676 0.0407715 27.2793C0.0407715 42.191 12.2185 54.2793 27.2406 54.2793Z" fill="#FFFEFE"/>
<path d="M27.8594 22.8104C25.4166 22.8104 23.3926 24.7849 23.3926 27.2444C23.3926 29.7039 25.3817 31.6784 27.8594 31.6784C30.3371 31.6784 32.3263 29.6692 32.3263 27.2444C32.3263 24.8195 30.3022 22.8104 27.8594 22.8104ZM27.8594 30.0849C26.2891 30.0849 24.9979 28.8032 24.9979 27.2444C24.9979 25.6856 26.2891 24.4038 27.8594 24.4038C29.4298 24.4038 30.721 25.6856 30.721 27.2444C30.721 28.8032 29.4298 30.0849 27.8594 30.0849Z" fill="#231F20"/>
<path d="M32.5007 23.7073C33.0596 23.7073 33.5127 23.2575 33.5127 22.7027C33.5127 22.1479 33.0596 21.6982 32.5007 21.6982C31.9418 21.6982 31.4887 22.1479 31.4887 22.7027C31.4887 23.2575 31.9418 23.7073 32.5007 23.7073Z" fill="#231F20"/>
<path d="M35.1179 20.1078C34.2106 19.1725 32.9194 18.6875 31.4537 18.6875H24.2649C21.2289 18.6875 19.2048 20.6967 19.2048 23.7104V30.8118C19.2048 32.3013 19.6934 33.583 20.6705 34.5183C21.6127 35.419 22.869 35.8693 24.2998 35.8693H31.4188C32.9194 35.8693 34.1757 35.3843 35.083 34.5183C36.0252 33.6177 36.5138 32.336 36.5138 30.8464V23.7104C36.5138 22.2555 36.0252 21.0084 35.1179 20.1078ZM34.9783 30.8464C34.9783 31.9203 34.5944 32.7863 33.9663 33.3752C33.3381 33.9641 32.4657 34.2758 31.4188 34.2758H24.2998C23.2529 34.2758 22.3805 33.9641 21.7523 33.3752C21.1242 32.7516 20.8101 31.8856 20.8101 30.8118V23.7104C20.8101 22.6712 21.1242 21.8052 21.7523 21.1816C22.3456 20.5927 23.2529 20.281 24.2998 20.281H31.4886C32.5355 20.281 33.4079 20.5927 34.0361 21.2163C34.6293 21.8398 34.9783 22.7058 34.9783 23.7104V30.8464Z" fill="#231F20"/>
</svg>
