<?xml version="1.0" encoding="utf-8"?>
<!-- Generator: Adobe Illustrator 22.0.1, SVG Export Plug-In . SVG Version: 6.00 Build 0)  -->
<svg version="1.1" id="Слой_1" xmlns="http://www.w3.org/2000/svg" xmlns:xlink="http://www.w3.org/1999/xlink" x="0px" y="0px"
	 viewBox="0 0 17.8 1051.2" style="enable-background:new 0 0 17.8 1051.2;" xml:space="preserve">
<style type="text/css">
	.st0{fill:#FFFFFF;}
</style>
<g>
	<path class="st0" d="M7,1051.2l0.3-12.7c-0.2-0.8-0.4-1.6-0.6-2.3c-0.2-0.5-0.3-1-0.4-1.4c-0.5-1.5,0-3.3,0.3-4.6
		c0.2-0.9,0.4-1.7,0.2-2c-0.3-0.6-0.1-1.2,0.1-1.9c0.1-0.5,0.3-1.1,0.2-1.5c-0.1-0.3-0.1-0.5-0.2-0.6c-0.2-0.4-0.4-0.9-0.6-3.3
		c-0.3-3.4-0.3-3.9,0-4.7c0.2-0.4,0.6-0.9,1-1.5c0.2-0.3,0.4-0.6,0.6-0.8v-1.3c-0.5-1.3-0.8-3.2-0.8-5.3v-2.9
		c0.3-1.3,0.3-2.1,0.3-2.4v-0.3c0-0.5,0-1.1,0.3-1.8c0-0.2,0.1-0.5,0.1-0.8c0.1-0.4,0.1-0.8,0.1-1.3l0.5-42.6
		c-0.5-0.8-0.8-1.6-0.8-1.8c0-0.3-0.1-0.7-0.1-1.3c-0.2-1.4-0.4-3.4,0.1-4.5c0.3-0.5,0.8-1.1,1-1.3v-2.6c-0.5-0.5-1-1.1-1.3-1.8
		c-0.1-0.6-0.2-1.5-0.4-2.3c-0.1-1-0.3-2.1-0.4-2.7v-0.3c-0.2-0.5-0.2-1.2-0.3-2.1c-0.1-0.6-0.1-1.3-0.2-2.1v-1.1
		c0-0.4,0.1-0.7,0.1-1.1c0.1-0.3,0.1-0.7,0.1-1.1c0-0.3,0.1-0.5,0.1-0.8c0.1-0.3,0.1-0.5,0.1-0.8c0.3-1.3,0.5-2.6,0.5-3.4
		c0.3-0.5,0.3-0.8,0.3-1.3c0.2-1,0.5-1.9,1-3.3c0.2-0.5,0.4-1.1,0.6-1.7c0-0.1,0.1-0.3,0.1-0.4c0.1-0.1,0.1-0.3,0.1-0.4l0.3-19.5
		c-0.5-0.5-1-1.3-0.8-3.2c0-0.5,0.3-1.8,0.8-3.4v-1.1l1.6-13.7v-0.3c-0.2-0.8,0-1.8,0.3-2.9c0.1-0.4,0.2-0.9,0.3-1.3
		c0.3-0.8,0.3-1.3,0-1.8c-0.4-1.2-0.2-3.1-0.1-4.1c0-0.3,0.1-0.5,0.1-0.7c-0.1-0.2,0-0.4,0-0.6c0.1-0.4,0.4-1.2,0.2-2.8
		c-0.1-1.3-0.2-1.8-0.2-2.4c0-0.7,0.2-1.3,0.4-2.8c0.2-1.2,0.4-2.6,0.6-3.9c0.2-1.8,0.4-3.5,0.7-4.5c0-0.4,0.1-0.6,0.3-0.9
		c0.1-0.1,0.1-0.2,0.2-0.4c0.1-0.3,0.3-0.5,0.4-0.7c0.1-0.2,0.3-0.4,0.4-0.7l1-8.9c0-0.1-0.1-0.3-0.1-0.4c-0.1-0.1-0.1-0.3-0.1-0.4
		c-0.3-0.8-0.5-1.6-0.5-2.4c-0.3-0.5-0.3-1.3-0.3-1.8c-0.2-1.5-0.1-3,0-4.1c0-0.4,0-0.8,0-1.1c0-0.6,0.1-1,0.2-1.4
		c0.1-0.4,0.2-0.8,0.1-1.2c-0.3-0.5,0.3-2.1,0.8-3.7c0.3-1.1,0.5-2.1,0.5-2.6v-1.8c0-0.4,0.1-0.9,0.1-1.3c0.1-0.5,0.1-0.9,0.1-1.3
		c0.1-0.7,0.1-1.3,0.1-1.9s0-1.2,0.1-1.7c0.1-0.2,0.2-0.2,0.2-0.3c0-0.1,0-0.1,0-0.2l0.3-0.3c0.1-0.1,0.2-0.1,0.2-0.1
		c0.1,0,0.1-0.2,0.1-1.2c0-0.7,0.1-1.2,0.1-1.8c0.1-0.9,0.2-1.6-0.1-2.5v-0.3c0.1,0.1,0.1,0.2,0.2,0.3c0.2,0.4,0.4,0.7,0-1.1
		c-0.3-0.5-0.5-1.3-0.8-2.4c0-0.1-0.1-0.3-0.1-0.5c-0.1-0.2-0.1-0.4-0.1-0.5c-0.3-1.3-0.6-2.6-0.9-3.7c-0.9-4.1-1.5-6.7-2.7-7.1
		c-1.1-0.3-1.1-0.8-1-1.4c0-0.4,0-0.8-0.3-1.2c-0.3-0.4-0.5-0.7-0.8-1.1c-0.3-0.3-0.5-0.7-0.8-1.1c-0.3,0-0.3-0.3-0.3-0.3
		c-0.3-0.3-0.3-0.8-0.3-1.3v-0.3c0.5-1.6-0.5-6.8-0.5-6.8s-0.5-2.9-0.3-4.5c0-0.1,0.1-0.2,0.1-0.3c0.1-0.1,0.1-0.1,0.1-0.3l-1.6-5.8
		v-7.4c-0.1-0.4-0.3-0.9-0.4-1.3c-0.1-0.5-0.3-0.9-0.4-1.3c-0.2-0.4-0.1-0.9,0.1-1.5c0-0.1,0.1-0.2,0.1-0.3c0.3-0.5,0.5-1.3,0.5-2.1
		v-0.3c-0.2-0.4-0.1-0.7-0.1-1.1c0-0.2,0.1-0.4,0.1-0.5v-1.6v-0.8c-0.3-0.3-0.5-0.8-0.5-1.3c-0.2-0.5-0.1-1.2-0.1-1.8
		c0-0.3,0.1-0.6,0.1-0.8c0-0.5,0.3-1.3,0.5-1.8v-10c-0.5-1.1-0.8-1.8-1-2.6v0v-0.3c0-1.8,0-2.6-1.3-4.7c-0.7-1.2-1.1-2.4-1.5-3.5
		c-0.3-0.8-0.5-1.5-0.8-2.1c-0.8-1.6-0.3-3.4,0.3-5c0.4-0.8,0.9-1.2,1.4-1.6c0.5-0.4,0.9-0.6,0.5-1.3c-0.8-1.3-0.8-2.1-0.8-2.9
		c0-0.3-0.1-0.7-0.3-1.1c-0.3-0.7-0.5-1.5-0.2-2c0.5-0.8,1.3-2.4,1.6-3.4c0.1-0.3,0.1-0.5,0-0.6c0-0.3-0.1-0.4,1-2
		c0-0.1,0.1-0.2,0.1-0.3c0.1-0.1,0.1-0.1,0.1-0.3c0.4-0.4,0.6-1,0.8-1.4c0.1-0.1,0.1-0.3,0.2-0.4v-19.5c-0.2-0.4-0.4-0.8-0.6-1.1
		c-0.4-0.7-0.7-1.2-0.7-2.3c0-0.6,0.2-1.1,0.4-1.6c0.1-0.1,0.1-0.3,0.2-0.5c0.1-0.3,0.3-0.6,0.4-0.9c0.1-0.3,0.3-0.7,0.4-0.9v-2.9
		v-0.5V651c-0.5-1.6-0.9-3-1.3-4.2c-0.6-2-1-3.4-1.3-4.2c-0.2-0.7-0.5-1.6-0.7-2.4c-0.3-1-0.5-1.9-0.6-2.1c-0.3-0.3-1.3-2.9,0-5
		c0-0.1,0.1-0.2,0.1-0.3c0.1-0.1,0.1-0.1,0.1-0.3c0.5-0.8,0.8-1.1,1-1.1c0.1-0.1,0.2-0.2,0.3-0.2c0.1-0.1,0.2-0.1,0.2-0.3v-1.8
		c-0.1-0.3-0.2-0.7-0.2-1c-0.1-0.4-0.1-0.7-0.3-0.9c-0.5-0.8-0.3-2.6,0-2.9c0.1-0.1,0.2-0.1,0.3-0.2c0.4-0.2,0.9-0.4,0.2-1.1
		c-0.7-0.7-0.4-1.3-0.1-1.9c0.1-0.3,0.2-0.6,0.1-0.8c0-0.1,0-0.3,0.1-0.4c0.1-0.3,0.2-0.6,0.2-0.9c0-0.5,0-0.8-0.3-1.1
		C5,617.6,5,616.9,5,616.3c0-0.3,0-0.6-0.1-0.8c-0.2-0.4,0-1.3,0.2-1.9c0.1-0.2,0.1-0.4,0.1-0.5c0-0.2,0.1-0.5,0.2-0.8
		c0.2-0.6,0.4-1.2,0.1-1.3c-0.2-0.2-0.3-1-0.4-1.8c-0.1-1-0.2-2.2-0.6-2.9c-0.4-0.9-1.2-4.2-1.8-6.5c-0.1-0.4-0.2-0.8-0.3-1.1
		c-0.5-1.8,1.8-12.4,2.3-14.2c0.5-1.8,1.8-6.8,1.8-7.1c-0.1-0.2-0.3-0.3-0.6-0.5c-0.7-0.4-1.6-1-1.4-2.1c0.1-0.9,0.6-2,1-2.7
		c0.3-0.6,0.4-1,0.3-1c-0.1,0-0.1-0.1-0.1-0.5s0-0.9-0.1-1.6c-0.3-1.6,1-3.7,1-3.7s0.8,0.5,1,0.3v-18.9v-0.3v-1.6v-4.5v-1.8v-0.8
		v-0.8v-1.8c-0.5-1.2-0.9-2.7-0.5-3.6l0.2-10.7c-0.2-0.8-0.4-1.6-0.6-2.3c-0.2-0.5-0.3-1-0.4-1.4c-0.5-1.5,0-3.3,0.3-4.6
		c0.2-0.9,0.4-1.7,0.2-2c-0.3-0.6-0.1-1.2,0.1-1.9C7,508,7.1,507.4,7,507c-0.1-0.3-0.1-0.5-0.2-0.6c-0.2-0.4-0.4-0.9-0.6-3.3
		c-0.3-3.4-0.3-3.9,0-4.7c0.2-0.4,0.6-0.9,1-1.5c0.2-0.3,0.4-0.6,0.6-0.8v-1.3c-0.5-1.3-0.8-3.2-0.8-5.3v-2.9
		c0.3-1.3,0.3-2.1,0.3-2.4v-0.3c0-0.5,0-1.1,0.3-1.8c0-0.2,0.1-0.5,0.1-0.8c0.1-0.4,0.1-0.8,0.1-1.3l0.5-42.6
		c-0.5-0.8-0.8-1.6-0.8-1.8c0-0.3-0.1-0.7-0.1-1.3c-0.2-1.4-0.4-3.4,0.1-4.5c0.3-0.5,0.8-1.1,1-1.3v-2.6c-0.5-0.5-1-1.1-1.3-1.8
		c-0.1-0.6-0.2-1.5-0.4-2.3c-0.1-1-0.3-2.1-0.4-2.7v-0.3c-0.2-0.5-0.2-1.2-0.3-2.1c-0.1-0.6-0.1-1.3-0.2-2.1v-1.1
		c0-0.4,0.1-0.7,0.1-1.1c0.1-0.3,0.1-0.7,0.1-1.1c0-0.3,0.1-0.5,0.1-0.8c0.1-0.3,0.1-0.5,0.1-0.8c0.3-1.3,0.5-2.6,0.5-3.4
		c0.3-0.5,0.3-0.8,0.3-1.3c0.2-1,0.5-1.9,1-3.3c0.2-0.5,0.4-1.1,0.6-1.7c0-0.1,0.1-0.3,0.1-0.4c0.1-0.1,0.1-0.3,0.1-0.4l0.3-19.5
		c-0.5-0.5-1-1.3-0.8-3.2c0-0.5,0.3-1.8,0.8-3.4V372l1.6-13.7v-0.3c-0.2-0.8,0-1.8,0.3-2.9c0.1-0.4,0.2-0.9,0.3-1.3
		c0.3-0.8,0.3-1.3,0-1.8c-0.4-1.2-0.2-3.1-0.1-4.1c0-0.3,0.1-0.5,0.1-0.7c-0.1-0.2,0-0.4,0-0.6c0.1-0.4,0.4-1.2,0.2-2.8
		c-0.1-1.3-0.2-1.8-0.2-2.4c0-0.7,0.2-1.3,0.4-2.8c0.2-1.2,0.4-2.6,0.6-3.9c0.2-1.8,0.4-3.5,0.7-4.5c0-0.4,0.1-0.6,0.3-0.9
		c0.1-0.1,0.1-0.2,0.2-0.4c0.1-0.3,0.3-0.5,0.4-0.7c0.1-0.2,0.3-0.4,0.4-0.7l1-8.9c0-0.1-0.1-0.3-0.1-0.4c-0.1-0.1-0.1-0.3-0.1-0.4
		c-0.3-0.8-0.5-1.6-0.5-2.4c-0.3-0.5-0.3-1.3-0.3-1.8c-0.2-1.5-0.1-3,0-4.2c0-0.4,0-0.8,0-1.1c0-0.6,0.1-1,0.2-1.4
		c0.1-0.4,0.2-0.8,0.1-1.2c-0.3-0.5,0.3-2.1,0.8-3.7c0.3-1.1,0.5-2.1,0.5-2.6v-1.8c0-0.4,0.1-0.9,0.1-1.3c0.1-0.5,0.1-0.9,0.1-1.3
		c0.1-0.7,0.1-1.3,0.1-1.9s0-1.2,0.1-1.7c0.1-0.2,0.2-0.2,0.2-0.3c0-0.1,0-0.1,0-0.2l0.3-0.3c0.1-0.1,0.2-0.1,0.2-0.1
		c0.1,0,0.1-0.2,0.1-1.2c0-0.7,0.1-1.2,0.1-1.8c0.1-0.9,0.2-1.6-0.1-2.5v-0.3c0.1,0.1,0.1,0.2,0.2,0.3c0.2,0.4,0.4,0.7,0-1.1
		c-0.3-0.5-0.5-1.3-0.8-2.4c0-0.1-0.1-0.3-0.1-0.5c-0.1-0.2-0.1-0.4-0.1-0.5c-0.3-1.3-0.6-2.6-0.9-3.7c-0.9-4.1-1.5-6.7-2.7-7.1
		c-1.1-0.3-1.1-0.8-1-1.4c0-0.4,0-0.8-0.3-1.2c-0.3-0.4-0.5-0.7-0.8-1.1c-0.3-0.3-0.5-0.7-0.8-1.1c-0.3,0-0.3-0.3-0.3-0.3
		c-0.3-0.3-0.3-0.8-0.3-1.3v-0.3c0.5-1.6-0.5-6.8-0.5-6.8s-0.5-2.9-0.3-4.5c0-0.1,0.1-0.2,0.1-0.3c0.1-0.1,0.1-0.1,0.1-0.3l-1.6-5.8
		v-7.4c-0.1-0.4-0.3-0.9-0.4-1.3c-0.1-0.5-0.3-0.9-0.4-1.3c-0.2-0.4-0.1-0.9,0.1-1.5c0-0.1,0.1-0.2,0.1-0.3c0.3-0.5,0.5-1.3,0.5-2.1
		v-0.3c-0.2-0.4-0.1-0.7-0.1-1.1c0-0.2,0.1-0.3,0.1-0.5v-1.6v-0.8C7.3,227,7,226.5,7,226c-0.2-0.5-0.1-1.2-0.1-1.8
		c0-0.3,0.1-0.6,0.1-0.8c0-0.5,0.3-1.3,0.5-1.8v-10c-0.5-1.1-0.8-1.8-1-2.6v0v-0.3c0-1.8,0-2.6-1.3-4.7c-0.7-1.2-1.1-2.4-1.5-3.5
		c-0.3-0.8-0.5-1.5-0.8-2.1c-0.8-1.6-0.3-3.4,0.3-5c0.4-0.8,0.9-1.2,1.4-1.6c0.5-0.4,0.9-0.6,0.5-1.3c-0.8-1.3-0.8-2.1-0.8-2.9
		c0-0.3-0.1-0.7-0.3-1.1c-0.3-0.7-0.5-1.5-0.2-2c0.5-0.8,1.3-2.4,1.6-3.4c0.1-0.3,0.1-0.5,0-0.6c0-0.3-0.1-0.4,1-2
		c0-0.1,0.1-0.2,0.1-0.3c0.1-0.1,0.1-0.1,0.1-0.3c0.4-0.4,0.6-1,0.8-1.4c0.1-0.1,0.1-0.3,0.2-0.4v-19.5c-0.2-0.4-0.4-0.8-0.6-1.1
		c-0.4-0.7-0.7-1.2-0.7-2.3c0-0.6,0.2-1.1,0.4-1.6c0.1-0.1,0.1-0.3,0.2-0.5c0.1-0.3,0.3-0.6,0.4-0.9c0.1-0.3,0.3-0.7,0.4-0.9v-2.9
		v-0.5v-12.6c-0.5-1.6-0.9-3-1.3-4.2c-0.6-2-1-3.4-1.3-4.2c-0.2-0.7-0.5-1.6-0.7-2.4c-0.3-1-0.5-1.9-0.6-2.1c-0.3-0.3-1.3-2.9,0-5
		c0-0.1,0.1-0.2,0.1-0.3c0.1-0.1,0.1-0.1,0.1-0.3c0.5-0.8,0.8-1.1,1-1.1c0.1-0.1,0.2-0.2,0.3-0.2c0.1-0.1,0.2-0.1,0.2-0.3v-1.8
		c-0.1-0.3-0.2-0.7-0.2-1c-0.1-0.4-0.1-0.7-0.3-0.9c-0.5-0.8-0.3-2.6,0-2.9c0.1-0.1,0.2-0.1,0.3-0.2c0.4-0.2,0.9-0.4,0.2-1.1
		c-0.7-0.7-0.4-1.3-0.1-1.9c0.1-0.3,0.2-0.6,0.1-0.8c0-0.1,0-0.3,0.1-0.4c0.1-0.3,0.2-0.6,0.2-0.9c0-0.5,0-0.8-0.3-1.1
		C5,99.7,5,99,5,98.4c0-0.3,0-0.6-0.1-0.8c-0.2-0.4,0-1.3,0.2-1.9c0.1-0.2,0.1-0.4,0.1-0.5c0-0.2,0.1-0.5,0.2-0.8
		c0.2-0.6,0.4-1.2,0.1-1.3c-0.2-0.2-0.3-1-0.4-1.8c-0.1-1-0.2-2.2-0.6-2.9c-0.4-0.9-1.2-4.2-1.8-6.5c-0.1-0.4-0.2-0.8-0.3-1.1
		c-0.5-1.8,1.8-12.4,2.3-14.2c0.5-1.8,1.8-6.8,1.8-7.1c-0.1-0.2-0.3-0.3-0.6-0.5c-0.7-0.4-1.6-1-1.4-2.1c0.1-0.9,0.6-2,1-2.7
		c0.3-0.6,0.4-1,0.3-1c-0.1,0-0.1-0.1-0.1-0.5s0-0.9-0.1-1.6c-0.3-1.6,1-3.7,1-3.7s0.8,0.5,1,0.3V28.7v-0.3v-1.6v-4.5v-1.8v-0.8
		v-0.8v-1.8c-0.5-1.3-1-3.2-0.3-3.9c0.3,0,0.3-0.3,0.3-0.3V0H0v1051.2H7z"/>
</g>
</svg>
