<svg width="26" height="28" viewBox="0 0 26 28" fill="none" xmlns="http://www.w3.org/2000/svg">
<path d="M1.5525 10.6464L1.5528 10.6477C2.32891 13.9992 4.30025 17.4332 7.07959 20.3382C9.85727 23.2415 13.1445 25.3119 16.3799 26.1287L16.3808 26.1289C19.4185 26.8924 22.1918 26.4754 23.9723 24.6143L24.532 24.0293C25.1707 23.3617 25.1616 22.3006 24.5385 21.6355L24.5385 21.6354L24.532 21.6286L21.3093 18.2602C20.6489 17.5699 19.567 17.5799 18.9089 18.2534L18.9089 18.2534L18.9023 18.2602L16.4902 20.7814C16.4788 20.7933 16.4691 20.7965 16.4632 20.7975C16.4574 20.7984 16.4513 20.798 16.4429 20.7934L16.4422 20.7931C14.5551 19.7748 12.6353 18.2834 10.9039 16.4607C9.16827 14.6335 7.73176 12.6289 6.75476 10.6573C6.74259 10.6327 6.73719 10.6018 6.74196 10.5695C6.74674 10.5372 6.75988 10.5148 6.7721 10.502L9.18425 7.9808C9.82296 7.31321 9.81387 6.25206 9.19076 5.58691L9.1908 5.58687L9.18363 5.5794L5.96039 2.21708C5.64697 1.87975 5.20945 1.6918 4.75169 1.6918C4.28881 1.6918 3.85785 1.88801 3.5482 2.21166L2.98858 2.79659C1.22175 4.64332 0.829155 7.50202 1.5525 10.6464Z" stroke="#43362E" stroke-width="1.8"/>
</svg>
