<svg width="71" height="70" viewBox="0 0 71 70" fill="none" xmlns="http://www.w3.org/2000/svg">
<circle cx="35.4798" cy="34.7703" r="34.5955" fill="#F46244"/>
<path d="M27.6424 48.5967C27.6424 47.1233 27.8804 45.82 28.3564 44.6867C28.8551 43.5533 29.4557 42.59 30.1584 41.7967C30.8611 40.9807 31.7904 40.04 32.9464 38.9747C34.5557 37.4787 35.7117 36.1073 36.4144 34.8607C37.1397 33.5913 37.5024 32.3333 37.5024 31.0867C37.5024 29.84 37.2531 28.7973 36.7544 27.9587C36.2784 27.0973 35.4624 26.6667 34.3064 26.6667C33.7171 26.6667 33.1617 26.8027 32.6404 27.0747C32.1417 27.3467 31.7564 27.6867 31.4844 28.0947C31.7111 28.3213 31.8811 28.6047 31.9944 28.9447C32.1077 29.262 32.1644 29.568 32.1644 29.8627C32.1644 30.3613 31.9717 30.8487 31.5864 31.3247C31.2011 31.8007 30.6457 32.0387 29.9204 32.0387C29.2404 32.0387 28.6964 31.8007 28.2884 31.3247C27.8804 30.8487 27.6764 30.2593 27.6764 29.5567C27.6764 28.8313 27.9711 28.0607 28.5604 27.2447C29.1724 26.406 30.0337 25.7033 31.1444 25.1367C32.2777 24.5473 33.5924 24.2527 35.0884 24.2527C36.4031 24.2527 37.6384 24.468 38.7944 24.8987C39.9504 25.3293 40.8911 26.032 41.6164 27.0067C42.3417 27.9587 42.7044 29.1827 42.7044 30.6787C42.7044 31.4947 42.5004 32.3333 42.0924 33.1947C41.6844 34.0333 40.9364 35.0307 39.8484 36.1867C38.7604 37.3427 37.2191 38.7367 35.2244 40.3687C34.0684 41.298 33.1731 42.1933 32.5384 43.0547C31.9037 43.8933 31.5297 44.5733 31.4164 45.0947L38.0804 45.2647C38.9191 45.31 39.5537 45.174 39.9844 44.8567C40.4151 44.5393 40.6304 43.9387 40.6304 43.0547H42.8064L42.5344 48.5967H27.6424Z" fill="white"/>
</svg>
