<svg width="70" height="70" viewBox="0 0 70 70" fill="none" xmlns="http://www.w3.org/2000/svg">
<circle cx="35.0033" cy="34.7703" r="34.5955" fill="#F46244"/>
<path d="M33.9596 49.1407C32.3503 49.1407 30.9903 48.9027 29.8796 48.4267C28.7689 47.928 27.9416 47.3047 27.3976 46.5567C26.8536 45.786 26.5816 44.9813 26.5816 44.1427C26.5816 43.4173 26.7969 42.8053 27.2276 42.3067C27.6809 41.808 28.2589 41.5587 28.9616 41.5587C29.6869 41.5587 30.2196 41.7853 30.5596 42.2387C30.9223 42.692 31.1036 43.1907 31.1036 43.7347C31.1036 43.984 31.0583 44.256 30.9676 44.5507C30.8769 44.8227 30.7409 45.072 30.5596 45.2987C30.7863 45.7067 31.1829 46.0353 31.7496 46.2847C32.3389 46.534 32.9623 46.6587 33.6196 46.6587C35.0023 46.6587 36.0676 46.2507 36.8156 45.4347C37.5636 44.596 37.9376 43.508 37.9376 42.1707C37.9376 40.788 37.5409 39.6093 36.7476 38.6347C35.9769 37.66 34.6963 37.184 32.9056 37.2067C32.5429 37.2067 31.9536 37.2407 31.1376 37.3087V34.8607C31.3869 34.8833 31.7156 34.8947 32.1236 34.8947C33.6196 34.8947 34.7869 34.498 35.6256 33.7047C36.4643 32.8887 36.8836 31.8233 36.8836 30.5087C36.8836 29.3073 36.6229 28.3667 36.1016 27.6867C35.6029 26.984 34.8096 26.6327 33.7216 26.6327C33.1323 26.6327 32.5883 26.78 32.0896 27.0747C31.5909 27.3467 31.2396 27.6753 31.0356 28.0607C31.2169 28.2873 31.3529 28.5593 31.4436 28.8767C31.5343 29.194 31.5796 29.4773 31.5796 29.7267C31.5796 30.2253 31.3869 30.7127 31.0016 31.1887C30.6389 31.6647 30.0949 31.9027 29.3696 31.9027C28.6669 31.9027 28.1116 31.676 27.7036 31.2227C27.3183 30.7467 27.1256 30.1573 27.1256 29.4547C27.1256 28.7293 27.3976 27.9587 27.9416 27.1427C28.5083 26.3267 29.3243 25.6467 30.3896 25.1027C31.4776 24.536 32.7696 24.2527 34.2656 24.2527C36.5549 24.2527 38.3796 24.74 39.7396 25.7147C41.1223 26.6667 41.8136 28.1853 41.8136 30.2707C41.8136 30.928 41.6323 31.6193 41.2696 32.3447C40.9296 33.07 40.3743 33.7387 39.6036 34.3507C38.8556 34.94 37.8923 35.3593 36.7136 35.6087V35.6427C38.7989 36.028 40.3743 36.7987 41.4396 37.9547C42.5276 39.088 43.0716 40.414 43.0716 41.9327C43.0716 44.1993 42.2329 45.9673 40.5556 47.2367C38.8783 48.506 36.6796 49.1407 33.9596 49.1407Z" fill="white"/>
</svg>
