<svg width="70" height="70" viewBox="0 0 70 70" fill="none" xmlns="http://www.w3.org/2000/svg">
<circle cx="35.3822" cy="34.5965" r="34.5955" fill="#F46244"/>
<path d="M32.8543 46.1789C33.4663 46.1562 33.931 46.0882 34.2483 45.9749C34.5657 45.8389 34.815 45.5669 34.9963 45.1589C35.1777 44.7509 35.2683 44.1049 35.2683 43.2209V42.2689H26.3943V39.0729L38.0563 24.0789H40.1303V39.2089H43.4623V42.2689H40.1303V42.8469C40.1303 44.3655 40.085 45.3855 39.9943 45.9069C40.7423 45.8389 41.5923 45.8049 42.5443 45.8049V48.4229H32.8543V46.1789ZM35.3023 31.6269H35.2683L29.5563 39.1069L35.2683 39.1409L35.3023 31.6269Z" fill="white"/>
</svg>
