<svg width="70" height="70" viewBox="0 0 70 70" fill="none" xmlns="http://www.w3.org/2000/svg">
<circle cx="35.0033" cy="34.7703" r="34.5955" fill="#F46244"/>
<path d="M34.2236 49.1407C32.8183 49.1407 31.583 48.914 30.5176 48.4607C29.4523 47.9847 28.6363 47.3953 28.0696 46.6927C27.503 45.9673 27.2196 45.2307 27.2196 44.4827C27.2196 43.78 27.435 43.1793 27.8656 42.6807C28.319 42.1593 28.9083 41.8987 29.6336 41.8987C30.359 41.8987 30.8803 42.1253 31.1976 42.5787C31.5376 43.032 31.7076 43.5307 31.7076 44.0747C31.7076 44.596 31.583 45.0607 31.3336 45.4687C31.4696 45.8313 31.8096 46.1373 32.3536 46.3867C32.9203 46.6133 33.4643 46.7267 33.9856 46.7267C35.255 46.7267 36.1956 46.2507 36.8076 45.2987C37.4423 44.3467 37.7596 43.2133 37.7596 41.8987C37.7596 37.9773 36.3996 36.0167 33.6796 36.0167C33.1356 36.0167 32.501 36.1187 31.7756 36.3227C31.0503 36.5267 30.325 36.844 29.5996 37.2747L28.1376 36.1527L28.0016 24.7967H36.8076C37.6916 24.7967 38.3376 24.6493 38.7456 24.3547C39.1763 24.06 39.3916 23.4707 39.3916 22.5867H41.5336L41.2956 28.0947L30.6196 28.2987V34.3507C31.141 34.124 31.787 33.9313 32.5576 33.7727C33.351 33.614 34.0763 33.5347 34.7336 33.5347C36.547 33.5347 38.0656 33.886 39.2896 34.5887C40.5363 35.2687 41.4656 36.1867 42.0776 37.3427C42.6896 38.4987 42.9956 39.7793 42.9956 41.1847C42.9956 42.862 42.5763 44.3013 41.7376 45.5027C40.9216 46.704 39.845 47.6107 38.5076 48.2227C37.1703 48.8347 35.7423 49.1407 34.2236 49.1407Z" fill="white"/>
</svg>
