<svg width="20" height="21" viewBox="0 0 20 21" fill="none" xmlns="http://www.w3.org/2000/svg">
<path d="M1.60208 8.28541L1.60239 8.28671C2.17596 10.6791 3.62656 13.1106 5.65423 15.1577C7.68127 17.2041 10.087 18.671 12.4668 19.2513L12.4677 19.2515C14.6945 19.792 16.7907 19.5126 18.159 18.1313L18.5619 17.7245C19.1306 17.1503 19.1211 16.2302 18.5685 15.6604L18.5685 15.6603L18.5619 15.6536L16.2417 13.3112C15.6682 12.7322 14.7421 12.7419 14.173 13.3045L14.1729 13.3045L14.1663 13.3112L12.5388 14.9542C11.2491 14.2616 9.93848 13.2682 8.75074 12.0605C7.55461 10.8442 6.56286 9.5179 5.87616 8.21566L7.51196 6.56422L6.94329 6.00093L7.51196 6.56422C8.08068 5.99006 8.07125 5.0699 7.51859 4.50009L7.51863 4.50004L7.51133 4.49268L5.19207 2.15591C4.91548 1.86921 4.53705 1.71597 4.14943 1.71597C3.75468 1.71597 3.38273 1.87733 3.11174 2.15092L2.70883 2.55769L3.34824 3.19105L2.70883 2.55769C1.34357 3.93601 1.06819 6.04379 1.60208 8.28541Z" stroke="#43362E" stroke-width="1.8"/>
</svg>
