<svg width="766" height="311" viewBox="0 0 766 311" fill="none" xmlns="http://www.w3.org/2000/svg">
<path d="M586.219 57.9089C586.695 56.1555 587.949 55.435 589.652 54.9478C640.258 41.8591 690.865 28.6569 741.471 15.5115C742.095 15.3499 742.664 15.1308 743.232 14.9116C744.589 14.9306 745.945 14.9495 747.301 14.9685C747.287 15.9903 747.272 17.0688 747.258 18.0906C742.731 26.4869 738.204 34.8833 733.678 43.2796C717.78 72.5241 701.827 101.711 685.816 130.954C685.293 131.968 684.32 132.807 683.629 133.705C683.008 133.697 682.386 133.688 681.764 133.679C681.04 132.931 680.201 132.295 679.648 131.435C674.497 123.812 669.461 116.134 664.367 108.511C664.091 108.053 663.757 107.651 663.425 107.135C662.912 107.412 662.4 107.689 661.888 107.909C655.394 111.451 648.901 114.994 642.406 118.594C641.039 119.37 639.673 119.975 638.219 118.876C636.821 117.778 637.124 116.362 637.428 114.834C640.073 103.516 642.719 92.1973 645.422 80.8231C645.481 80.6536 645.484 80.4265 645.545 80.0867C643.013 79.2564 640.538 78.3702 638.006 77.5399C621.859 72.0906 605.712 66.6413 589.563 61.3055C587.931 60.7717 586.755 59.9604 586.327 58.2511C586.216 58.136 586.217 58.0224 586.219 57.9089ZM736.059 26.6207C736.003 26.5631 735.947 26.5056 735.835 26.4472C735.379 26.7247 734.866 27.0015 734.41 27.279C707.269 43.9889 680.127 60.8124 652.986 77.5223C651.618 78.3548 651.665 79.0368 652.496 80.2407C662.13 94.6831 671.707 109.125 681.283 123.623C681.616 124.082 681.95 124.484 682.336 125.171C700.321 92.1515 718.19 59.4145 736.059 26.6207ZM725.042 26.1827C724.987 26.0684 724.931 26.0108 724.877 25.8965C683.234 36.726 641.592 47.4986 599.552 58.4361C600.395 58.7885 600.845 58.9084 601.295 59.085C615.98 64.0029 630.665 68.9207 645.293 73.8946C646.474 74.3085 647.323 74.2069 648.293 73.5959C673.382 58.1063 698.47 42.6167 723.559 27.1271C724.073 26.7937 724.529 26.4594 725.042 26.1827ZM660.102 102.206C656.669 97.1049 653.404 92.1197 649.86 86.7899C647.938 94.9388 646.132 102.749 644.21 110.898C649.735 107.909 654.862 105.085 660.102 102.206Z" fill="#43362E"/>
<path d="M2.64008 75.4772C42.4629 105.822 83.5104 137.722 131.378 150.244C338.871 204.668 580.621 63.0849 460.654 29.9032C359.473 1.9905 310.441 206.282 371.205 258.242C451.601 326.967 569.3 195.807 607.465 154.1" stroke="#43362E" stroke-width="3" stroke-miterlimit="10" stroke-dasharray="5 5"/>
</svg>
