<svg width="463" height="392" viewBox="0 0 463 392" fill="none" xmlns="http://www.w3.org/2000/svg">
<path d="M305.842 46.4681C306.227 45.0523 307.239 44.4704 308.614 44.077C349.478 33.5079 390.344 22.8472 431.209 12.2322C431.713 12.1017 432.172 11.9248 432.631 11.7478C433.726 11.7631 434.821 11.7784 435.916 11.7938C435.905 12.6188 435.893 13.4898 435.881 14.3148C432.226 21.0949 428.571 27.8749 424.915 34.655C412.078 58.2699 399.196 81.8383 386.267 105.452C385.845 106.271 385.059 106.948 384.501 107.674C383.999 107.667 383.497 107.66 382.995 107.653C382.41 107.049 381.733 106.535 381.286 105.841C377.127 99.685 373.06 93.4846 368.947 87.3294C368.724 86.9595 368.454 86.6348 368.186 86.2184C367.772 86.4419 367.358 86.6653 366.945 86.8429C361.701 89.7038 356.458 92.5646 351.213 95.4713C350.109 96.0977 349.007 96.5866 347.832 95.6991C346.704 94.8122 346.948 93.6694 347.193 92.435C349.33 83.2955 351.466 74.156 353.649 64.9714C353.696 64.8345 353.699 64.6511 353.748 64.3767C351.703 63.7063 349.705 62.9906 347.66 62.3202C334.622 57.9199 321.583 53.5195 308.542 49.2109C307.225 48.7798 306.275 48.1247 305.93 46.7444C305.84 46.6515 305.841 46.5598 305.842 46.4681ZM426.838 21.2029C426.793 21.1564 426.748 21.1099 426.658 21.0628C426.289 21.2869 425.875 21.5104 425.507 21.7344C403.591 35.2277 381.673 48.8127 359.757 62.306C358.652 62.9783 358.69 63.5289 359.361 64.5011C367.14 76.1633 374.874 87.8249 382.607 99.5324C382.876 99.9029 383.145 100.228 383.457 100.782C397.98 74.1191 412.409 47.6839 426.838 21.2029ZM417.942 20.8492C417.898 20.7569 417.853 20.7104 417.808 20.6181C384.182 29.3629 350.556 38.0618 316.609 46.8938C317.289 47.1785 317.653 47.2752 318.016 47.4179C329.874 51.389 341.732 55.3602 353.544 59.3766C354.498 59.7109 355.184 59.6288 355.967 59.1354C376.226 46.6276 396.485 34.1197 416.745 21.6119C417.159 21.3426 417.528 21.0727 417.942 20.8492ZM365.503 82.2381C362.731 78.1189 360.094 74.0934 357.233 69.7896C355.68 76.3698 354.223 82.6763 352.67 89.2565C357.131 86.8432 361.271 84.5629 365.503 82.2381Z" fill="#43362E"/>
<path d="M23.1489 271.118C52.4441 274.663 82.8253 278.632 110.893 270.717C232.6 236.481 313.247 92.3931 242.367 111.315C182.609 127.312 218.63 245.783 265.018 254.068C326.387 265.017 347.087 163.235 354.044 130.649" stroke="#43362E" stroke-width="3" stroke-miterlimit="10" stroke-dasharray="5 5"/>
</svg>
