<svg width="110" height="114" viewBox="0 0 110 114" fill="none" xmlns="http://www.w3.org/2000/svg">
<path d="M82.8044 87.1177L72.994 110.803M92.9701 89.3099L88.3212 110.803" stroke="#43362E" stroke-width="3" stroke-miterlimit="10" stroke-linecap="round" stroke-linejoin="round"/>
<path d="M61.8619 55.4664C61.8619 66.1399 51.7107 74.8067 39.207 74.8067C26.7033 74.8067 16.5522 66.162 16.5522 55.4664C16.5522 55.2899 16.5522 55.1135 16.5522 54.9591" stroke="#43362E" stroke-width="3" stroke-miterlimit="10" stroke-linecap="round" stroke-linejoin="round"/>
<path d="M16.5522 32.4645V56.855" stroke="#43362E" stroke-width="3" stroke-miterlimit="10" stroke-linecap="round" stroke-linejoin="round"/>
<path d="M61.864 32.0223V56.4128" stroke="#43362E" stroke-width="3" stroke-miterlimit="10" stroke-linecap="round" stroke-linejoin="round"/>
<path d="M50.1 72.6453V75.8871C50.1 76.6589 50.0347 77.4308 49.9258 78.1585C49.1198 83.2968 45.6344 87.1561 41.452 87.1561H37.4438C33.3485 87.1561 29.9285 83.4512 29.0354 78.4672C28.8829 77.6292 28.8175 76.7692 28.8175 75.8871V72.6453" stroke="#43362E" stroke-width="3" stroke-miterlimit="10" stroke-linecap="round" stroke-linejoin="round"/>
<path d="M16.4234 56.4132C13.0469 56.4132 10.324 53.4582 10.324 49.7974C10.324 46.1366 13.0469 43.1815 16.4234 43.1815" stroke="#43362E" stroke-width="3" stroke-miterlimit="10" stroke-linecap="round" stroke-linejoin="round"/>
<path d="M61.864 56.4132C65.2405 56.4132 67.9634 53.4582 67.9634 49.7974C67.9634 46.1366 65.2405 43.1815 61.864 43.1815" stroke="#43362E" stroke-width="3" stroke-miterlimit="10" stroke-linecap="round" stroke-linejoin="round"/>
<path d="M28.0332 48.0324C29.7175 48.0324 31.0829 46.6502 31.0829 44.945C31.0829 43.2399 29.7175 41.8576 28.0332 41.8576C26.3489 41.8576 24.9836 43.2399 24.9836 44.945C24.9836 46.6502 26.3489 48.0324 28.0332 48.0324Z" stroke="#43362E" stroke-width="3" stroke-miterlimit="10" stroke-linecap="round" stroke-linejoin="round"/>
<path d="M50.6864 48.0324C52.3707 48.0324 53.7361 46.6502 53.7361 44.945C53.7361 43.2399 52.3707 41.8576 50.6864 41.8576C49.0021 41.8576 47.6367 43.2399 47.6367 44.945C47.6367 46.6502 49.0021 48.0324 50.6864 48.0324Z" stroke="#43362E" stroke-width="3" stroke-miterlimit="10" stroke-linecap="round" stroke-linejoin="round"/>
<path d="M52.6714 53.2603C52.6714 60.2069 46.6374 65.8304 39.2092 65.8304C31.781 65.8304 25.747 60.2069 25.747 53.2603" stroke="#43362E" stroke-width="3" stroke-miterlimit="10" stroke-linecap="round" stroke-linejoin="round"/>
<path d="M57.2246 14.6675C53.6303 3.92773 45.0912 2.31787 36.5085 2.31787C20.6937 2.31787 7.88495 16.2332 7.88495 33.4124V92.073" stroke="#43362E" stroke-width="3" stroke-miterlimit="10" stroke-linecap="round" stroke-linejoin="round"/>
<path d="M57.2217 14.4033C66.2401 12.3303 70.1829 18.5933 70.1829 23.7316V89.8241" stroke="#43362E" stroke-width="3" stroke-miterlimit="10" stroke-linecap="round" stroke-linejoin="round"/>
<path d="M49.8849 78.334C65.8304 82.1491 73.0107 91.9108 76.0369 102.54" stroke="#43362E" stroke-width="3" stroke-miterlimit="10" stroke-linecap="round" stroke-linejoin="round"/>
<path d="M1.89258 109.628C1.89258 94.8742 13.3507 82.4364 29.0348 78.4669" stroke="#43362E" stroke-width="3" stroke-miterlimit="10" stroke-linecap="round" stroke-linejoin="round"/>
<path d="M16.5522 38.6382C16.5522 38.6382 42.2567 40.1158 52.6474 26.7297" stroke="#43362E" stroke-width="3" stroke-miterlimit="10" stroke-linecap="round" stroke-linejoin="round"/>
<path d="M51.1227 28.4943C51.1227 28.4943 53.7367 35.8379 61.8619 37.9109" stroke="#43362E" stroke-width="3" stroke-miterlimit="10" stroke-linecap="round" stroke-linejoin="round"/>
<path d="M84.9097 72.7107C85.0218 72.4906 85.1377 72.2629 85.2499 72.0428C87.2408 68.1339 89.2394 64.2289 91.2152 60.3123C91.7296 59.2837 92.4915 58.6502 93.6511 58.6229C94.7918 58.5953 95.6157 59.1521 96.1393 60.1674C96.1467 60.1903 96.1769 60.2059 96.2185 60.2368C97.2838 59.2324 98.4912 58.9615 99.7653 59.7779C100.93 60.5284 101.126 61.5483 100.624 63.3968C101.883 63.2674 102.895 63.681 103.505 64.8267C104.126 65.9879 103.725 67.0556 103.066 68.1247C103.218 68.1261 103.309 68.1346 103.397 68.1316C105.561 68.0068 106.957 70.1017 105.986 72.045C104.25 75.491 102.487 78.933 100.736 82.3713C100.195 83.434 99.6764 84.5082 99.0897 85.5475C96.8008 89.629 91.5035 91.6503 87.0837 90.1679C82.7207 88.705 80.0934 85.2031 79.722 80.6088C79.4191 76.8921 78.9717 73.1779 78.5814 69.4642C78.3742 67.4529 80.1473 65.9213 82.0969 66.4236C83.1514 66.6965 83.957 67.6268 84.1374 68.7533C84.3467 70.0669 84.5826 71.3846 84.8109 72.6984C84.8375 72.7024 84.8755 72.7028 84.9097 72.7107Z" stroke="#43362E" stroke-width="3" stroke-miterlimit="10" stroke-linecap="round" stroke-linejoin="round"/>
<path d="M96.2174 60.2077L90.0203 72.3746" stroke="#43362E" stroke-width="3" stroke-miterlimit="10" stroke-linecap="round" stroke-linejoin="round"/>
<path d="M100.554 63.5048L94.5847 75.2238" stroke="#43362E" stroke-width="3" stroke-miterlimit="10" stroke-linecap="round" stroke-linejoin="round"/>
<path d="M103.327 67.6261L98.448 77.2048" stroke="#43362E" stroke-width="3" stroke-miterlimit="10" stroke-linecap="round" stroke-linejoin="round"/>
</svg>
