<svg width="97" height="111" viewBox="0 0 97 111" fill="none" xmlns="http://www.w3.org/2000/svg">
<path d="M58.5056 68.9341C58.1815 69.7444 57.6953 70.3116 57.1281 70.7978C55.6695 71.9323 53.7248 71.9323 52.0231 70.4737C49.6732 68.4479 45.8648 68.529 43.5149 70.5547C41.9753 71.9323 40.1116 72.0943 38.653 71.203C38.0048 70.7978 37.3565 70.0686 36.9514 69.1772C35.6549 66.3411 32.2516 64.7205 29.2534 65.5308C26.2553 66.3411 23.9054 64.4774 23.9864 61.3982C24.0674 58.8863 22.5279 56.5364 20.34 55.402C20.178 55.3209 20.0969 55.2399 19.9349 55.2399C19.5297 55.0778 19.0435 54.9158 18.6384 54.8347C15.5592 54.2675 14.2627 51.5935 15.7213 48.8385C17.0988 46.0834 16.2074 42.356 13.7765 40.5733C11.2646 38.7906 11.2646 35.7925 13.6955 33.9288C16.1264 32.0651 16.9367 28.3376 15.4782 25.5826C14.0196 22.8275 15.3161 20.1535 18.3142 19.5863C21.3124 19.0191 23.6623 15.9399 23.5813 12.8607C23.4192 9.78154 25.7691 7.91783 28.7672 8.64711C31.7654 9.45742 35.1687 7.75577 36.3841 4.83866C37.5996 2.00257 40.5167 1.27329 42.8666 3.29907C45.2165 5.32484 49.025 5.24381 51.3749 3.21804C53.7248 1.19226 56.6419 1.84051 57.8573 4.59556C59.1538 7.43165 62.5571 9.05226 65.5553 8.24196C68.5534 7.43165 70.9033 9.29536 70.8223 12.3745C70.7413 15.4537 73.1722 18.4519 76.1703 18.938C79.2495 19.5053 80.546 22.1793 79.0874 24.9343C77.7099 27.6894 78.6013 31.4168 81.0322 33.1995C83.5442 34.9822 83.5442 37.9803 81.1132 39.844C78.6823 41.7077 77.872 45.4352 79.3305 48.1902C80.7891 50.9453 79.4926 53.6193 76.4945 54.1865C76.0893 54.2675 75.6842 54.4296 75.279 54.5916C72.8481 55.6451 71.1464 58.238 71.3085 60.9121C71.4705 63.9912 69.1206 65.8549 66.1225 65.1257C63.1244 64.3964 59.7211 66.098 58.5056 68.9341Z" stroke="#43362E" stroke-width="3" stroke-miterlimit="10" stroke-linecap="round" stroke-linejoin="round"/>
<path d="M47.4043 62.0465C61.2775 62.0465 72.5239 50.8001 72.5239 36.9269C72.5239 23.0537 61.2775 11.8073 47.4043 11.8073C33.5312 11.8073 22.2848 23.0537 22.2848 36.9269C22.2848 50.8001 33.5312 62.0465 47.4043 62.0465Z" stroke="#43362E" stroke-width="3" stroke-miterlimit="10" stroke-linecap="round" stroke-linejoin="round"/>
<path d="M47.4043 23.962L51.618 32.4702L61.0175 33.8477L54.2109 40.4923L55.8316 49.8919L47.4043 45.4352L38.9771 49.8919L40.5978 40.4923L33.7912 33.8477L43.1907 32.4702L47.4043 23.962Z" stroke="#43362E" stroke-width="3" stroke-miterlimit="10" stroke-linecap="round" stroke-linejoin="round"/>
<path d="M41.165 71.6892L21.5555 108.639L15.8023 95.4312L1.70291 98.1053L23.014 57.9139" stroke="#43362E" stroke-width="3" stroke-miterlimit="10" stroke-linecap="round" stroke-linejoin="round"/>
<path d="M54.211 71.5271L75.279 108.558L80.627 95.1882L94.8074 97.376L72.1188 57.5898" stroke="#43362E" stroke-width="3" stroke-miterlimit="10" stroke-linecap="round" stroke-linejoin="round"/>
</svg>
