<svg width="180" height="112" viewBox="0 0 180 112" fill="none" xmlns="http://www.w3.org/2000/svg">
<path d="M102.603 47.3874H120.333V6.20316V2.31787H141.842V26.6658H155.793V12.4197H177.592" stroke="#43362E" stroke-width="3" stroke-miterlimit="10" stroke-linecap="round" stroke-linejoin="round"/>
<path d="M75.7946 68.9913V38.0408C75.7946 33.1421 75.2415 31.3746 71.3504 31.3746H10.0233C6.1323 31.3746 4.68884 33.2199 4.68884 38.0408V82.5387C4.68884 86.1933 5.07226 89.148 8.02192 89.148H16.4247" stroke="#43362E" stroke-width="3" stroke-miterlimit="10" stroke-linecap="round" stroke-linejoin="round"/>
<path d="M19.9392 98.0363H8.07782C6.19506 98.0363 4.68884 96.1607 4.68884 93.8163V93.7382C4.68884 91.3938 6.19506 89.5182 8.07782 89.5182H16.2365" stroke="#43362E" stroke-width="3" stroke-miterlimit="10" stroke-linecap="round" stroke-linejoin="round"/>
<path d="M79.0001 97.9796L41.3534 97.9796" stroke="#43362E" stroke-width="3" stroke-miterlimit="10" stroke-linecap="round" stroke-linejoin="round"/>
<path d="M103.96 89.3902H111.945C114.084 89.3902 115.795 91.2642 115.795 93.6067V93.6848C115.795 96.0273 114.084 97.9014 111.945 97.9014H100.439" stroke="#43362E" stroke-width="3" stroke-miterlimit="10" stroke-linecap="round" stroke-linejoin="round"/>
<path d="M113.569 89.1218V75.3668L104.239 52.5502C102.274 47.7967 98.0649 44.707 93.4346 44.707H76.1762L75.5619 90.1025H46.9079" stroke="#43362E" stroke-width="3" stroke-miterlimit="10" stroke-linecap="round" stroke-linejoin="round"/>
<path d="M114.651 74.8677H93.2619C91.0517 74.8677 89.198 72.9156 89.198 70.4169V54.0193H105.881" stroke="#43362E" stroke-width="3" stroke-miterlimit="10" stroke-linecap="round" stroke-linejoin="round"/>
<path d="M30.4939 109.146C36.1552 109.146 40.7446 104.67 40.7446 99.1473C40.7446 93.6248 36.1552 89.148 30.4939 89.148C24.8326 89.148 20.2432 93.6248 20.2432 99.1473C20.2432 104.67 24.8326 109.146 30.4939 109.146Z" stroke="#43362E" stroke-width="3" stroke-miterlimit="10" stroke-linecap="round" stroke-linejoin="round"/>
<path d="M89.9864 109.146C95.6477 109.146 100.237 104.67 100.237 99.1473C100.237 93.6248 95.6477 89.148 89.9864 89.148C84.3252 89.148 79.7358 93.6248 79.7358 99.1473C79.7358 104.67 84.3252 109.146 89.9864 109.146Z" stroke="#43362E" stroke-width="3" stroke-miterlimit="10" stroke-linecap="round" stroke-linejoin="round"/>
<path d="M83.2782 54.0193H95.3984" stroke="#43362E" stroke-width="3" stroke-miterlimit="10" stroke-linecap="round" stroke-linejoin="round"/>
<rect x="24.6873" y="31.3746" width="31.1087" height="15.5544" stroke="#43362E" stroke-width="3" stroke-miterlimit="10" stroke-linecap="round" stroke-linejoin="round"/>
<path d="M38.0196 64.7054H13.577" stroke="#43362E" stroke-width="3" stroke-miterlimit="10" stroke-linecap="round" stroke-linejoin="round"/>
<path d="M29.0186 75.8157L13.5812 75.8157" stroke="#43362E" stroke-width="3" stroke-miterlimit="10" stroke-linecap="round" stroke-linejoin="round"/>
<line x1="2.26208" y1="110.139" x2="174.486" y2="110.139" stroke="#43362E" stroke-width="3" stroke-miterlimit="10" stroke-linecap="round" stroke-linejoin="round"/>
<path d="M127.387 10.0238V17.5516" stroke="#43362E" stroke-width="3" stroke-miterlimit="10" stroke-linecap="round" stroke-linejoin="round"/>
<path d="M127.387 27.6107V35.1385" stroke="#43362E" stroke-width="3" stroke-miterlimit="10" stroke-linecap="round" stroke-linejoin="round"/>
<path d="M134.801 10.0238V17.5516" stroke="#43362E" stroke-width="3" stroke-miterlimit="10" stroke-linecap="round" stroke-linejoin="round"/>
<path d="M134.801 27.6107V35.1385" stroke="#43362E" stroke-width="3" stroke-miterlimit="10" stroke-linecap="round" stroke-linejoin="round"/>
<path d="M127.387 44.707V52.2348" stroke="#43362E" stroke-width="3" stroke-miterlimit="10" stroke-linecap="round" stroke-linejoin="round"/>
<path d="M134.801 44.707V52.2348" stroke="#43362E" stroke-width="3" stroke-miterlimit="10" stroke-linecap="round" stroke-linejoin="round"/>
<path d="M127.387 63.6409V71.1687" stroke="#43362E" stroke-width="3" stroke-miterlimit="10" stroke-linecap="round" stroke-linejoin="round"/>
<path d="M134.801 63.6409V71.1687" stroke="#43362E" stroke-width="3" stroke-miterlimit="10" stroke-linecap="round" stroke-linejoin="round"/>
<path d="M164.29 22.2727V29.8005" stroke="#43362E" stroke-width="3" stroke-miterlimit="10" stroke-linecap="round" stroke-linejoin="round"/>
<path d="M164.29 39.8596V47.3874" stroke="#43362E" stroke-width="3" stroke-miterlimit="10" stroke-linecap="round" stroke-linejoin="round"/>
<path d="M171.704 22.2727V29.8005" stroke="#43362E" stroke-width="3" stroke-miterlimit="10" stroke-linecap="round" stroke-linejoin="round"/>
<path d="M171.704 39.8596V47.3874" stroke="#43362E" stroke-width="3" stroke-miterlimit="10" stroke-linecap="round" stroke-linejoin="round"/>
<path d="M164.29 57.2902V64.818" stroke="#43362E" stroke-width="3" stroke-miterlimit="10" stroke-linecap="round" stroke-linejoin="round"/>
<path d="M164.29 74.8771V82.4049" stroke="#43362E" stroke-width="3" stroke-miterlimit="10" stroke-linecap="round" stroke-linejoin="round"/>
<path d="M171.704 57.2902V64.818" stroke="#43362E" stroke-width="3" stroke-miterlimit="10" stroke-linecap="round" stroke-linejoin="round"/>
<path d="M171.704 74.8771V82.4049" stroke="#43362E" stroke-width="3" stroke-miterlimit="10" stroke-linecap="round" stroke-linejoin="round"/>
</svg>
