<?xml version="1.0" encoding="utf-8"?>
<!-- Generator: Adobe Illustrator 17.1.0, SVG Export Plug-In . SVG Version: 6.00 Build 0)  -->
<!DOCTYPE svg PUBLIC "-//W3C//DTD SVG 1.1//EN" "http://www.w3.org/Graphics/SVG/1.1/DTD/svg11.dtd">
<svg version="1.1" id="Слой_1" xmlns="http://www.w3.org/2000/svg" xmlns:xlink="http://www.w3.org/1999/xlink" x="0px" y="0px"
	 viewBox="0 0 1342.3 281.9" enable-background="new 0 0 1342.3 281.9" xml:space="preserve">
<g>
	<g>
		<path fill-rule="evenodd" clip-rule="evenodd" fill="#C18B2C" d="M171,160.9c1.4,3-1.5,7.4-4.5,10.5c-0.1,2.3,1.1,2.5,0.3,4.5
			c-2.4,6.6-9.9,2.2-13.7,3.5c6.1,3.1,12.8,6.1,12.9,11.1c-0.8,1.4-2.2,1.2-3,2.7c6,5.3,1.3,17.2-8.5,11.1
			c-8.2,5.4-7.8-8.7-10.8-12.2c-0.4,3.1,0.2,8-3.6,9.9c-1.2,0.1-3.1-1.7-4-0.5c-2.5,8.5-12.9,8-14.7,1.4c-0.2-0.8,0.6-2.5,0.7-3.4
			c0.1-1.4-0.1-2.3,0.3-3.6c-7-5,3.2-11.4,5.2-15c-3.4,0.7-6.3,3.2-10.5,1.5c-1.7-1.1-0.7-3.1-2.7-4.1c-7,0.5-11.6-6.7-7.2-11.8
			c1.8-2.1,5-1.3,7.3-2.6c0.6-1.5,1.4-2.3,2.2-3.1c3.5-1.6,8.9,3,12.9,3c-2.5-3.4-5.4-7.1-0.8-11.7c0-2.7-0.9-4.5,0.8-6.6
			c3.2-4,8.9,0.4,10.6,4.5c1.3,0,2.3-1,4,0.5c3.8,4.8,0.4,11.9-1,18.3c-1.1-1.9,0.5-4.6-0.9-6.4c-2.7-0.5-6.3-3.7-8.1-1
			c-1,5.5,5.7,8.6,4.4,14.1c-2.8-3.8-11.3-11.3-16-7.3c-0.8,1.4,1.8,1.8,1,3.2c-0.9,2.2-2.8,0.7-3.5,3.5c3.6,7.9,11.4-1.9,17.6,3.4
			c-2.7,2.1-10.3,5.3-7.9,10.9c4,0.1,3.7,2.5,7.3,4.4c5.9-2.4,2.4-9.5,3.5-13.7c4.9,4.1,6,9.4,9.9,13.8c0.9-0.9,2.6,0.8,3.2-1
			c-0.2-2.6,0.2-3.8,2.5-5.7c-2.2-5.4-9.8-7.8-14.9-7.3c4-4.8,10.6-1.3,14.6-6.3c0.5-2-1.6-2.3-3.3-2.8c-0.4-0.9,0.5-2.3-1.2-2.8
			c-4.4-0.7-6.6,5.2-9.9,7.7c-1.2-2.9,1.2-4.3,2.9-6.5c3-4.1,6.5-9.5,10.2-11.3c1.7,0.1,1.7,1.2,3.2,2.2
			C161.7,158.9,168.5,155.7,171,160.9 M151.9,179.8c0.6-0.7-1.6-1.6-1.5-0.2c0.3,0.1,0.6,0.3,0.8,0.4
			C151.3,179.6,151.6,179.7,151.9,179.8z"/>
		<path fill-rule="evenodd" clip-rule="evenodd" fill="#C18B2C" d="M198.2,165.3c0.2,1.3-1.4,2.7-2.8,3.6c-0.3,0.9,0.1,1.1-0.3,1.8
			c-1.6,2.3-4-0.2-5.7,0c2,1.9,4.3,3.7,3.9,5.6c-0.5,0.5-1,0.3-1.5,0.7c1.8,2.7-1.2,6.8-4.4,3.5c-3.7,1.2-2.2-4.2-2.9-5.8
			c-0.5,1.1-0.7,3.1-2.4,3.5c-0.5-0.1-1-1-1.5-0.6c-1.9,3.1-5.8,1.8-5.8-1c0-0.3,0.5-0.9,0.6-1.2c0.2-0.5,0.2-0.9,0.5-1.4
			c-2.2-2.6,2.4-4.1,3.6-5.3c-1.4,0-2.8,0.6-4.2-0.5c-0.5-0.6,0.1-1.2-0.6-1.8c-2.7-0.5-3.8-3.8-1.6-5.3c0.9-0.6,2.1,0,3.1-0.2
			c0.4-0.5,0.7-0.8,1.2-1c1.5-0.3,3.1,2.1,4.7,2.5c-0.6-1.6-1.4-3.3,0.9-4.6c0.3-1.1,0.1-1.8,1-2.5c1.7-1.2,3.4,1.1,3.6,2.8
			c0.5,0.1,1-0.1,1.5,0.6c1,2.3-1.1,4.6-2.3,7c-0.3-0.8,0.7-1.7,0.3-2.6c-1-0.5-2.1-2.1-3-1.2c-0.9,2,1.3,3.9,0.3,5.9
			c-0.7-1.7-3.2-5.5-5.5-4.5c-0.4,0.5,0.5,0.9,0.1,1.4c-0.6,0.7-1.2,0-1.7,1c0.6,3.4,4.6,0.4,6.5,3.1c-1.3,0.5-4.5,1-4.2,3.4
			c1.5,0.4,1.1,1.3,2.4,2.4c2.5-0.4,1.9-3.4,2.7-5c1.5,2.1,1.4,4.3,2.4,6.3c0.4-0.2,0.9,0.6,1.3,0c0.2-1,0.5-1.4,1.5-1.9
			c-0.3-2.3-3-4-5-4.4c2-1.5,4.2,0.6,6.3-0.9c0.4-0.7-0.4-1-1-1.4c0-0.4,0.4-0.8-0.2-1.2c-1.6-0.7-3.1,1.3-4.6,1.9
			c-0.1-1.2,0.9-1.5,1.8-2.2c1.6-1.2,3.5-3,5.1-3.3c0.6,0.2,0.5,0.6,1,1.2C194.8,163.6,197.8,163,198.2,165.3 M188.9,170.7
			c0.3-0.2-0.5-0.8-0.6-0.3c0.1,0.1,0.2,0.2,0.3,0.3C188.7,170.5,188.7,170.6,188.9,170.7z"/>
		<path fill-rule="evenodd" clip-rule="evenodd" fill="#C18B2C" d="M113.6,96.1c0,1.8-2.6,3.2-4.8,3.9c-0.6,1.1-0.1,1.4-1,2.2
			c-2.8,2.6-5.2-1.4-7.4-1.6c2.2,3,4.6,6,3.4,8.5c-0.8,0.5-1.4,0.1-2.1,0.5c1.5,4-3.7,8.5-6.9,3.2c-5.3,0.6-1.6-6.1-2.2-8.5
			c-0.9,1.4-1.9,3.8-4.2,3.9c-0.6-0.2-1.1-1.6-1.8-1.2c-3.3,3.5-8.2,0.7-7.4-2.9c0.1-0.4,0.9-1,1.2-1.4c0.4-0.6,0.5-1.1,1-1.7
			c-2.1-4.1,4.3-4.7,6.2-5.9c-1.8-0.5-3.8,0-5.4-1.9c-0.5-0.9,0.5-1.6-0.2-2.6c-3.4-1.5-3.9-6-0.5-7.4c1.4-0.6,2.7,0.6,4.1,0.5
			c0.7-0.6,1.2-0.7,1.9-1c2.1,0.1,3.5,3.6,5.4,4.6c-0.4-2.2-0.8-4.7,2.5-5.8c0.7-1.3,0.7-2.4,2-3c2.5-1.1,4.1,2.4,3.9,4.7
			c0.6,0.3,1.3,0.1,1.8,1.2c0.6,3.2-2.7,5.7-5,8.5c-0.1-1.2,1.4-2.1,1.1-3.3c-1.1-0.9-2.1-3.3-3.6-2.5c-1.8,2.4,0.6,5.5-1.4,7.8
			c-0.4-2.5-2.6-8.1-5.8-7.4c-0.7,0.5,0.4,1.3-0.3,1.8c-0.9,0.8-1.5-0.4-2.6,0.8c-0.2,4.6,5.9,1.9,7.6,5.9c-1.8,0.3-6.3,0-6.5,3.3
			c1.9,1,1.1,2.1,2.4,3.9c3.4,0.3,3.5-3.9,5.1-5.7c1.3,3.2,0.6,5.9,1.3,9c0.6-0.2,1,1,1.8,0.3c0.5-1.3,1-1.8,2.6-2.1
			c0.3-3.1-2.7-6.1-5.3-7.2c3.1-1.3,5.4,2,8.5,0.6c0.7-0.8-0.2-1.5-0.9-2.2c0.1-0.5,0.8-0.9,0.1-1.6c-1.9-1.4-4.4,0.9-6.6,1.2
			c0.2-1.6,1.6-1.7,3-2.4c2.4-1.2,5.4-2.9,7.7-2.9c0.8,0.4,0.5,1,0.9,1.8C109.6,92.9,113.7,93.1,113.6,96.1 M99.7,100.5
			c0.5-0.2-0.4-1.2-0.7-0.5c0.1,0.1,0.2,0.3,0.3,0.4C99.5,100.3,99.6,100.4,99.7,100.5z"/>
		<path fill-rule="evenodd" clip-rule="evenodd" fill="#C18B2C" d="M205.3,253.4c-0.1,1.8-2.6,3.2-4.8,3.9c-0.6,1.1-0.1,1.4-0.9,2.2
			c-2.8,2.5-5.3-1.4-7.4-1.7c2.2,3,4.6,6.1,3.4,8.5c-0.7,0.5-1.4,0.1-2.1,0.6c1.5,4-3.7,8.5-6.8,3.2c-5.2,0.5-1.6-6.1-2.1-8.5
			c-0.9,1.4-1.9,3.8-4.2,3.9c-0.7-0.3-1.1-1.6-1.8-1.2c-3.4,3.4-8.1,0.7-7.4-2.9c0.1-0.4,0.9-1,1.2-1.4c0.4-0.6,0.5-1.1,1-1.7
			c-2.2-4.1,4.4-4.7,6.2-5.9c-1.9-0.5-3.8,0-5.4-1.8c-0.6-1,0.4-1.7-0.3-2.6c-3.5-1.5-3.9-6-0.5-7.4c1.4-0.6,2.7,0.6,4.2,0.6
			c0.6-0.6,1.2-0.7,1.8-1c2.1,0,3.5,3.6,5.4,4.6c-0.4-2.2-0.8-4.7,2.5-5.8c0.7-1.3,0.7-2.4,2-3c2.6-1.1,4.1,2.4,3.9,4.7
			c0.6,0.3,1.4,0.1,1.8,1.2c0.6,3.2-2.8,5.7-5,8.5c-0.1-1.2,1.4-2.1,1.1-3.3c-1.2-0.9-2.1-3.3-3.6-2.5c-1.8,2.4,0.6,5.5-1.4,7.8
			c-0.4-2.5-2.6-8.1-5.8-7.4c-0.7,0.5,0.4,1.3-0.3,1.8c-0.9,0.8-1.5-0.4-2.5,0.8c-0.3,4.7,5.9,1.9,7.5,5.9c-1.8,0.3-6.2,0-6.5,3.3
			c1.9,1,1.1,2.1,2.4,3.9c3.4,0.3,3.5-3.9,5.1-5.7c1.3,3.2,0.5,6,1.3,9c0.6-0.2,1.1,1,1.8,0.3c0.5-1.3,1-1.8,2.6-2.1
			c0.3-3.1-2.7-6.1-5.3-7.2c3.1-1.3,5.4,2,8.5,0.6c0.7-0.9-0.2-1.5-0.9-2.2c0-0.5,0.8-1,0.1-1.6c-1.9-1.4-4.4,0.9-6.7,1.2
			c0.1-1.6,1.6-1.7,3-2.4c2.4-1.2,5.5-2.9,7.7-2.9c0.8,0.4,0.5,1,1,1.8C201.4,250.2,205.4,250.4,205.3,253.4 M191.5,257.8
			c0.5-0.2-0.4-1.2-0.7-0.4c0.1,0.1,0.2,0.2,0.3,0.4C191.3,257.6,191.4,257.7,191.5,257.8z"/>
		<path fill-rule="evenodd" clip-rule="evenodd" fill="#C18B2C" d="M268.4,207.1c0,2.2-3.2,4-5.9,4.9c-0.8,1.4-0.1,1.8-1.2,2.8
			c-3.4,3.2-6.5-1.7-9.2-2.1c2.7,3.7,5.7,7.5,4.3,10.5c-0.9,0.6-1.7,0.1-2.6,0.7c1.9,5-4.5,10.6-8.5,4c-6.5,0.7-2-7.6-2.7-10.5
			c-1.1,1.7-2.3,4.8-5.2,4.8c-0.8-0.3-1.3-2-2.2-1.5c-4.1,4.3-10.1,0.8-9.1-3.7c0.1-0.5,1.1-1.3,1.5-1.8c0.5-0.8,0.6-1.4,1.3-2.1
			c-2.7-5.1,5.4-5.8,7.7-7.3c-2.3-0.6-4.7,0-6.7-2.3c-0.7-1.2,0.6-2-0.3-3.2c-4.3-1.9-4.8-7.5-0.6-9.3c1.7-0.7,3.3,0.8,5.1,0.7
			c0.8-0.8,1.5-0.9,2.3-1.2c2.6,0.1,4.4,4.5,6.7,5.7c-0.5-2.8-1-5.8,3.1-7.2c0.8-1.6,0.8-2.9,2.5-3.6c3.2-1.4,5.1,2.9,4.8,5.9
			c0.8,0.3,1.7,0.1,2.2,1.5c0.8,4-3.4,7.1-6.3,10.5c-0.1-1.5,1.7-2.6,1.4-4.1c-1.5-1.1-2.6-4.1-4.5-3c-2.3,2.9,0.7,6.8-1.8,9.7
			c-0.5-3.1-3.2-10.1-7.2-9.2c-0.9,0.6,0.5,1.6-0.4,2.2c-1.2,1-1.9-0.5-3.2,1c-0.3,5.8,7.3,2.3,9.4,7.4c-2.3,0.4-7.8,0-8,4.1
			c2.3,1.3,1.4,2.6,3,4.8c4.2,0.3,4.3-4.9,6.3-7.1c1.6,3.9,0.7,7.4,1.6,11.2c0.8-0.2,1.3,1.2,2.2,0.4c0.7-1.6,1.3-2.2,3.2-2.6
			c0.4-3.9-3.4-7.6-6.6-8.9c3.9-1.7,6.7,2.5,10.6,0.7c0.9-1-0.3-1.9-1.1-2.7c0.1-0.7,1-1.2,0.1-2c-2.3-1.8-5.5,1.1-8.3,1.5
			c0.2-2,2-2.2,3.8-3c3-1.5,6.8-3.6,9.5-3.6c1,0.5,0.6,1.2,1.2,2.3C263.5,203.1,268.5,203.3,268.4,207.1 M251.2,212.5
			c0.6-0.3-0.4-1.5-0.8-0.6c0.1,0.2,0.2,0.3,0.4,0.5C250.9,212.2,251.1,212.3,251.2,212.5z"/>
		<path fill-rule="evenodd" clip-rule="evenodd" fill="#C18B2C" d="M168.8,262.8c0,1.8-2.6,3.2-4.8,4c-0.6,1.1-0.1,1.4-0.9,2.2
			c-2.8,2.5-5.2-1.4-7.4-1.7c2.2,3,4.6,6.1,3.4,8.5c-0.8,0.5-1.3,0.1-2.1,0.6c1.5,4-3.7,8.5-6.8,3.2c-5.2,0.6-1.6-6.1-2.1-8.4
			c-0.9,1.4-1.9,3.8-4.2,3.8c-0.6-0.2-1.1-1.6-1.8-1.2c-3.3,3.5-8.1,0.6-7.3-2.9c0.1-0.4,0.9-1,1.2-1.5c0.4-0.6,0.5-1.1,1-1.7
			c-2.1-4.1,4.4-4.7,6.2-5.9c-1.8-0.5-3.8,0-5.4-1.8c-0.5-1,0.4-1.6-0.3-2.6c-3.5-1.5-3.9-6-0.5-7.4c1.4-0.6,2.7,0.6,4.1,0.5
			c0.6-0.6,1.2-0.7,1.8-1c2.1,0,3.5,3.6,5.4,4.6c-0.4-2.2-0.8-4.7,2.5-5.8c0.7-1.3,0.7-2.3,2-2.9c2.6-1.2,4.1,2.3,3.9,4.7
			c0.6,0.3,1.3,0.1,1.8,1.2c0.7,3.2-2.8,5.8-5,8.5c-0.1-1.1,1.4-2,1.2-3.3c-1.2-0.9-2.1-3.3-3.6-2.4c-1.8,2.3,0.6,5.5-1.4,7.8
			c-0.4-2.5-2.6-8.2-5.8-7.4c-0.7,0.5,0.4,1.3-0.3,1.8c-0.9,0.8-1.5-0.4-2.5,0.9c-0.2,4.6,5.9,1.9,7.6,5.9c-1.8,0.3-6.2,0-6.5,3.3
			c1.9,1.1,1.1,2.1,2.4,3.9c3.4,0.2,3.5-3.9,5.1-5.7c1.3,3.1,0.5,6,1.3,9c0.7-0.2,1,1,1.8,0.3c0.5-1.3,1-1.7,2.6-2.1
			c0.3-3.1-2.7-6.1-5.3-7.2c3.1-1.3,5.4,2,8.5,0.6c0.7-0.8-0.2-1.5-0.9-2.2c0.1-0.5,0.8-1,0.1-1.6c-1.9-1.4-4.4,0.9-6.6,1.2
			c0.2-1.6,1.6-1.7,3-2.4c2.4-1.2,5.5-2.9,7.7-2.9c0.8,0.4,0.5,1,0.9,1.8C164.8,259.6,168.9,259.7,168.8,262.8 M154.9,267.2
			c0.5-0.2-0.4-1.2-0.6-0.5c0.1,0.1,0.2,0.3,0.3,0.4C154.7,266.9,154.8,267,154.9,267.2z"/>
		<path fill-rule="evenodd" clip-rule="evenodd" fill="#C18B2C" d="M280.2,173c0.2,1.4-1.5,2.9-3.1,3.9c-0.3,1,0.1,1.1-0.4,1.9
			c-1.8,2.5-4.4-0.2-6.1-0.1c2.2,2,4.6,4,4.1,6.1c-0.5,0.5-1,0.3-1.6,0.8c1.9,2.9-1.5,7.3-4.9,3.6c-4,1.3-2.2-4.5-3.1-6.3
			c-0.5,1.2-0.8,3.4-2.7,3.7c-0.5-0.1-1.1-1.1-1.6-0.7c-2.1,3.3-6.3,1.9-6.3-1.1c0-0.3,0.6-1,0.7-1.3c0.2-0.6,0.2-1,0.6-1.5
			c-2.4-2.9,2.7-4.4,3.9-5.7c-1.5-0.1-3,0.6-4.5-0.6c-0.6-0.7,0.1-1.4-0.6-2c-3-0.6-4.1-4.1-1.6-5.8c1-0.7,2.2,0,3.3-0.3
			c0.4-0.6,0.9-0.8,1.3-1.1c1.7-0.3,3.4,2.3,5,2.7c-0.7-1.7-1.4-3.6,1-5c0.3-1.1,0.2-2,1.1-2.7c1.8-1.3,3.6,1.2,3.9,3.1
			c0.5,0.1,1-0.1,1.6,0.7c1,2.4-1.2,5-2.6,7.5c-0.2-0.9,0.7-1.8,0.4-2.8c-1.1-0.5-2.2-2.2-3.2-1.3c-1.1,2.2,1.3,4.2,0.2,6.4
			c-0.7-1.9-3.4-6-5.8-4.9c-0.5,0.5,0.6,1,0,1.5c-0.6,0.8-1.3,0-1.9,1.1c0.6,3.7,5,0.5,7,3.4c-1.4,0.6-4.9,1-4.6,3.7
			c1.6,0.5,1.2,1.5,2.5,2.7c2.7-0.4,2.1-3.7,3.1-5.3c1.5,2.3,1.4,4.6,2.5,6.9c0.5-0.2,1,0.6,1.5,0c0.2-1.1,0.5-1.6,1.7-2.1
			c-0.3-2.5-3.2-4.4-5.4-4.8c2.2-1.6,4.6,0.7,6.8-0.9c0.4-0.8-0.4-1.2-1.1-1.6c-0.1-0.4,0.5-0.9-0.2-1.3c-1.7-0.8-3.4,1.4-5,2.1
			c-0.2-1.3,1-1.6,2-2.4c1.7-1.3,3.8-3.2,5.6-3.5c0.7,0.2,0.5,0.7,1.1,1.3C276.5,171.1,279.8,170.5,280.2,173 M270,178.7
			c0.3-0.2-0.5-0.9-0.6-0.3c0.1,0.1,0.2,0.2,0.3,0.3C269.8,178.5,269.9,178.6,270,178.7z"/>
		<path fill-rule="evenodd" clip-rule="evenodd" fill="#C18B2C" d="M264.9,101.1c0,1.4-2,2.6-3.8,3.3c-0.5,0.9,0,1.2-0.7,1.8
			c-2.2,2.1-4.2-1-6-1.2c1.8,2.4,3.8,4.8,2.9,6.8c-0.6,0.4-1.1,0.1-1.7,0.5c1.3,3.2-2.8,6.9-5.4,2.7c-4.2,0.6-1.4-4.9-1.9-6.8
			c-0.7,1.1-1.5,3.1-3.3,3.2c-0.5-0.2-0.9-1.2-1.5-1c-2.6,2.9-6.6,0.7-6-2.2c0.1-0.3,0.7-0.9,0.9-1.2c0.3-0.5,0.4-0.9,0.8-1.3
			c-1.8-3.2,3.4-3.9,4.9-4.9c-1.5-0.4-3.1,0-4.3-1.4c-0.5-0.8,0.3-1.3-0.3-2.1c-2.8-1.1-3.2-4.8-0.6-6c1.1-0.5,2.2,0.4,3.3,0.4
			c0.5-0.5,1-0.6,1.4-0.8c1.7,0,2.9,2.8,4.5,3.6c-0.3-1.8-0.8-3.8,1.9-4.7c0.5-1.1,0.5-1.9,1.6-2.4c2-0.9,3.4,1.8,3.3,3.7
			c0.5,0.2,1.1,0,1.5,0.9c0.6,2.6-2.1,4.7-3.9,6.9c-0.1-0.9,1-1.7,0.8-2.7c-0.9-0.7-1.7-2.6-2.9-1.9c-1.4,1.9,0.6,4.4-1,6.3
			c-0.4-2-2.2-6.5-4.8-5.9c-0.6,0.4,0.4,1-0.2,1.4c-0.7,0.7-1.2-0.3-2,0.7c-0.1,3.8,4.8,1.4,6.2,4.6c-1.5,0.3-5,0.1-5.1,2.8
			c1.5,0.8,0.9,1.7,2,3.1c2.8,0.2,2.7-3.2,4-4.7c1.1,2.5,0.6,4.8,1.2,7.3c0.5-0.2,0.9,0.8,1.4,0.2c0.4-1,0.8-1.4,2-1.8
			c0.2-2.5-2.3-4.9-4.4-5.7c2.5-1.1,4.4,1.5,6.9,0.3c0.6-0.7-0.2-1.2-0.8-1.7c0-0.5,0.6-0.8,0-1.3c-1.5-1.1-3.6,0.8-5.3,1.1
			c0.1-1.3,1.3-1.4,2.4-2c1.9-1,4.3-2.5,6.1-2.5c0.7,0.3,0.5,0.8,0.8,1.4C261.6,98.6,264.9,98.6,264.9,101.1 M253.8,104.9
			c0.4-0.2-0.3-0.9-0.5-0.4c0.1,0.1,0.2,0.2,0.2,0.3C253.6,104.7,253.7,104.8,253.8,104.9z"/>
		<path fill-rule="evenodd" clip-rule="evenodd" fill="#C18B2C" d="M280.2,108.1c0,0.9-1.3,1.7-2.5,2.1c-0.3,0.6,0,0.8-0.5,1.2
			c-1.4,1.4-2.8-0.7-3.9-0.8c1.2,1.6,2.5,3.1,1.9,4.5c-0.4,0.3-0.7,0-1.1,0.3c0.9,2.1-1.8,4.5-3.6,1.8c-2.8,0.4-0.9-3.2-1.2-4.4
			c-0.5,0.7-0.9,2.1-2.2,2.1c-0.4-0.1-0.6-0.8-1-0.6c-1.7,1.9-4.3,0.4-3.9-1.4c0-0.2,0.5-0.6,0.6-0.8c0.2-0.3,0.2-0.6,0.5-0.9
			c-1.2-2.1,2.2-2.5,3.2-3.2c-1-0.2-2,0-2.9-0.9c-0.3-0.5,0.2-0.9-0.2-1.4c-1.8-0.7-2.1-3.1-0.3-3.9c0.7-0.3,1.4,0.3,2.2,0.2
			c0.3-0.3,0.6-0.4,1-0.5c1.1,0,1.9,1.8,2.9,2.4c-0.2-1.2-0.4-2.5,1.3-3.1c0.4-0.7,0.3-1.2,1-1.6c1.4-0.6,2.2,1.2,2.1,2.4
			c0.3,0.1,0.7,0,1,0.6c0.4,1.7-1.4,3.1-2.5,4.6c-0.1-0.6,0.7-1.1,0.6-1.8c-0.6-0.5-1.1-1.7-1.9-1.3c-0.9,1.3,0.4,2.9-0.7,4.2
			c-0.2-1.3-1.5-4.3-3.1-3.9c-0.4,0.3,0.2,0.7-0.1,0.9c-0.5,0.4-0.8-0.2-1.3,0.5c-0.1,2.4,3.1,0.9,4.1,3c-0.9,0.2-3.3,0.1-3.4,1.8
			c1,0.5,0.6,1.1,1.3,2c1.8,0.1,1.8-2.1,2.6-3.1c0.7,1.7,0.4,3.2,0.8,4.8c0.3-0.1,0.6,0.5,1,0.2c0.3-0.7,0.5-0.9,1.3-1.2
			c0.1-1.7-1.5-3.2-2.9-3.7c1.6-0.7,2.9,1,4.5,0.2c0.3-0.4-0.1-0.8-0.5-1.2c0-0.3,0.4-0.5,0-0.8c-1-0.7-2.3,0.5-3.5,0.7
			c0.1-0.8,0.8-0.9,1.6-1.3c1.3-0.7,2.8-1.6,4-1.6c0.4,0.2,0.3,0.5,0.5,1C278,106.5,280.2,106.5,280.2,108.1 M272.9,110.6
			c0.2-0.1-0.2-0.6-0.4-0.3c0.1,0.1,0.1,0.2,0.2,0.2C272.8,110.5,272.9,110.6,272.9,110.6z"/>
		<path fill-rule="evenodd" clip-rule="evenodd" fill="#C18B2C" d="M264.4,68.3c0.2,1.4-1.5,2.9-3.1,3.9c-0.3,1,0.2,1.2-0.4,1.9
			c-1.8,2.5-4.4-0.3-6.1-0.1c2.2,2,4.6,4,4.1,6.1c-0.5,0.5-1.1,0.3-1.6,0.8c1.9,2.9-1.5,7.3-4.8,3.7c-4.1,1.3-2.2-4.5-3.1-6.3
			c-0.5,1.3-0.9,3.3-2.7,3.8c-0.5-0.1-1.1-1.1-1.6-0.7c-2.1,3.3-6.3,1.9-6.3-1.1c0-0.3,0.5-1,0.7-1.3c0.2-0.6,0.2-0.9,0.5-1.5
			c-2.4-2.9,2.7-4.4,4-5.7c-1.5-0.1-3,0.6-4.6-0.6c-0.6-0.7,0.1-1.4-0.6-2c-3-0.6-4-4.1-1.6-5.8c1-0.7,2.2,0,3.4-0.3
			c0.4-0.6,0.9-0.8,1.3-1.1c1.7-0.3,3.4,2.3,5,2.7c-0.6-1.7-1.4-3.6,1-5c0.3-1.1,0.1-2,1.1-2.7c1.8-1.3,3.6,1.2,3.9,3.1
			c0.5,0.1,1.1-0.2,1.6,0.7c1,2.5-1.2,5-2.6,7.5c-0.3-0.9,0.7-1.9,0.4-2.8c-1.1-0.5-2.2-2.3-3.2-1.4c-1,2.2,1.4,4.2,0.2,6.4
			c-0.7-1.9-3.4-6-5.8-4.9c-0.5,0.5,0.5,1,0.1,1.5c-0.6,0.8-1.3,0-1.9,1.1c0.5,3.7,5,0.5,6.9,3.4c-1.4,0.6-4.9,1-4.6,3.6
			c1.7,0.5,1.2,1.5,2.6,2.7c2.7-0.3,2.1-3.7,3.1-5.3c1.5,2.3,1.4,4.6,2.5,6.9c0.5-0.2,1,0.6,1.5,0c0.2-1.1,0.5-1.6,1.7-2.1
			c-0.3-2.5-3.2-4.4-5.4-4.8c2.2-1.6,4.6,0.7,6.8-1c0.4-0.8-0.4-1.2-1.1-1.6c0-0.4,0.5-0.9-0.2-1.3c-1.7-0.8-3.4,1.4-5.1,2.1
			c-0.1-1.3,1-1.7,2-2.4c1.7-1.3,3.8-3.2,5.6-3.5c0.7,0.2,0.6,0.7,1.1,1.3C260.8,66.4,264,65.8,264.4,68.3 M254.2,74
			c0.3-0.2-0.5-0.9-0.6-0.3c0.1,0.1,0.2,0.2,0.3,0.3C254,73.9,254.1,73.9,254.2,74z"/>
		<path fill-rule="evenodd" clip-rule="evenodd" fill="#C18B2C" d="M282.6,131.6c0.4,2.2-2.4,4.7-4.9,6.2c-0.5,1.5,0.2,1.8-0.6,3
			c-2.8,3.9-6.9-0.4-9.7-0.1c3.5,3.2,7.3,6.4,6.5,9.7c-0.8,0.8-1.7,0.4-2.5,1.2c2.9,4.6-2.3,11.5-7.7,5.8c-6.4,2.1-3.6-7.1-4.9-10
			c-0.8,2-1.3,5.3-4.2,5.9c-0.9-0.1-1.7-1.7-2.6-1.1c-3.3,5.2-10,2.9-10-1.7c0-0.5,0.9-1.5,1.1-2.1c0.3-0.9,0.3-1.5,0.9-2.3
			c-3.7-4.5,4.2-7,6.2-9c-2.4-0.1-4.8,1-7.2-0.9c-0.9-1,0.1-2.1-1-3.2c-4.7-1-6.4-6.5-2.5-9.1c1.6-1.1,3.5,0.1,5.3-0.4
			c0.7-1,1.4-1.3,2-1.7c2.6-0.5,5.3,3.6,7.9,4.3c-1-2.7-2.2-5.6,1.6-7.9c0.5-1.8,0.2-3.1,1.7-4.2c2.9-2.1,5.8,1.9,6.1,4.9
			c0.8,0.2,1.7-0.2,2.6,1.1c1.6,3.9-1.9,7.9-4,11.9c-0.4-1.4,1.2-3,0.5-4.4c-1.7-0.9-3.5-3.6-5.1-2.1c-1.7,3.4,2.1,6.7,0.3,10.1
			c-1.1-3-5.4-9.5-9.2-7.8c-0.8,0.8,0.9,1.5,0.1,2.3c-1,1.3-2,0-3,1.7c0.9,5.9,7.9,0.8,11,5.4c-2.2,0.9-7.8,1.6-7.2,5.8
			c2.6,0.8,1.9,2.3,4,4.2c4.3-0.5,3.3-5.8,4.8-8.5c2.4,3.6,2.2,7.3,4,10.9c0.8-0.4,1.6,1,2.3-0.1c0.4-1.7,0.8-2.4,2.7-3.3
			c-0.5-4-5-6.9-8.5-7.5c3.5-2.5,7.2,1.1,10.8-1.5c0.7-1.2-0.6-1.8-1.7-2.5c-0.1-0.7,0.8-1.4-0.3-2.1c-2.7-1.3-5.3,2.2-8,3.3
			c-0.2-2.1,1.6-2.6,3.1-3.8c2.7-2.1,6-5.1,8.8-5.6c1.1,0.4,0.9,1.1,1.7,2C276.8,128.6,281.9,127.8,282.6,131.6 M266.5,140.7
			c0.5-0.4-0.8-1.4-0.9-0.4c0.2,0.1,0.3,0.3,0.5,0.4C266.1,140.5,266.3,140.6,266.5,140.7z"/>
		<path fill-rule="evenodd" clip-rule="evenodd" fill="#C18B2C" d="M133.1,256.4c0.4,1.7-1.7,3.7-3.6,5c-0.3,1.2,0.2,1.4-0.4,2.4
			c-2.1,3.1-5.4-0.1-7.6,0.2c2.8,2.4,5.9,4.8,5.3,7.4c-0.6,0.7-1.3,0.4-2,1c2.5,3.5-1.5,9.1-5.9,4.8c-5,1.8-3-5.5-4.1-7.7
			c-0.6,1.5-0.9,4.2-3.1,4.7c-0.7-0.1-1.4-1.3-2-0.7c-2.4,4.2-7.8,2.6-7.9-1.1c0-0.4,0.6-1.2,0.8-1.7c0.3-0.7,0.2-1.2,0.6-1.8
			c-3.1-3.5,3.1-5.6,4.7-7.2c-1.9,0-3.7,0.9-5.7-0.5c-0.7-0.8,0-1.7-0.9-2.5c-3.7-0.6-5.2-4.9-2.2-7.1c1.2-0.9,2.8,0,4.2-0.5
			c0.5-0.8,1-1,1.5-1.4c2-0.4,4.3,2.6,6.4,3.2c-0.9-2.1-1.9-4.4,1.1-6.2c0.3-1.4,0.1-2.5,1.3-3.4c2.2-1.7,4.6,1.3,4.9,3.7
			c0.7,0.1,1.3-0.2,2,0.8c1.4,3-1.3,6.3-2.9,9.4c-0.4-1.1,0.8-2.3,0.3-3.4c-1.4-0.6-2.8-2.7-4.1-1.5c-1.2,2.7,1.9,5.2,0.5,8
			c-1-2.3-4.5-7.3-7.4-5.8c-0.6,0.6,0.7,1.2,0.1,1.8c-0.7,1-1.6,0-2.3,1.4c0.9,4.6,6.2,0.4,8.7,3.9c-1.7,0.8-6.1,1.5-5.5,4.7
			c2,0.6,1.6,1.8,3.2,3.2c3.4-0.6,2.5-4.7,3.6-6.7c2,2.8,1.9,5.6,3.4,8.5c0.6-0.3,1.2,0.7,1.8-0.1c0.2-1.3,0.6-1.9,2-2.7
			c-0.5-3.1-4.1-5.3-6.9-5.7c2.7-2.1,5.7,0.7,8.4-1.5c0.5-0.9-0.5-1.4-1.4-1.9c-0.1-0.6,0.6-1.1-0.3-1.6c-2.2-0.9-4.1,1.9-6.2,2.8
			c-0.2-1.6,1.2-2.1,2.4-3.1c2.1-1.8,4.6-4.1,6.8-4.6c0.9,0.2,0.8,0.8,1.4,1.5C128.5,254.2,132.5,253.4,133.1,256.4 M120.7,264
			c0.4-0.3-0.6-1.1-0.7-0.3c0.1,0.1,0.2,0.2,0.4,0.3C120.5,263.8,120.6,263.9,120.7,264z"/>
		<path fill-rule="evenodd" clip-rule="evenodd" fill="#C18B2C" d="M200.7,12c1.3,2-0.3,5.5-2.1,8.1c0.2,1.7,1,1.6,0.7,3.2
			c-1.1,5-6.9,2.6-9.5,4c4.8,1.6,9.8,3.1,10.4,6.6c-0.5,1.1-1.5,1.1-1.9,2.3c4.8,3.2,2.6,12.2-5,8.9c-5.3,4.8-6.5-5.4-9-7.6
			c0.1,2.2,0.9,5.7-1.6,7.5c-0.9,0.2-2.4-0.9-2.9,0.1c-0.9,6.4-8.5,7.1-10.4,2.6c-0.2-0.5,0.2-1.9,0.2-2.5c0-1-0.3-1.6-0.2-2.6
			c-5.6-2.8,1.1-8.6,2.2-11.4c-2.4,0.9-4.2,3-7.4,2.2c-1.3-0.6-0.8-2.2-2.3-2.7c-5,1.1-9-3.6-6.4-7.8c1.1-1.7,3.5-1.4,5-2.6
			c0.3-1.2,0.8-1.8,1.3-2.5c2.3-1.5,6.7,1.2,9.6,0.8c-2.2-2.2-4.6-4.5-1.8-8.3c-0.3-1.9-1.1-3.2-0.1-4.9c1.9-3.3,6.4-0.6,8,2.1
			c0.9-0.2,1.5-0.9,2.9-0.1c3.2,3.1,1.5,8.5,1.1,13.3c-1-1.2-0.1-3.3-1.3-4.5c-2-0.1-4.9-2-5.9,0.1c-0.2,4,4.9,5.6,4.5,9.7
			c-2.4-2.5-9.2-7-12.2-3.6c-0.4,1.1,1.5,1.1,1.1,2.2c-0.4,1.6-2,0.8-2.1,2.9c3.4,5.3,8-2.5,13,0.6c-1.8,1.8-6.9,4.9-4.6,8.7
			c2.9-0.3,2.9,1.4,5.7,2.4c4-2.4,0.7-7.1,1.1-10.3c3.9,2.5,5.3,6.2,8.5,9c0.6-0.7,1.9,0.3,2.2-1.1c-0.4-1.8-0.2-2.7,1.2-4.3
			c-2.1-3.7-7.8-4.6-11.5-3.7c2.4-3.9,7.5-2,9.9-6.1c0.1-1.4-1.4-1.5-2.7-1.7c-0.4-0.6,0.1-1.7-1.2-1.9c-3.2-0.1-4.2,4.4-6.4,6.5
			c-1.1-1.9,0.4-3.2,1.4-5c1.7-3.2,3.7-7.5,6.2-9.2c1.2-0.2,1.4,0.7,2.5,1.2C193.8,11.6,198.4,8.6,200.7,12 M188.9,27.7
			c0.3-0.6-1.3-1-1.1,0c0.2,0.1,0.4,0.2,0.6,0.2C188.5,27.6,188.7,27.7,188.9,27.7z"/>
		<path fill-rule="evenodd" clip-rule="evenodd" fill="#C18B2C" d="M118.6,191.5c-0.2,1-1.8,1.6-3.2,1.7c-0.5,0.6-0.2,0.8-0.8,1.2
			c-1.9,1.1-2.9-1.4-4.1-1.8c0.9,2,1.9,4,1,5.3c-0.5,0.2-0.8-0.1-1.3,0.1c0.4,2.5-3.1,4.5-4.3,1.1c-3.1-0.3-0.2-3.7-0.2-5.1
			c-0.7,0.7-1.5,2-2.9,1.7c-0.3-0.2-0.4-1-0.9-0.9c-2.3,1.6-4.8-0.6-3.9-2.5c0.1-0.2,0.6-0.5,0.8-0.7c0.3-0.3,0.4-0.6,0.8-0.8
			c-0.8-2.6,3-2.2,4.2-2.7c-1-0.5-2.2-0.5-2.9-1.7c-0.2-0.6,0.4-0.9,0.1-1.5c-1.8-1.3-1.5-3.9,0.6-4.4c0.9-0.2,1.5,0.7,2.3,0.8
			c0.5-0.3,0.8-0.3,1.2-0.3c1.2,0.3,1.6,2.5,2.6,3.3c0.1-1.4,0.1-2.8,2.1-3.1c0.5-0.7,0.7-1.3,1.5-1.5c1.6-0.4,2.1,1.8,1.7,3.2
			c0.3,0.2,0.8,0.2,0.9,0.9c0,1.9-2.3,3-3.9,4.3c0.1-0.7,1-1.1,1-1.8c-0.6-0.7-0.8-2.1-1.8-1.8c-1.4,1.2-0.3,3.2-1.7,4.4
			c0.1-1.5-0.6-5-2.5-5c-0.5,0.2,0.1,0.8-0.4,1c-0.6,0.4-0.9-0.4-1.6,0.2c-0.7,2.7,3.2,1.8,3.7,4.3c-1.1,0-3.6-0.7-4.1,1.2
			c1,0.8,0.4,1.3,1,2.5c1.9,0.5,2.5-1.9,3.6-2.7c0.4,2-0.4,3.5-0.2,5.4c0.4,0,0.5,0.7,1,0.4c0.5-0.7,0.8-0.9,1.7-0.9
			c0.5-1.8-0.9-3.9-2.3-4.8c2-0.4,2.9,1.8,4.9,1.3c0.5-0.4,0.1-0.9-0.3-1.3c0.1-0.3,0.6-0.5,0.2-0.9c-0.9-1-2.6,0-4-0.1
			c0.3-0.9,1.1-0.8,2-1c1.5-0.4,3.5-1.1,4.8-0.8c0.4,0.3,0.2,0.6,0.4,1.2C116.7,189.1,119,189.7,118.6,191.5 M110.1,192.4
			c0.3-0.1-0.1-0.7-0.3-0.4c0,0.1,0.1,0.2,0.1,0.3C110,192.2,110.1,192.3,110.1,192.4z"/>
		<path fill-rule="evenodd" clip-rule="evenodd" fill="#C18B2C" d="M166.1,113.7c-0.5,2.3-4.3,3.8-7.5,4.4c-1.1,1.3-0.5,1.9-1.9,2.8
			c-4.4,2.9-6.8-2.8-9.7-3.5c2.2,4.3,4.7,8.8,2.5,11.8c-1.2,0.5-1.9-0.2-3,0.3c1,5.5-7.2,10.6-10.1,3.1c-7.3-0.2-0.6-8.3-0.8-11.5
			c-1.6,1.6-3.5,4.7-6.7,4.3c-0.8-0.4-1-2.2-2.1-1.9c-5.4,4-11.3-0.6-9.3-5.2c0.2-0.5,1.5-1.2,2-1.7c0.7-0.7,1-1.4,1.8-2
			c-1.9-5.8,7.1-5.4,10-6.6c-2.4-1-5.2-0.7-6.8-3.4c-0.5-1.3,1-2.1,0.3-3.5c-4.3-2.6-3.7-8.6,1.3-9.9c2-0.5,3.5,1.3,5.5,1.4
			c1-0.7,1.9-0.8,2.7-0.9c2.8,0.5,3.9,5.4,6.2,7c0.1-3,0.1-6.3,4.9-7.2c1.2-1.6,1.5-3,3.5-3.5c3.8-1,5,3.8,4.1,6.9
			c0.8,0.5,1.8,0.4,2.1,1.9c0,4.4-5.3,7.1-9.1,10.2c0.2-1.5,2.4-2.5,2.4-4.1c-1.4-1.4-2-4.7-4.3-3.9c-3.1,2.8-0.6,7.3-4,10.1
			c0.1-3.3-1.4-11.2-6-10.8c-1.1,0.5,0.3,1.8-0.9,2.3c-1.5,0.9-2-0.7-3.7,0.7c-1.5,6.1,7.6,3.5,8.8,9.1c-2.5,0.1-8.5-1.1-9.7,3.2
			c2.3,1.7,1,3,2.3,5.6c4.6,1,5.8-4.6,8.4-6.6c0.9,4.4-0.8,7.9-0.6,12.1c0.9-0.1,1.1,1.5,2.3,0.7c1.1-1.6,1.9-2.1,4.1-2.3
			c1.2-4.1-2.1-8.5-5.4-10.3c4.6-1.2,6.8,3.6,11.5,2.2c1.2-1,0.1-2-0.6-3c0.2-0.7,1.4-1.1,0.5-2.1c-2.2-2.2-6.3,0.4-9.4,0.4
			c0.6-2.1,2.7-2,4.7-2.6c3.6-1.1,8.2-2.9,11.2-2.4c0.9,0.7,0.4,1.4,0.8,2.5C161.5,108.8,167,109.7,166.1,113.7 M146.1,117
			c0.7-0.2-0.2-1.6-0.7-0.7c0.1,0.2,0.2,0.4,0.3,0.6C145.9,116.7,146,116.8,146.1,117z"/>
		<path fill-rule="evenodd" clip-rule="evenodd" fill="#C18B2C" d="M152.2,62.8c-2.3,2.8-8.6,2.2-13.3,0.8c-2.5,1-2,2.2-4.5,2.5
			c-8.1,0.9-7.5-8.5-11-11.5c0,7.5,0.4,15.3-4.7,17.9c-2-0.1-2.5-1.5-4.4-1.6c-2.4,8.3-17.2,9.5-16.1-2.8c-10-5.3,4.8-11.8,6.9-16.3
			c-3.4,1.2-8.1,4.1-12.2,1.4c-0.8-1.2,0.1-3.8-1.6-4.1c-10.2,1.7-15.1-8.6-9.2-13.5c0.7-0.5,2.9-0.6,3.9-1c1.5-0.5,2.3-1.2,3.9-1.5
			c1.4-9.2,13.6-2.5,18.4-2.3c-2.6-2.9-6.6-4.5-7.1-9.3c0.3-2.2,2.9-2.1,2.9-4.6c-4.2-6.5,0.8-14.4,8.5-12.7c3.2,0.7,4,4.2,6.6,5.8
			c1.9-0.2,3.1,0.3,4.5,0.6c3.5,2.5,1.6,10,3.7,13.9c2.2-4.1,4.5-8.6,11.8-6.5c2.8-1.3,4.2-3,7.2-2.4c5.9,1.2,4.3,8.8,0.9,12.3
			c0.8,1.2,2.2,1.7,1.6,4.1c-2.9,6-12.1,6.1-19.5,7.9c1.3-2,5.1-1.8,6.2-4.1c-0.9-2.9,0.5-7.8-3.2-8.2c-6.2,1.7-5.9,9.6-12.4,11.1
			c2.5-4.5,5.8-16.4-0.8-19c-1.9,0-0.9,2.6-2.8,2.5c-2.7,0.2-2.2-2.4-5.5-1.6c-6.3,7.3,8,10,5.8,18.6c-3.6-1.6-10.9-7.3-15.5-2.3
			c2,3.9-0.7,4.8-0.7,9.2c5.6,4.5,11.1-2.3,16.2-3.4c-1.8,6.7-6.6,10.4-9.1,16.3c1.3,0.5,0.6,2.9,2.7,2.6c2.6-1.4,4-1.7,7.2-0.4
			c4.5-4.8,2.9-13.2-0.3-18c7.2,1.5,6.9,9.6,14.3,11c2.3-0.5,1.6-2.7,1.2-4.6c0.8-0.8,2.6-0.6,2.3-2.6c-1.5-4.5-8.9-3.8-13.2-5.8
			c2.4-2.5,5.1-0.9,8.4-0.4c5.8,0.9,13.3,1.7,17.1,4.4c0.9,1.6-0.3,2.2-0.6,4.1C149.3,52.8,156.2,57.9,152.2,62.8 M122.4,53.6
			c1,0.2,0.8-2.4-0.6-1.6c0,0.3,0,0.7,0,1C122.3,53,122.3,53.3,122.4,53.6z"/>
		<path fill-rule="evenodd" clip-rule="evenodd" fill="#C18B2C" d="M201.2,76c-0.5,2.3-4.3,3.8-7.5,4.4c-1.1,1.3-0.5,1.9-1.9,2.7
			c-4.5,2.9-6.8-2.7-9.7-3.5c2.2,4.3,4.7,8.8,2.5,11.8c-1.2,0.5-1.9-0.2-3,0.3c1,5.5-7.2,10.5-10.1,3c-7.3-0.2-0.6-8.3-0.7-11.5
			c-1.6,1.6-3.6,4.7-6.7,4.3c-0.8-0.4-1-2.3-2.1-1.9c-5.5,4-11.3-0.6-9.3-5.2c0.2-0.5,1.5-1.2,2-1.7c0.7-0.7,1-1.4,1.9-2
			c-1.9-5.8,7.2-5.4,10-6.6c-2.4-1-5.2-0.7-6.9-3.4c-0.5-1.3,1-2.1,0.3-3.5c-4.4-2.6-3.7-8.6,1.3-9.9c2-0.5,3.5,1.3,5.5,1.4
			c1.1-0.7,1.9-0.8,2.7-0.9c2.8,0.4,3.9,5.3,6.2,7c0.1-3,0.1-6.3,4.9-7.2c1.2-1.6,1.5-3,3.5-3.5c3.8-1.1,5,3.8,4.1,6.9
			c0.8,0.5,1.8,0.4,2.1,1.9c0,4.4-5.2,7.1-9,10.3c0.2-1.6,2.4-2.5,2.4-4.1c-1.4-1.4-2-4.7-4.3-3.9c-3.1,2.8-0.6,7.3-4,10
			c0.1-3.3-1.4-11.2-6-10.8c-1.1,0.5,0.2,1.8-0.9,2.3c-1.5,0.9-2-0.8-3.7,0.7c-1.6,6.1,7.5,3.5,8.8,9.1c-2.6,0.1-8.5-1.1-9.7,3.1
			c2.3,1.7,1,3,2.3,5.6c4.6,1,5.8-4.6,8.4-6.6c0.9,4.4-0.8,7.9-0.6,12.1c0.9-0.1,1.2,1.5,2.4,0.7c1.1-1.6,1.9-2.1,4.1-2.3
			c1.2-4.1-2.2-8.6-5.4-10.4c4.6-1.2,6.8,3.6,11.5,2.3c1.2-1,0.1-2-0.7-3c0.2-0.7,1.4-1.1,0.6-2.1c-2.2-2.2-6.3,0.4-9.4,0.4
			c0.7-2.1,2.7-2,4.7-2.6c3.7-1.2,8.2-2.9,11.2-2.4c1,0.7,0.5,1.4,0.8,2.6C196.6,71.1,202.1,72.1,201.2,76 M181.2,79.4
			c0.7-0.2-0.2-1.6-0.8-0.7c0.1,0.2,0.2,0.4,0.3,0.6C180.9,79.1,181.1,79.2,181.2,79.4z"/>
		<path fill-rule="evenodd" clip-rule="evenodd" fill="#C18B2C" d="M198.3,148.4c-1.7,1.8-5.6,0.9-8.6-0.3c-1.7,0.5-1.4,1.4-3.1,1.4
			c-5.2,0-4.1-6.4-6.1-8.7c-0.6,5.1-0.9,10.6-4.4,12c-1.2-0.2-1.5-1.2-2.7-1.4c-2.1,5.6-11.7,5.4-10-3.1c-6-4.3,4-7.8,5.6-10.8
			c-2.2,0.5-5.5,2.2-7.9,0.1c-0.4-0.8,0.4-2.6-0.7-3c-6.7,0.5-9-6.9-4.9-9.9c0.5-0.3,1.9-0.2,2.5-0.4c1-0.2,1.6-0.7,2.6-0.7
			c1.6-6.3,8.8-0.8,11.9-0.3c-1.4-2.2-3.9-3.6-3.8-7c0.3-1.5,2-1.3,2.2-2.9c-2.2-4.8,1.6-9.9,6.4-8.2c2,0.7,2.2,3.2,3.8,4.4
			c1.2,0,2,0.4,2.8,0.7c2.1,2,0.3,7,1.3,9.8c1.7-2.7,3.6-5.6,8-3.7c1.9-0.7,2.9-1.8,4.8-1.2c3.7,1.2,2.1,6.3-0.3,8.6
			c0.3,0.9,1.3,1.3,0.7,3c-2.3,3.9-8.2,3.4-13.1,4.1c1-1.3,3.4-0.9,4.2-2.3c-0.4-2.1,0.9-5.4-1.4-5.9c-4.1,0.8-4.5,6.3-8.7,6.8
			c1.9-2.9,4.9-10.9,0.9-13.2c-1.2-0.1-0.8,1.8-2,1.6c-1.7-0.1-1.3-1.8-3.4-1.5c-4.6,4.6,4.3,7.5,2.3,13.2c-2.2-1.4-6.4-5.8-9.7-2.7
			c0.9,2.8-0.8,3.3-1.2,6.3c3.3,3.5,7.3-0.8,10.6-1.2c-1.6,4.5-5,6.7-7.1,10.6c0.8,0.4,0.1,2,1.6,2c1.7-0.8,2.7-0.9,4.6,0.2
			c3.2-3,2.9-8.9,1.2-12.4c4.5,1.5,3.7,7.1,8.3,8.6c1.5-0.2,1.2-1.8,1.1-3.1c0.6-0.5,1.8-0.2,1.6-1.6c-0.6-3.2-5.4-3.3-8-5
			c1.7-1.5,3.3-0.3,5.3,0.3c3.6,1,8.3,2.1,10.6,4.2c0.4,1.2-0.4,1.5-0.7,2.8C197.3,141.4,201.3,145.3,198.3,148.4 M180,140
			c0.7,0.2,0.7-1.5-0.2-1.1c0,0.2,0,0.5-0.1,0.7C180,139.6,180,139.8,180,140z"/>
		<path fill-rule="evenodd" clip-rule="evenodd" fill="#C18B2C" d="M54.4,223.1c-1.3,1.4-4.4,0.7-6.8-0.3c-1.3,0.4-1.1,1.1-2.4,1.1
			c-4.1,0.1-3.3-5-4.8-6.8c-0.5,4.1-0.7,8.4-3.5,9.5c-1-0.2-1.2-1-2.1-1.1c-1.7,4.4-9.2,4.3-7.9-2.4c-4.7-3.4,3.2-6.2,4.5-8.5
			c-1.8,0.4-4.4,1.7-6.2,0c-0.3-0.7,0.3-2.1-0.6-2.3c-5.3,0.4-7.1-5.5-3.8-7.9c0.4-0.3,1.5-0.2,2-0.3c0.8-0.2,1.2-0.5,2.1-0.6
			c1.3-4.9,7-0.6,9.4-0.2c-1.1-1.8-3.1-2.8-3-5.5c0.2-1.2,1.6-1,1.7-2.3c-1.7-3.8,1.3-7.8,5.1-6.5c1.6,0.6,1.7,2.5,3,3.5
			c1,0,1.6,0.3,2.2,0.6c1.6,1.6,0.2,5.6,1,7.8c1.3-2.1,2.8-4.4,6.3-2.9c1.5-0.6,2.3-1.4,3.8-0.9c2.9,0.9,1.6,5-0.3,6.8
			c0.3,0.7,1,1.1,0.6,2.3c-1.9,3.1-6.5,2.7-10.4,3.3c0.8-1,2.7-0.7,3.4-1.8c-0.3-1.6,0.7-4.3-1.1-4.7c-3.2,0.6-3.6,4.9-6.9,5.4
			c1.5-2.3,3.9-8.6,0.7-10.4c-0.9-0.2-0.6,1.4-1.6,1.2c-1.4,0-1-1.4-2.7-1.2c-3.6,3.6,3.4,5.9,1.8,10.4c-1.7-1.1-5.1-4.6-7.7-2.1
			c0.7,2.3-0.7,2.6-0.9,5c2.6,2.7,5.7-0.7,8.4-0.9c-1.3,3.5-3.9,5.3-5.6,8.4c0.6,0.3,0.1,1.6,1.2,1.6c1.4-0.6,2.1-0.6,3.7,0.2
			c2.5-2.3,2.3-7,0.9-9.8c3.5,1.2,2.9,5.6,6.6,6.8c1.2-0.1,0.9-1.4,0.8-2.4c0.5-0.4,1.4-0.2,1.3-1.3c-0.5-2.5-4.2-2.5-6.3-3.9
			c1.3-1.2,2.6-0.2,4.2,0.3c2.9,0.8,6.6,1.6,8.4,3.3c0.3,0.9-0.3,1.2-0.6,2.2C53.6,217.5,56.7,220.6,54.4,223.1 M39.9,216.4
			c0.5,0.2,0.5-1.2-0.2-0.9c0,0.2,0,0.4-0.1,0.6C39.9,216.1,39.9,216.2,39.9,216.4z"/>
		<path fill-rule="evenodd" clip-rule="evenodd" fill="#C18B2C" d="M111.8,161.4c-2.3,0.9-5.5-1.5-7.6-3.9c-1.7-0.2-1.9,0.7-3.4,0
			c-4.8-2.1-1.1-7.5-1.9-10.4c-2.7,4.4-5.3,9.2-9,9.1c-1-0.7-0.8-1.7-1.9-2.4c-4.3,4.2-12.9,0-7.8-7c-3.6-6.4,6.9-5.4,9.7-7.4
			c-2.3-0.5-6-0.3-7.2-3.2c-0.1-0.9,1.4-2.2,0.6-3C77,130.7,77.9,123,83,122c0.6-0.1,1.8,0.6,2.5,0.7c1,0.2,1.7,0,2.7,0.4
			c4.1-5,8.4,3,10.9,4.7c-0.4-2.6-2-4.9-0.5-7.9c0.9-1.2,2.4-0.3,3.2-1.8c0-5.3,5.6-8.3,9.2-4.7c1.5,1.5,0.7,3.8,1.5,5.6
			c1.1,0.5,1.6,1.2,2.2,1.8c1,2.7-2.7,6.5-3,9.5c2.7-1.7,5.6-3.6,8.8,0c2,0.2,3.4-0.4,4.9,0.9c2.9,2.6-0.8,6.6-3.9,7.6
			c0,1,0.6,1.8-0.6,3c-3.8,2.6-8.9-0.3-13.6-1.7c1.5-0.8,3.4,0.6,4.8-0.4c0.5-2,3.1-4.5,1.2-6c-4-1-6.7,3.8-10.8,2.5
			c3-1.9,9-7.8,6.4-11.6c-1-0.7-1.4,1.3-2.5,0.6c-1.6-0.8-0.4-2.2-2.5-2.8c-6.1,2.2,0.8,8.6-3.5,13c-1.4-2.2-3.3-8-7.7-6.5
			c-0.3,3-2.1,2.6-3.7,5.3c1.5,4.5,6.9,2.3,10.1,3.3c-3.3,3.4-7.4,4-10.9,6.7c0.6,0.7-0.7,1.9,0.6,2.5c1.9,0,2.8,0.4,4.1,2.1
			c4.2-1.3,6.3-6.9,6.3-10.8c3.4,3.3,0.4,8,3.9,11.3c1.4,0.4,1.8-1.1,2.3-2.4c0.7-0.2,1.7,0.5,2.2-0.8c0.8-3.2-3.5-5.2-5.2-7.8
			c2.2-0.7,3.1,1.1,4.7,2.5c2.9,2.5,6.7,5.4,7.8,8.3c-0.1,1.3-1,1.2-1.8,2.2C113.7,154.5,115.7,159.8,111.8,161.4 M98.6,146
			c0.5,0.5,1.3-1.1,0.3-1.1c-0.2,0.2-0.3,0.4-0.4,0.6C98.8,145.7,98.7,145.8,98.6,146z"/>
		<path fill-rule="evenodd" clip-rule="evenodd" fill="#C18B2C" d="M99.7,246.9c-0.2,1.1-2,1.6-3.3,1.8c-0.5,0.6-0.3,0.9-0.9,1.2
			c-2,1.2-3-1.5-4.3-2c0.9,2.1,2,4.3,1,5.6c-0.5,0.2-0.8-0.2-1.4,0c0.4,2.6-3.3,4.7-4.5,1.1c-3.3-0.4-0.2-3.9-0.2-5.4
			c-0.7,0.7-1.6,2.1-3,1.8c-0.4-0.2-0.5-1.1-0.9-1c-2.4,1.7-5-0.6-4.1-2.7c0.1-0.2,0.7-0.5,0.9-0.7c0.3-0.3,0.4-0.6,0.8-0.9
			c-0.8-2.8,3.2-2.3,4.5-2.8c-1-0.5-2.3-0.5-3-1.8c-0.2-0.6,0.5-0.9,0.2-1.6c-1.9-1.4-1.6-4.1,0.6-4.6c0.9-0.1,1.6,0.7,2.4,0.9
			c0.5-0.3,0.9-0.3,1.2-0.3c1.2,0.3,1.7,2.6,2.7,3.5c0-1.4,0.1-2.9,2.2-3.2c0.6-0.7,0.7-1.3,1.6-1.5c1.7-0.4,2.2,2,1.8,3.4
			c0.4,0.2,0.8,0.2,1,1c0,2-2.4,3.1-4.1,4.5c0.1-0.7,1.1-1.1,1.1-1.8c-0.6-0.7-0.8-2.3-1.8-1.9c-1.4,1.2-0.3,3.4-1.8,4.6
			c0.1-1.6-0.5-5.3-2.6-5.3c-0.5,0.2,0.1,0.9-0.4,1.1c-0.7,0.4-0.9-0.4-1.6,0.2c-0.8,2.8,3.3,1.9,3.8,4.6c-1.1,0-3.7-0.8-4.3,1.2
			c1,0.9,0.4,1.4,1,2.7c2,0.6,2.6-1.9,3.8-2.8c0.4,2.1-0.5,3.7-0.4,5.6c0.4,0,0.5,0.8,1,0.4c0.5-0.7,0.9-0.9,1.8-1
			c0.6-1.9-0.9-4.1-2.3-5c2-0.4,3,1.9,5.1,1.5c0.5-0.4,0.1-1-0.3-1.4c0.1-0.3,0.6-0.5,0.3-1c-0.9-1.1-2.8-0.1-4.2-0.1
			c0.3-1,1.2-0.8,2.1-1.1c1.6-0.4,3.7-1.1,5-0.8c0.4,0.4,0.2,0.7,0.4,1.2C97.7,244.4,100.1,245,99.7,246.9 M90.8,247.7
			c0.3-0.1-0.1-0.7-0.3-0.4c0,0.1,0.1,0.2,0.1,0.3C90.7,247.6,90.7,247.7,90.8,247.7z"/>
		<path fill-rule="evenodd" clip-rule="evenodd" fill="#C18B2C" d="M75.8,243.3c-0.4,1.5-2.7,2.2-4.6,2.5c-0.7,0.8-0.3,1.2-1.2,1.7
			c-2.7,1.6-4.1-2.1-5.8-2.7c1.3,2.9,2.8,5.8,1.4,7.6c-0.7,0.3-1.1-0.2-1.9,0.1c0.6,3.6-4.5,6.4-6.2,1.5c-4.5-0.5-0.3-5.3-0.3-7.4
			c-1,1-2.2,2.9-4.2,2.5c-0.5-0.3-0.6-1.5-1.3-1.3c-3.3,2.3-6.9-0.9-5.6-3.8c0.2-0.3,0.9-0.7,1.2-1c0.4-0.4,0.6-0.8,1.1-1.2
			c-1.1-3.8,4.4-3.1,6.2-3.8c-1.4-0.7-3.1-0.7-4.1-2.5c-0.3-0.9,0.7-1.3,0.2-2.2c-2.6-1.8-2.2-5.7,0.9-6.2c1.2-0.2,2.1,1,3.3,1.2
			c0.7-0.4,1.1-0.4,1.7-0.5c1.7,0.5,2.3,3.6,3.7,4.8c0.1-1.9,0.1-4,3.1-4.3c0.8-1,0.9-1.9,2.2-2.1c2.3-0.5,3,2.7,2.4,4.6
			c0.4,0.4,1.1,0.3,1.3,1.3c0,2.8-3.3,4.3-5.6,6.2c0.1-1,1.5-1.5,1.5-2.5c-0.8-1-1.2-3.1-2.6-2.7c-1.9,1.6-0.4,4.7-2.5,6.3
			c0.1-2.1-0.7-7.2-3.5-7.2c-0.7,0.3,0.1,1.2-0.6,1.4c-0.9,0.5-1.2-0.6-2.2,0.3c-1,3.8,4.6,2.6,5.2,6.3c-1.6-0.1-5.2-1.1-5.9,1.5
			c1.4,1.2,0.6,2,1.3,3.7c2.8,0.9,3.6-2.6,5.2-3.8c0.5,2.8-0.5,5.1-0.5,7.7c0.6,0,0.7,1,1.4,0.6c0.7-0.9,1.1-1.3,2.5-1.3
			c0.8-2.5-1.2-5.5-3.2-6.8c2.8-0.6,4.1,2.6,7,2c0.7-0.6,0.1-1.3-0.4-2c0.1-0.4,0.8-0.7,0.4-1.3c-1.3-1.5-3.8-0.1-5.7-0.2
			c0.4-1.3,1.7-1.2,2.9-1.5c2.2-0.6,5-1.4,6.8-1c0.6,0.5,0.3,0.9,0.5,1.7C73.1,239.9,76.4,240.8,75.8,243.3 M63.6,244.5
			c0.4-0.1-0.1-1-0.5-0.5c0,0.1,0.1,0.3,0.2,0.4C63.4,244.3,63.5,244.4,63.6,244.5z"/>
		<path fill-rule="evenodd" clip-rule="evenodd" fill="#C18B2C" d="M42.6,145.2c-0.4,1.5-2.7,2.2-4.6,2.4c-0.7,0.8-0.4,1.2-1.2,1.7
			c-2.7,1.6-4.1-2.1-5.8-2.7c1.2,2.9,2.7,5.8,1.4,7.6c-0.7,0.3-1.1-0.2-1.9,0.1c0.6,3.6-4.5,6.4-6.2,1.4c-4.5-0.4-0.3-5.3-0.3-7.4
			c-1,1-2.2,2.9-4.1,2.5c-0.5-0.3-0.6-1.5-1.3-1.3c-3.3,2.3-6.9-0.9-5.6-3.7c0.1-0.3,0.9-0.7,1.2-1c0.4-0.5,0.6-0.8,1.1-1.2
			c-1-3.8,4.4-3.1,6.2-3.8c-1.4-0.7-3.2-0.7-4.1-2.5c-0.3-0.9,0.7-1.3,0.2-2.2c-2.6-1.9-2.2-5.7,0.9-6.2c1.3-0.2,2.1,1,3.3,1.2
			c0.7-0.4,1.2-0.4,1.7-0.5c1.7,0.4,2.3,3.6,3.7,4.8c0.1-1.9,0.1-4,3.1-4.4c0.8-1,1-1.9,2.2-2.1c2.3-0.5,3,2.7,2.4,4.6
			c0.5,0.3,1.1,0.3,1.3,1.3c0,2.8-3.3,4.3-5.6,6.1c0.1-1,1.5-1.5,1.5-2.5c-0.8-0.9-1.2-3.1-2.6-2.7c-1.9,1.7-0.4,4.7-2.6,6.3
			c0.1-2.2-0.7-7.2-3.5-7.2c-0.7,0.3,0.1,1.2-0.6,1.4c-0.9,0.5-1.2-0.6-2.3,0.2c-1,3.8,4.6,2.6,5.2,6.3c-1.6-0.1-5.2-1.1-5.9,1.6
			c1.4,1.2,0.6,2,1.3,3.7c2.8,0.8,3.6-2.6,5.2-3.8c0.5,2.8-0.6,5.1-0.5,7.7c0.6,0,0.7,1,1.4,0.6c0.7-0.9,1.2-1.3,2.5-1.3
			c0.8-2.6-1.2-5.6-3.2-6.9c2.8-0.6,4.1,2.6,7,2c0.7-0.6,0.1-1.3-0.4-2c0.1-0.5,0.9-0.7,0.4-1.3c-1.3-1.6-3.8-0.1-5.7-0.2
			c0.4-1.3,1.6-1.1,2.9-1.5c2.2-0.6,5-1.5,6.9-1c0.6,0.5,0.3,0.9,0.4,1.7C39.9,141.8,43.2,142.7,42.6,145.2 M30.4,146.4
			c0.4-0.1-0.1-1-0.5-0.5c0,0.1,0.1,0.3,0.2,0.4C30.3,146.2,30.3,146.3,30.4,146.4z"/>
		<path fill-rule="evenodd" clip-rule="evenodd" fill="#C18B2C" d="M38.7,86.3c-1.1,0.8-3.1-0.1-4.5-1.1c-0.9,0.1-0.9,0.6-1.8,0.4
			c-2.7-0.5-1.5-3.8-2.3-5.2c-0.8,2.6-1.6,5.5-3.6,5.9c-0.6-0.2-0.6-0.8-1.3-1c-1.7,2.7-6.7,1.6-4.9-2.7c-2.7-2.9,3-3.6,4.1-5
			c-1.2,0-3.1,0.5-4.2-0.8c-0.1-0.5,0.5-1.3,0-1.6c-3.5-0.5-4-4.6-1.5-5.8c0.3-0.1,1,0.1,1.4,0.1c0.5,0,0.9-0.2,1.5-0.1
			c1.5-3.1,4.7,0.5,6.3,1.1c-0.5-1.3-1.7-2.3-1.2-4c0.3-0.7,1.2-0.5,1.4-1.4c-0.6-2.7,1.9-5,4.3-3.6c0.9,0.6,0.8,1.9,1.5,2.7
			c0.6,0.1,1,0.4,1.4,0.7c0.9,1.3-0.6,3.7-0.4,5.3c1.2-1.2,2.5-2.6,4.6-1.1c1.1-0.2,1.7-0.7,2.6-0.1c1.8,1,0.4,3.5-1.1,4.5
			c0.1,0.5,0.5,0.8,0,1.6c-1.7,1.8-4.7,0.9-7.3,0.8c0.7-0.6,1.9-0.1,2.5-0.8c0-1.1,1.1-2.7-0.1-3.3c-2.2,0-3,2.8-5.3,2.6
			c1.4-1.3,3.8-5.2,1.9-6.8c-0.6-0.2-0.6,0.8-1.2,0.6C30.6,68,31,67.1,29.9,67c-2.9,1.9,1.5,4.4-0.2,7.2c-1-0.9-2.8-3.7-4.9-2.4
			c0.2,1.6-0.8,1.6-1.3,3.2c1.3,2.2,3.9,0.3,5.7,0.5c-1.3,2.2-3.4,3-4.9,4.8c0.4,0.3-0.1,1.1,0.6,1.2c1-0.2,1.5-0.2,2.4,0.6
			c2-1.2,2.5-4.4,2-6.4c2.2,1.3,1.2,4.2,3.5,5.4c0.8,0.1,0.8-0.8,0.9-1.5c0.4-0.2,1,0.1,1-0.7c0-1.8-2.5-2.3-3.7-3.5
			c1.1-0.6,1.8,0.2,2.8,0.7c1.8,1,4.2,2,5.1,3.4c0.1,0.7-0.4,0.8-0.7,1.4C38.9,82.5,40.6,85,38.7,86.3 M30,79.9
			c0.3,0.2,0.5-0.7,0-0.6c0,0.1-0.1,0.2-0.1,0.4C30,79.7,30,79.8,30,79.9z"/>
		<path fill-rule="evenodd" clip-rule="evenodd" fill="#C18B2C" d="M42,109.7c-0.4,1.9-3.5,2.9-6,3.2c-0.9,1-0.5,1.5-1.5,2.1
			c-3.6,2.1-5.3-2.7-7.5-3.5c1.6,3.7,3.6,7.6,1.7,9.9c-0.9,0.4-1.5-0.3-2.4,0.1c0.7,4.6-5.8,8.3-8,1.9c-5.8-0.6-0.4-6.9-0.4-9.5
			c-1.3,1.2-2.9,3.7-5.4,3.2c-0.6-0.4-0.8-1.9-1.6-1.7c-4.3,2.9-8.9-1.2-7.2-4.8c0.2-0.4,1.2-0.9,1.6-1.3c0.6-0.6,0.8-1.1,1.5-1.5
			c-1.4-4.9,5.7-4,8-4.9c-1.9-0.9-4.1-0.9-5.3-3.2c-0.4-1.1,0.8-1.7,0.3-2.9c-3.4-2.4-2.8-7.3,1.1-8.1c1.6-0.3,2.8,1.3,4.3,1.5
			c0.8-0.5,1.5-0.5,2.1-0.6c2.2,0.5,3,4.7,4.8,6.2c0.1-2.5,0.2-5.2,4-5.7c1-1.2,1.3-2.4,2.8-2.7c3-0.6,3.9,3.5,3.1,6
			c0.6,0.5,1.4,0.4,1.7,1.7c0,3.6-4.2,5.6-7.2,8c0.2-1.3,1.9-1.9,1.9-3.3c-1.1-1.2-1.5-4-3.3-3.4c-2.5,2.1-0.6,6-3.3,8.1
			c0.2-2.8-0.9-9.3-4.5-9.3c-0.9,0.3,0.2,1.5-0.7,1.8c-1.2,0.7-1.5-0.7-2.9,0.3c-1.3,4.9,5.9,3.4,6.8,8.1c-2-0.1-6.7-1.4-7.7,2
			c1.8,1.5,0.8,2.5,1.7,4.7c3.6,1.1,4.6-3.4,6.7-5c0.6,3.7-0.8,6.5-0.6,10c0.7,0,0.9,1.3,1.8,0.7c0.9-1.3,1.5-1.7,3.2-1.7
			c1-3.3-1.5-7.2-4.1-8.9c3.6-0.8,5.3,3.4,9,2.6c0.9-0.7,0.1-1.7-0.5-2.5c0.2-0.6,1.1-0.8,0.5-1.7c-1.7-2-5-0.1-7.4-0.2
			c0.5-1.7,2.1-1.5,3.7-1.9c2.9-0.7,6.5-1.9,8.9-1.3c0.7,0.7,0.3,1.2,0.6,2.2C38.5,105.3,42.8,106.4,42,109.7 M26.2,111.2
			c0.6-0.1-0.1-1.3-0.6-0.7c0.1,0.2,0.2,0.3,0.2,0.5C26.1,110.9,26.2,111.1,26.2,111.2z"/>
		<path fill-rule="evenodd" clip-rule="evenodd" fill="#C18B2C" d="M39.5,180.8c-0.4,1.6-3.1,2.5-5.3,2.8c-0.8,0.9-0.4,1.4-1.4,1.9
			c-3.1,1.9-4.7-2.4-6.7-3.1c1.5,3.3,3.1,6.7,1.6,8.8c-0.8,0.3-1.3-0.2-2.1,0.1c0.7,4.1-5.1,7.3-7.1,1.7c-5.1-0.5-0.3-6.1-0.3-8.5
			c-1.2,1.1-2.6,3.3-4.8,2.8c-0.5-0.4-0.7-1.7-1.5-1.6c-3.8,2.6-7.9-1-6.4-4.3c0.2-0.3,1.1-0.8,1.4-1.1c0.5-0.5,0.7-1,1.3-1.4
			c-1.2-4.3,5.1-3.6,7.1-4.4c-1.6-0.8-3.6-0.8-4.7-2.8c-0.3-1,0.8-1.5,0.3-2.6c-3-2.1-2.5-6.5,1-7.1c1.4-0.3,2.4,1.1,3.8,1.3
			c0.7-0.4,1.3-0.4,1.9-0.5c2,0.5,2.6,4.2,4.2,5.5c0.1-2.2,0.2-4.6,3.5-5c0.9-1.1,1.1-2.1,2.5-2.4c2.6-0.6,3.4,3.1,2.8,5.3
			c0.5,0.4,1.2,0.4,1.4,1.5c0,3.2-3.8,4.9-6.4,7.1c0.2-1.2,1.7-1.7,1.7-2.9c-0.9-1.1-1.3-3.6-2.9-3.1c-2.2,1.9-0.5,5.3-2.9,7.2
			c0.1-2.4-0.9-8.3-4-8.3c-0.8,0.3,0.1,1.3-0.7,1.6c-1.1,0.6-1.4-0.7-2.6,0.3c-1.2,4.4,5.2,3,6,7.1c-1.8,0-5.9-1.2-6.8,1.8
			c1.6,1.4,0.7,2.2,1.5,4.2c3.2,0.9,4.1-3,6-4.4c0.5,3.2-0.7,5.8-0.6,8.9c0.7,0,0.8,1.2,1.7,0.7c0.8-1.1,1.3-1.5,2.8-1.5
			c0.9-2.9-1.4-6.4-3.6-7.9c3.2-0.6,4.8,3,8,2.3c0.9-0.6,0.1-1.5-0.4-2.3c0.2-0.5,1-0.7,0.5-1.5c-1.5-1.7-4.4-0.1-6.6-0.2
			c0.5-1.5,1.9-1.3,3.3-1.7c2.6-0.7,5.8-1.7,7.9-1.2c0.6,0.6,0.3,1,0.5,1.9C36.4,177,40.2,178,39.5,180.8 M25.6,182.2
			c0.5-0.1-0.1-1.2-0.5-0.6c0.1,0.1,0.1,0.3,0.2,0.5C25.4,181.9,25.5,182.1,25.6,182.2z"/>
		<path fill-rule="evenodd" clip-rule="evenodd" fill="#C18B2C" d="M162.3,145.2c-0.2,1-1.8,1.4-3.1,1.6c-0.5,0.5-0.2,0.8-0.8,1.1
			c-1.8,1.1-2.7-1.4-3.9-1.8c0.8,1.9,1.8,3.9,0.9,5.1c-0.5,0.2-0.8-0.1-1.2,0.1c0.4,2.4-3,4.3-4.1,1c-3-0.3-0.2-3.6-0.2-4.9
			c-0.7,0.7-1.5,1.9-2.8,1.6c-0.3-0.2-0.4-1-0.8-0.9c-2.2,1.5-4.6-0.6-3.7-2.5c0.1-0.2,0.6-0.4,0.8-0.7c0.3-0.3,0.4-0.5,0.8-0.8
			c-0.7-2.5,2.9-2.1,4.1-2.5c-1-0.5-2.1-0.5-2.7-1.7c-0.2-0.6,0.4-0.9,0.1-1.5c-1.7-1.3-1.4-3.8,0.6-4.2c0.8-0.2,1.4,0.7,2.2,0.8
			c0.4-0.2,0.8-0.3,1.1-0.3c1.1,0.3,1.5,2.4,2.5,3.2c0-1.3,0.1-2.7,2-2.9c0.5-0.7,0.6-1.2,1.4-1.4c1.5-0.4,2,1.8,1.6,3
			c0.3,0.2,0.7,0.2,0.9,0.9c0,1.9-2.2,2.8-3.7,4.1c0.1-0.7,1-1,1-1.7c-0.6-0.6-0.8-2-1.7-1.8c-1.3,1.1-0.3,3.1-1.7,4.1
			c0.1-1.4-0.5-4.8-2.3-4.8c-0.5,0.2,0.1,0.8-0.4,0.9c-0.6,0.3-0.8-0.4-1.5,0.2c-0.7,2.5,3,1.7,3.5,4.1c-1.1,0-3.4-0.7-3.9,1.1
			c0.9,0.8,0.4,1.3,0.9,2.4c1.8,0.6,2.4-1.8,3.4-2.5c0.3,1.9-0.4,3.3-0.3,5.1c0.4,0,0.5,0.7,0.9,0.4c0.5-0.6,0.8-0.8,1.7-0.9
			c0.5-1.7-0.8-3.7-2.1-4.6c1.9-0.3,2.7,1.7,4.6,1.3c0.5-0.4,0.1-0.9-0.2-1.3c0.1-0.3,0.5-0.4,0.2-0.9c-0.9-1-2.5,0-3.8-0.1
			c0.3-0.9,1.1-0.8,1.9-1c1.5-0.4,3.3-1,4.5-0.7c0.4,0.3,0.2,0.6,0.3,1.1C160.5,143,162.7,143.6,162.3,145.2 M154.2,146
			c0.3-0.1-0.1-0.7-0.3-0.3c0,0.1,0,0.1,0.1,0.3C154.1,145.8,154.1,145.9,154.2,146z"/>
		<path fill-rule="evenodd" clip-rule="evenodd" fill="#C18B2C" d="M148.5,79.2c-0.2,1-1.8,1.5-3,1.6c-0.5,0.5-0.2,0.8-0.8,1.1
			c-1.8,1.1-2.7-1.4-3.9-1.8c0.8,1.9,1.8,3.9,0.9,5.1c-0.5,0.2-0.8-0.1-1.2,0c0.4,2.4-3,4.2-4.1,1c-3-0.3-0.2-3.5-0.2-4.9
			c-0.7,0.6-1.5,1.9-2.7,1.6c-0.3-0.2-0.4-1-0.9-0.9c-2.2,1.5-4.5-0.6-3.7-2.5c0.1-0.2,0.6-0.5,0.8-0.7c0.3-0.3,0.4-0.5,0.8-0.8
			c-0.7-2.5,2.9-2.1,4.1-2.5c-1-0.5-2.1-0.4-2.7-1.6c-0.2-0.6,0.4-0.8,0.2-1.5c-1.7-1.2-1.5-3.8,0.6-4.2c0.8-0.2,1.4,0.7,2.2,0.8
			c0.4-0.3,0.8-0.3,1.1-0.3c1.1,0.3,1.5,2.4,2.5,3.2c0.1-1.3,0.1-2.7,2-2.9c0.5-0.7,0.6-1.2,1.4-1.4c1.5-0.3,2,1.8,1.6,3
			c0.3,0.2,0.7,0.2,0.8,0.9c0,1.9-2.2,2.9-3.7,4.1c0.1-0.7,1-1,1-1.7c-0.5-0.6-0.8-2.1-1.7-1.8c-1.3,1.1-0.3,3.1-1.7,4.1
			c0.1-1.4-0.5-4.8-2.3-4.8c-0.5,0.2,0.1,0.8-0.4,0.9c-0.6,0.3-0.8-0.4-1.5,0.2c-0.7,2.5,3,1.7,3.5,4.2c-1-0.1-3.4-0.7-3.9,1
			c0.9,0.8,0.4,1.3,0.9,2.4c1.8,0.6,2.4-1.8,3.4-2.6c0.3,1.9-0.4,3.3-0.3,5.1c0.4,0,0.5,0.7,0.9,0.4c0.5-0.6,0.8-0.8,1.7-0.9
			c0.5-1.7-0.8-3.7-2.1-4.6c1.9-0.4,2.7,1.7,4.6,1.3c0.5-0.4,0.1-0.8-0.3-1.3c0.1-0.3,0.6-0.5,0.3-0.9c-0.9-1-2.5,0-3.8-0.1
			c0.3-0.9,1.1-0.8,1.9-1c1.5-0.4,3.3-1,4.5-0.7c0.4,0.3,0.2,0.6,0.3,1.1C146.7,77,148.9,77.6,148.5,79.2 M140.4,80
			c0.3,0-0.1-0.7-0.3-0.3c0,0.1,0.1,0.2,0.1,0.3C140.3,79.9,140.3,79.9,140.4,80z"/>
		<path fill-rule="evenodd" clip-rule="evenodd" fill="#C18B2C" d="M95.7,68.4c0,0.8-1.1,1.6-2.1,2c-0.3,0.5,0,0.7-0.4,1.1
			c-1.2,1.3-2.5-0.5-3.5-0.5c1.1,1.3,2.4,2.7,1.9,3.9c-0.3,0.3-0.6,0.1-1,0.3c0.9,1.8-1.4,4.1-3.1,1.8c-2.4,0.5-1-2.8-1.3-3.9
			c-0.4,0.7-0.7,1.9-1.8,2c-0.3-0.1-0.6-0.7-0.9-0.5c-1.4,1.7-3.8,0.6-3.6-1.1c0-0.2,0.4-0.5,0.5-0.7c0.2-0.3,0.2-0.5,0.4-0.8
			c-1.1-1.9,1.9-2.3,2.7-3c-0.9-0.2-1.8,0.1-2.6-0.7c-0.3-0.4,0.1-0.8-0.2-1.2c-1.7-0.6-2-2.7-0.5-3.5c0.6-0.3,1.3,0.2,2,0.1
			c0.3-0.3,0.6-0.4,0.8-0.5c1,0,1.8,1.6,2.7,2c-0.2-1-0.5-2.2,1-2.8c0.3-0.6,0.2-1.1,0.8-1.5c1.1-0.6,2,1,2,2.1
			c0.3,0.1,0.6,0,0.9,0.5c0.4,1.5-1.1,2.8-2,4.2c-0.1-0.6,0.6-1,0.4-1.6c-0.6-0.4-1.1-1.5-1.8-1c-0.8,1.2,0.5,2.6-0.3,3.7
			c-0.3-1.2-1.5-3.7-3-3.3c-0.3,0.3,0.3,0.6-0.1,0.9c-0.4,0.4-0.7-0.1-1.1,0.5c0,2.2,2.8,0.7,3.7,2.5c-0.8,0.2-2.9,0.2-2.9,1.8
			c0.9,0.4,0.6,1,1.3,1.8c1.6,0,1.5-2,2.2-2.9c0.7,1.4,0.5,2.8,0.9,4.2c0.3-0.1,0.6,0.4,0.9,0.1c0.2-0.6,0.4-0.8,1.1-1.1
			c0-1.5-1.5-2.8-2.8-3.2c1.4-0.7,2.6,0.8,4,0c0.3-0.4-0.1-0.7-0.5-1c0-0.3,0.3-0.5,0-0.8c-0.9-0.6-2.1,0.6-3.1,0.8
			c0-0.8,0.7-0.9,1.4-1.2c1.1-0.7,2.4-1.6,3.5-1.6c0.4,0.2,0.3,0.4,0.5,0.8C93.7,67.1,95.6,67,95.7,68.4 M89.3,71
			c0.2-0.1-0.2-0.5-0.3-0.2c0.1,0.1,0.1,0.1,0.2,0.2C89.2,70.9,89.3,70.9,89.3,71z"/>
		<path fill-rule="evenodd" clip-rule="evenodd" fill="#C18B2C" d="M170.7,178.3c6.5,4,11.3,10.5,8.8,16.6c-1.5-1.4-4.3-1.7-6.3-3.1
			C168.8,188.7,166.9,182.9,170.7,178.3"/>
		<path fill-rule="evenodd" clip-rule="evenodd" fill="#C18B2C" d="M103.2,167.2c-8.2,3.6-17.6,3.9-21.8-2.4c2.4-0.5,4.4-3,7.1-3.9
			C94.4,158.7,101.3,160.6,103.2,167.2"/>
		<path fill-rule="evenodd" clip-rule="evenodd" fill="#C18B2C" d="M101.4,173.1c-2.7,6.1-7.9,11.1-13.4,9.8c1.1-1.5,1-3.9,2-5.9
			C92.1,172.8,96.9,170.4,101.4,173.1"/>
		<path fill-rule="evenodd" clip-rule="evenodd" fill="#C18B2C" d="M188.3,93.2c6.5,4,11.3,10.6,8.9,16.6c-1.5-1.4-4.3-1.7-6.3-3.1
			C186.5,103.6,184.5,97.8,188.3,93.2"/>
		<path fill-rule="evenodd" clip-rule="evenodd" fill="#C18B2C" d="M283.2,152.2c-0.6,7.6-4.3,14.8-10.8,15.4c0.6-2-0.5-4.6-0.1-7
			C273.1,155.3,277.4,151,283.2,152.2"/>
		<path fill-rule="evenodd" clip-rule="evenodd" fill="#C18B2C" d="M267.3,77.7c4.3,5.5,6.3,12.6,2.3,17c-0.8-1.7-3.1-2.8-4.4-4.6
			C262.4,86,262.6,80.5,267.3,77.7"/>
		<path fill-rule="evenodd" clip-rule="evenodd" fill="#C18B2C" d="M242.4,167.3c3.5,8.5,3.6,18.3-3.1,22.6c-0.5-2.5-3-4.7-4-7.5
			C233.2,176.2,235.4,169.1,242.4,167.3"/>
		<path fill-rule="evenodd" clip-rule="evenodd" fill="#C18B2C" d="M238.7,39.4c6.5,4,11.3,10.5,8.9,16.6c-1.5-1.4-4.3-1.7-6.3-3.1
			C236.9,49.8,234.9,44,238.7,39.4"/>
		<path fill-rule="evenodd" clip-rule="evenodd" fill="#C18B2C" d="M70.9,252.4c6.5,4,11.3,10.5,8.9,16.6c-1.5-1.4-4.3-1.7-6.3-3.1
			C69.1,262.8,67.2,257,70.9,252.4"/>
		<path fill-rule="evenodd" clip-rule="evenodd" fill="#C18B2C" d="M10.7,194c5.3,0.1,10.4,2.4,11,6.8c-1.4-0.4-3.1,0.5-4.8,0.3
			C13.2,200.8,10,198,10.7,194"/>
		<path fill-rule="evenodd" clip-rule="evenodd" fill="#C18B2C" d="M83.2,259.3c5.8,0.1,11.5,2.4,12.3,7.3c-1.5-0.4-3.4,0.6-5.3,0.5
			C86.1,266.8,82.5,263.8,83.2,259.3"/>
		<path fill-rule="evenodd" clip-rule="evenodd" fill="#C18B2C" d="M56.9,220.7c-1.5-5.6-0.8-11.7,3.6-13.8c0.1,1.6,1.5,3.1,1.9,5
			C63.3,215.9,61.4,220.1,56.9,220.7"/>
		<path fill-rule="evenodd" clip-rule="evenodd" fill="#C18B2C" d="M35.7,172.5c-2-7.4-1.1-15.4,4.8-18.3c0.1,2.1,2,4.2,2.5,6.6
			C44.2,166,41.7,171.6,35.7,172.5"/>
		<path fill-rule="evenodd" clip-rule="evenodd" fill="#C18B2C" d="M9.8,140c-7.1-5.5-12-13.6-8.7-20.3c1.6,1.9,4.8,2.5,7,4.4
			C12.8,128.3,14.6,135.2,9.8,140"/>
		<path fill-rule="evenodd" clip-rule="evenodd" fill="#C18B2C" d="M14.4,158.3C8.1,158.9,1.7,157,0.2,152c1.7,0.2,3.7-1,5.7-1.1
			C10.4,150.8,14.6,153.6,14.4,158.3"/>
		<path fill-rule="evenodd" clip-rule="evenodd" fill="#C18B2C" d="M33.4,59.5c-0.8-7.6,1.4-15.4,7.7-17.3c-0.2,2.1,1.3,4.4,1.4,6.9
			C42.7,54.5,39.4,59.7,33.4,59.5"/>
		<path fill-rule="evenodd" clip-rule="evenodd" fill="#C18B2C" d="M166.2,270.9c5.8,0,11.5,2.4,12.3,7.3c-1.6-0.4-3.4,0.6-5.3,0.5
			C169.1,278.4,165.5,275.4,166.2,270.9"/>
		<path fill-rule="evenodd" clip-rule="evenodd" fill="#C18B2C" d="M199.6,259.8c5.5-1.9,11.6-1.6,14,2.8c-1.6,0.2-3,1.7-4.8,2.2
			C204.8,265.8,200.5,264.2,199.6,259.8"/>
		<path fill-rule="evenodd" clip-rule="evenodd" fill="#C18B2C" d="M158.4,1c2.9,5.8,2.8,12.7-2.7,16.2c-0.3-1.7-2.4-3.1-3.2-5
			C150.7,8,152.6,2.8,158.4,1"/>
		<path fill-rule="evenodd" clip-rule="evenodd" fill="#C18B2C" d="M136.4,0c8.4,2.4,15.8,7.8,15.4,14.5c-2.1-1.1-5.2-0.6-7.8-1.5
			C138.2,10.9,134,5.6,136.4,0"/>
		<path fill-rule="evenodd" clip-rule="evenodd" fill="#C18B2C" d="M96.4,21.4c-7.6,1-15.4-1-17.4-7.2c2.1,0.2,4.4-1.4,6.8-1.6
			C91.2,12.2,96.4,15.4,96.4,21.4"/>
	</g>
	<g>
		<path fill="#C18B2C" d="M474.7,224.2c-0.7,0.5-1.5,1-2.4,1.6c-1,0.5-2,1-3,1.4c-1,0.4-2.1,0.8-3,1c-1,0.3-1.8,0.4-2.5,0.4
			c-0.5,0-0.9,0-1.3-0.1c-0.4-0.1-0.8-0.3-1.1-0.6c-0.3-0.3-0.6-0.8-0.9-1.4c-0.3-0.6-0.5-1.4-0.7-2.5c-0.2-1-0.3-2.3-0.4-3.9
			c-0.1-1.5-0.1-3.4-0.1-5.6c0-2.4,0-4.6,0.1-6.5c0-1.9,0.1-3.6,0.2-5.1c0.1-1.5,0.1-2.8,0.2-3.8c0.1-1.1,0.1-1.9,0.1-2.6
			c0-0.6,0-1.1-0.1-1.5c0-0.4-0.2-0.8-0.4-1.1c-0.2-0.3-0.5-0.6-0.9-0.7c-0.4-0.2-0.9-0.3-1.6-0.3c-1.1,0-2.4,0-4,0
			c-1.6,0-3.7,0-6.1,0c-0.1,2-0.2,4.1-0.3,6.4c-0.1,2.3-0.2,4.8-0.3,7.5c-0.1,2.8-0.2,5.8-0.3,9.2c-0.1,3.4-0.2,7.2-0.2,11.4
			l-5.6,0.7l-0.4,0c0.1-2.5,0.3-5.3,0.4-8.3c0.1-3,0.3-6,0.4-9.1c0.1-3.1,0.3-6.2,0.3-9.2c0.1-3,0.1-5.9,0.2-8.5c-0.9,0-1.9,0-2.9,0
			c-1,0-2.1,0-3.2,0h-7.3c0.1,0.3,0.1,0.6,0.2,1c0,0.3,0.1,0.8,0.1,1.5c0,0.7,0,1.9-0.1,3.8c-0.1,1.8-0.2,4.1-0.3,6.9
			c-0.1,2.8-0.2,5.9-0.4,9.6c-0.2,3.6-0.3,7.5-0.5,11.8l-5.5,0.7l-0.4,0c0.1-1.8,0.3-3.6,0.4-5.5c0.1-1.9,0.2-3.9,0.3-5.8
			c0.1-2,0.2-3.9,0.3-5.7c0.1-1.9,0.1-3.6,0.2-5.2c0-1.6,0.1-3.1,0.1-4.3c0-1.3,0-2.3,0-3c0-0.9,0-1.8-0.1-2.4
			c-0.1-0.7-0.2-1.2-0.4-1.7c-0.2-0.5-0.5-0.9-0.8-1.1c-0.4-0.3-0.8-0.5-1.4-0.7c-0.6-0.2-1.4-0.3-2.2-0.3c-0.9-0.1-2-0.1-3.2-0.1
			l0-2.3c1.6,0,3,0.1,4.3,0.1c1.2,0,2.3,0,3.2,0c0.9,0,1.7,0,2.3,0c0.6,0,1.1,0,1.6,0h1.4c5.8,0,11,0,15.3,0c4.4,0,8.1-0.1,11.2-0.1
			c3.1,0,5.5-0.1,7.3-0.1c1.8,0,3.1,0,3.9,0c0.8,0,1.4,0.2,1.7,0.6c0.4,0.4,0.5,0.9,0.5,1.6c0,0.3,0,0.8-0.1,1.5
			c-0.1,0.7-0.1,1.6-0.2,2.6c-0.1,1-0.2,2.2-0.3,3.5c-0.1,1.3-0.2,2.6-0.3,4.1c-0.1,1.4-0.2,2.9-0.2,4.4c-0.1,1.5-0.1,3-0.1,4.4
			c0,1.8,0,3.3,0.1,4.6c0.1,1.3,0.2,2.4,0.3,3.2c0.1,0.9,0.3,1.6,0.5,2.1c0.2,0.5,0.4,0.9,0.7,1.2c0.3,0.3,0.6,0.5,1,0.6
			c0.4,0.1,0.8,0.1,1.3,0.1c0.9,0,1.7-0.1,2.6-0.4c0.9-0.2,1.9-0.6,2.9-1.1L474.7,224.2"/>
		<path fill="#C18B2C" d="M479,212c0-1.8,0.2-3.6,0.6-5.5c0.4-1.9,0.9-3.7,1.7-5.4c0.7-1.7,1.6-3.4,2.7-4.9c1.1-1.5,2.3-2.9,3.7-4
			c1.4-1.1,3-2.1,4.7-2.7c1.7-0.7,3.6-1,5.7-1c2.3,0,4.3,0.5,6.1,1.5c1.8,1,3.2,2.2,4.4,3.8c1.2,1.6,2.1,3.4,2.7,5.4
			c0.6,2,0.9,4.1,0.9,6.2c0,1.8-0.2,3.6-0.6,5.5c-0.4,1.9-0.9,3.7-1.7,5.4c-0.7,1.7-1.7,3.4-2.7,4.9c-1.1,1.5-2.3,2.9-3.7,4
			c-1.4,1.1-3,2-4.7,2.7c-1.7,0.7-3.6,1-5.7,1c-2.3,0-4.3-0.5-6.1-1.5c-1.8-1-3.2-2.2-4.4-3.8c-1.2-1.6-2.1-3.4-2.7-5.4
			C479.3,216.2,479,214.1,479,212 M485.4,209.5c0,1.2,0.1,2.5,0.3,3.7c0.2,1.2,0.5,2.5,0.9,3.6c0.4,1.2,0.9,2.2,1.5,3.3
			s1.3,1.9,2.1,2.6c0.8,0.7,1.7,1.3,2.7,1.8c1,0.4,2.1,0.6,3.3,0.6c1.3,0,2.5-0.3,3.5-0.8c1-0.6,1.8-1.3,2.6-2.2
			c0.7-0.9,1.3-2,1.8-3.2c0.5-1.2,0.9-2.4,1.1-3.7c0.3-1.3,0.5-2.5,0.6-3.8c0.1-1.2,0.2-2.4,0.2-3.5c0-1.2-0.1-2.5-0.3-3.7
			c-0.2-1.2-0.5-2.4-0.9-3.6c-0.4-1.1-0.9-2.2-1.5-3.2c-0.6-1-1.3-1.9-2.1-2.6c-0.8-0.7-1.7-1.3-2.7-1.8c-1-0.4-2.1-0.6-3.3-0.6
			c-1.3,0-2.5,0.3-3.5,0.8c-1,0.6-1.8,1.3-2.6,2.2c-0.7,0.9-1.3,2-1.8,3.2c-0.5,1.2-0.9,2.4-1.1,3.7c-0.3,1.3-0.5,2.5-0.6,3.8
			C485.5,207.3,485.4,208.4,485.4,209.5z"/>
		<path fill="#C18B2C" d="M523.5,196.6c0-0.6,0-1.1-0.1-1.6c0-0.5-0.2-0.9-0.3-1.2c-0.2-0.3-0.4-0.6-0.8-0.8
			c-0.3-0.2-0.8-0.3-1.4-0.3c-0.6,0-1.3,0.1-2.1,0.2c-0.8,0.2-1.9,0.4-3.2,0.7l-0.4-1.9c3-1,5.5-1.8,7.4-2.3c1.9-0.5,3.2-0.7,4-0.7
			c0.5,0,0.9,0.1,1.3,0.2c0.4,0.1,0.8,0.4,1.1,0.7c0.3,0.3,0.6,0.7,0.7,1.3c0.2,0.5,0.3,1.2,0.3,1.9c0,1.4-0.1,2.9-0.2,4.4
			c-0.1,1.6-0.2,3.2-0.2,5c0,0.6,0,1.4,0.1,2.2c0.1,0.8,0.3,1.6,0.7,2.3c0.4,0.7,1,1.3,1.8,1.8c0.8,0.5,1.9,0.7,3.3,0.7
			c1.2,0,2.6-0.2,4.2-0.5c1.6-0.3,3.5-1,5.6-2c0-1.4,0.1-2.8,0.1-4.2c0-1.4,0.1-2.8,0.1-4.1c0-1.3,0.1-2.6,0.1-3.8
			c0-1.2,0.1-2.3,0.1-3.3c0-0.5,0.1-0.9,0.3-1.2c0.2-0.3,0.5-0.6,0.8-0.7c0.3-0.2,0.7-0.3,1-0.3c0.4-0.1,0.7-0.1,1.1-0.1
			c0.6,0,1.2,0.1,1.7,0.2c0.5,0.1,1,0.3,1.6,0.6c-0.2,2.1-0.3,4.1-0.5,6.2c-0.1,2-0.3,4-0.4,6c-0.1,1.9-0.2,3.8-0.3,5.6
			c-0.1,1.8-0.1,3.5-0.1,5c0,1.8,0,3.3,0,4.6c0,1.3,0.1,2.3,0.2,3.2c0.1,0.9,0.2,1.6,0.3,2.1c0.1,0.5,0.3,0.9,0.6,1.2
			c0.2,0.3,0.5,0.5,0.9,0.6c0.3,0.1,0.8,0.1,1.2,0.1c0.9,0,1.8-0.1,2.8-0.4c1-0.3,2-0.6,3.1-1.1l0.5,1.4c-0.4,0.3-1,0.7-1.6,1
			c-0.6,0.4-1.3,0.7-2,1c-0.7,0.3-1.4,0.7-2.1,1c-0.7,0.3-1.5,0.6-2.2,0.8c-0.7,0.2-1.4,0.4-2,0.5c-0.6,0.1-1.2,0.2-1.6,0.2
			c-0.5,0-1,0-1.3-0.1c-0.4-0.1-0.7-0.3-1-0.6s-0.5-0.8-0.7-1.4c-0.2-0.6-0.4-1.5-0.5-2.6c-0.1-1.1-0.2-2.4-0.3-4.1
			c-0.1-1.6-0.1-3.6-0.1-5.9v-4.6c-2.1,1.1-4.3,2-6.4,2.6c-2.1,0.6-4.2,0.9-6.1,0.9c-1.3,0-2.6-0.2-3.7-0.5
			c-1.1-0.3-2.1-0.8-2.9-1.4c-0.8-0.6-1.5-1.5-1.9-2.5c-0.5-1-0.7-2.2-0.7-3.6c0-1,0-1.9,0-2.6c0-0.7,0-1.3,0.1-1.9
			c0-0.6,0-1.2,0.1-1.8C523.5,198,523.5,197.4,523.5,196.6"/>
		<path fill="#C18B2C" d="M570.3,196.6c0-0.6,0-1.1-0.1-1.6c-0.1-0.5-0.2-0.9-0.4-1.2c-0.2-0.3-0.5-0.6-0.8-0.8
			c-0.4-0.2-0.8-0.3-1.4-0.3c-0.6,0-1.3,0.1-2.1,0.2c-0.9,0.2-1.9,0.4-3.2,0.7l-0.4-1.9c3-1,5.5-1.8,7.4-2.3c1.9-0.5,3.2-0.7,4-0.7
			c0.5,0,0.9,0.1,1.3,0.2c0.4,0.1,0.8,0.4,1.1,0.7c0.3,0.3,0.6,0.7,0.7,1.3c0.2,0.5,0.3,1.2,0.3,1.9c0,0.2,0,0.8-0.1,1.6
			c0,0.8-0.1,1.8-0.2,3.1c-0.1,1.2-0.2,2.6-0.3,4.1c-0.1,1.5-0.2,3.1-0.3,4.7c1.6-0.1,3.2-0.1,4.7-0.2c1.5-0.1,3-0.1,4.5-0.1
			c1.5,0,3-0.1,4.5-0.1s3,0,4.5-0.1c0.1-2.2,0.1-4.5,0.2-6.9c0.1-2.4,0.2-4.9,0.4-7.7c0-0.5,0.2-0.9,0.4-1.2
			c0.2-0.3,0.5-0.6,0.9-0.7c0.3-0.2,0.7-0.3,1.1-0.3c0.4-0.1,0.7-0.1,1.1-0.1c0.6,0,1.2,0.1,1.7,0.2c0.5,0.1,1.1,0.3,1.6,0.6
			c-0.3,2.1-0.5,4.1-0.7,6.2c-0.2,2-0.4,4-0.5,5.9c-0.1,1.9-0.2,3.7-0.3,5.4c-0.1,1.7-0.1,3.2-0.1,4.6c0,1.9,0,3.5,0.1,4.8
			c0.1,1.4,0.1,2.5,0.3,3.4c0.1,0.9,0.3,1.7,0.5,2.2c0.2,0.6,0.5,1,0.7,1.3c0.3,0.3,0.6,0.5,1,0.6c0.4,0.1,0.8,0.1,1.2,0.1
			c0.9,0,1.7-0.1,2.7-0.4c0.9-0.3,1.9-0.6,2.9-1.1l0.5,1.4c-0.6,0.5-1.5,1-2.4,1.6c-1,0.5-2,1-3.1,1.5c-1.1,0.4-2.1,0.8-3.1,1.1
			c-1,0.3-1.9,0.4-2.6,0.4c-0.5,0-1,0-1.4-0.1c-0.4-0.1-0.8-0.3-1.1-0.6c-0.3-0.3-0.6-0.8-0.9-1.4c-0.3-0.6-0.5-1.5-0.6-2.6
			c-0.2-1.1-0.3-2.4-0.4-4.1c-0.1-1.6-0.1-3.6-0.1-5.9v-2.4c0-0.4,0-0.9,0-1.4c0-0.5,0-0.9,0-1.4c-3.1,0-6.1,0-9,0.1
			c-2.9,0.1-6,0.2-9.3,0.4c-0.1,2.8-0.3,5.8-0.3,8.8c-0.1,3.1-0.1,6.2-0.2,9.4l-5.8,0.7l-0.4,0c0.1-1.7,0.2-3.6,0.4-5.7
			c0.1-2,0.2-4.1,0.3-6.2c0.1-2.1,0.2-4.2,0.3-6.2c0.1-2,0.2-3.9,0.2-5.7c0-1.7,0.1-3.3,0.1-4.6
			C570.3,198.3,570.3,197.3,570.3,196.6"/>
		<path fill="#C18B2C" d="M613.9,212c0-1.8,0.2-3.6,0.6-5.5c0.4-1.9,0.9-3.7,1.7-5.4c0.7-1.7,1.6-3.4,2.7-4.9c1.1-1.5,2.3-2.9,3.7-4
			c1.4-1.1,3-2.1,4.7-2.7c1.7-0.7,3.6-1,5.7-1c2.3,0,4.3,0.5,6.1,1.5c1.8,1,3.2,2.2,4.4,3.8c1.2,1.6,2.1,3.4,2.7,5.4
			c0.6,2,0.9,4.1,0.9,6.2c0,1.8-0.2,3.6-0.6,5.5c-0.4,1.9-0.9,3.7-1.7,5.4c-0.7,1.7-1.7,3.4-2.7,4.9c-1.1,1.5-2.3,2.9-3.7,4
			c-1.4,1.1-3,2-4.7,2.7c-1.7,0.7-3.6,1-5.7,1c-2.3,0-4.3-0.5-6.1-1.5c-1.8-1-3.2-2.2-4.4-3.8c-1.2-1.6-2.1-3.4-2.7-5.4
			C614.2,216.2,613.9,214.1,613.9,212 M620.3,209.5c0,1.2,0.1,2.5,0.3,3.7c0.2,1.2,0.5,2.5,0.9,3.6c0.4,1.2,0.9,2.2,1.5,3.3
			c0.6,1,1.3,1.9,2.1,2.6c0.8,0.7,1.7,1.3,2.7,1.8s2.1,0.6,3.3,0.6c1.3,0,2.5-0.3,3.5-0.8c1-0.6,1.8-1.3,2.6-2.2
			c0.7-0.9,1.3-2,1.8-3.2c0.5-1.2,0.9-2.4,1.1-3.7c0.3-1.3,0.5-2.5,0.6-3.8c0.1-1.2,0.2-2.4,0.2-3.5c0-1.2-0.1-2.5-0.3-3.7
			c-0.2-1.2-0.5-2.4-0.9-3.6c-0.4-1.1-0.9-2.2-1.5-3.2c-0.6-1-1.3-1.9-2.1-2.6s-1.7-1.3-2.7-1.8c-1-0.4-2.1-0.6-3.3-0.6
			c-1.3,0-2.5,0.3-3.5,0.8c-1,0.6-1.8,1.3-2.6,2.2c-0.7,0.9-1.3,2-1.8,3.2c-0.5,1.2-0.9,2.4-1.1,3.7c-0.3,1.3-0.5,2.5-0.6,3.8
			C620.4,207.3,620.3,208.4,620.3,209.5z"/>
		<path fill="#C18B2C" d="M661.5,228.5c-0.6,0-1.2-0.1-1.7-0.4c-0.5-0.3-0.9-0.6-1.3-1c-0.3-0.4-0.6-0.9-0.8-1.5
			c-0.2-0.6-0.3-1.1-0.3-1.7c0-0.8,0.1-1.5,0.4-2.2c0.3-0.6,0.6-1.2,1.1-1.6c0.4-0.4,0.9-0.7,1.5-1c0.5-0.2,1.1-0.3,1.6-0.3
			c0.6,0,1.2,0.1,1.7,0.4c0.5,0.2,0.9,0.5,1.3,0.9c0.4,0.4,0.6,0.8,0.8,1.4c0.2,0.5,0.3,1.1,0.3,1.7c0,0.6-0.1,1.3-0.3,1.9
			c-0.2,0.6-0.5,1.2-0.9,1.7c-0.4,0.5-0.9,0.9-1.5,1.2C662.8,228.4,662.2,228.5,661.5,228.5"/>
		<path fill="#C18B2C" d="M708.2,216.4c0,1.3,0,2.4,0,3.3c0,0.9,0.1,1.7,0.3,2.3c0.1,0.6,0.4,1.1,0.7,1.5c0.3,0.4,0.8,0.6,1.3,0.8
			c0.6,0.2,1.3,0.3,2.2,0.4c0.9,0.1,1.9,0.1,3.2,0.2c0.3,0,0.5,0.1,0.7,0.2c0.1,0.1,0.2,0.2,0.2,0.4c0,0,0,0.1,0,0.2
			c0,0.1,0,0.1,0,0.2c-0.6,3.7-1.2,7.4-1.8,11.1c-0.5,3.7-1,7.4-1.5,11.2l-2.1-0.1c0-3.5-0.1-6.9-0.2-10.3
			c-0.1-3.4-0.2-6.8-0.4-10.3c-1,0-2-0.1-2.8-0.1c-0.8,0-1.6,0-2.5,0h-1.7c-2.3,0-4.5,0-6.7,0c-2.2,0-4.1,0-5.9,0.1
			c-1.8,0-3.3,0.1-4.5,0.1c-1.2,0-2.1,0-2.5,0c-0.9,0-1.6-0.1-2.2-0.3c-0.6-0.2-1-0.5-1.4-0.9c-0.3-0.4-0.6-0.9-0.7-1.4
			c-0.1-0.6-0.2-1.2-0.2-1.9c0-0.4,0-1,0.1-2c0.1-1,0.1-2.1,0.2-3.5c0.1-1.4,0.2-2.9,0.3-4.6c0.1-1.7,0.2-3.5,0.3-5.3
			c0.1-1.8,0.1-3.7,0.2-5.6c0.1-1.9,0.1-3.7,0.1-5.5c0-0.6,0-1.1-0.1-1.6c-0.1-0.5-0.2-0.9-0.4-1.2c-0.2-0.3-0.5-0.6-0.8-0.8
			c-0.4-0.2-0.8-0.3-1.5-0.3c-0.6,0-1.3,0.1-2.1,0.2c-0.9,0.2-1.9,0.4-3.2,0.7l-0.4-1.9c3-1,5.5-1.8,7.4-2.3c1.9-0.5,3.2-0.7,4-0.7
			c0.5,0,0.9,0.1,1.4,0.2c0.4,0.1,0.8,0.4,1.1,0.7c0.3,0.3,0.6,0.7,0.7,1.3c0.2,0.5,0.3,1.2,0.3,1.9c0,0.2,0,0.7-0.1,1.6
			c-0.1,0.9-0.1,2.1-0.2,3.5c-0.1,1.4-0.2,3-0.3,4.8c-0.1,1.8-0.2,3.6-0.3,5.6c-0.1,1.9-0.2,3.8-0.2,5.7c0,1.9-0.1,3.7-0.1,5.4
			c0,0.9,0,1.6,0.1,2.2c0.1,0.6,0.2,1.1,0.5,1.5c0.3,0.4,0.7,0.7,1.3,0.9c0.6,0.2,1.4,0.3,2.4,0.3h1.6c0.4,0,1,0,1.6,0
			c0.6,0,1.4,0,2.2,0c0.9,0,1.9,0,3,0c1.2,0,2.5,0,4.1,0c-0.1-0.4-0.1-0.8-0.2-1.2c0-0.4-0.1-0.9-0.1-1.3c0-0.5,0-1,0-1.6
			c0-0.6,0-1.2,0-1.9c0-1.5,0-3.2,0.1-5.1c0-1.9,0.1-3.9,0.2-6.1c0.1-2.2,0.2-4.7,0.3-7.3c0.1-2.6,0.3-5.5,0.4-8.6
			c0-0.8,0.4-1.3,1-1.7c0.6-0.4,1.4-0.6,2.4-0.6c1,0,2,0.3,3.1,0.8c-0.3,3.1-0.5,5.9-0.7,8.4c-0.2,2.5-0.3,4.9-0.5,7
			c-0.1,2.1-0.2,4.1-0.2,6C708.2,212.9,708.2,214.7,708.2,216.4"/>
		<path fill="#C18B2C" d="M719.6,190.8c1.3-0.3,2.8-0.5,4.4-0.8c1.6-0.3,3.3-0.5,5-0.7c1.7-0.2,3.5-0.4,5.2-0.5
			c1.8-0.1,3.4-0.2,5-0.2c0.9,0,2,0,3.1,0.1c1.1,0.1,2.2,0.2,3.3,0.5c1.1,0.2,2.1,0.5,3.1,0.9c1,0.4,1.9,0.9,2.7,1.5
			c0.8,0.6,1.4,1.4,1.9,2.2c0.5,0.9,0.7,1.9,0.7,3.1c0,1.5-0.3,2.8-1,3.9c-0.6,1.2-1.5,2.1-2.5,3c-1,0.8-2.2,1.5-3.4,2.1
			c-1.3,0.5-2.5,0.9-3.8,1.1v0.1c1.5,0.1,2.9,0.3,4.4,0.7c1.4,0.4,2.7,0.9,3.9,1.7c1.2,0.7,2.1,1.7,2.8,2.8c0.7,1.1,1.1,2.5,1.1,4.2
			c0,1.4-0.2,2.7-0.7,3.9c-0.5,1.2-1.1,2.2-1.9,3.1c-0.8,0.9-1.7,1.7-2.8,2.3c-1.1,0.7-2.2,1.2-3.5,1.6c-1.3,0.4-2.6,0.7-3.9,0.9
			c-1.4,0.2-2.7,0.3-4,0.3c-1.2,0-2.4-0.1-3.6-0.3c-1.2-0.2-2.3-0.4-3.3-0.7l-4.9,0.7l-0.4,0c0.2-3.1,0.4-6.1,0.6-9.1
			c0.2-3,0.3-5.8,0.4-8.6c0.1-2.8,0.2-5.4,0.2-7.8c0-2.5,0.1-4.7,0.1-6.8c0-0.7-0.1-1.2-0.2-1.7c-0.2-0.4-0.4-0.8-0.7-1
			c-0.3-0.2-0.6-0.4-1-0.5c-0.4-0.1-0.9-0.1-1.4-0.1c-0.6,0-1.3,0-2.1,0.1c-0.8,0.1-1.6,0.2-2.4,0.3L719.6,190.8 M732.5,224.2
			c1,0.5,2,0.8,3,1c1,0.2,2,0.3,3,0.3c1.4,0,2.7-0.2,3.9-0.6c1.2-0.4,2.3-1,3.3-1.7c0.9-0.8,1.7-1.7,2.3-2.8
			c0.6-1.1,0.8-2.4,0.8-3.9c0-1.6-0.3-2.9-1-3.9c-0.7-1-1.6-1.8-2.7-2.4c-1.1-0.6-2.4-1-3.9-1.2s-3-0.4-4.5-0.4c-0.6,0-1.1,0-1.7,0
			c-0.6,0-1.2,0.1-1.7,0.1L732.5,224.2z M734,191.4c0,0.7-0.1,1.6-0.1,2.6c0,1-0.1,2.2-0.1,3.5c-0.1,1.3-0.1,2.7-0.2,4.2
			c-0.1,1.5-0.1,3.1-0.2,4.8c1.8,0,3.5-0.2,5.2-0.4c1.7-0.3,3.2-0.8,4.5-1.5c1.3-0.7,2.4-1.6,3.2-2.7c0.8-1.1,1.2-2.5,1.2-4.2
			c0-1.4-0.3-2.5-0.9-3.4c-0.6-0.9-1.4-1.5-2.3-2c-0.9-0.5-2-0.8-3.1-1c-1.1-0.2-2.2-0.3-3.3-0.3c-0.6,0-1.2,0-1.9,0.1
			C735.3,191.2,734.6,191.3,734,191.4z"/>
		<path fill="#C18B2C" d="M790.8,219.1c0.1,0.1,0.2,0.1,0.4,0.2c0.2,0.1,0.3,0.2,0.5,0.3c0.1,0.1,0.3,0.2,0.4,0.4
			c0.1,0.1,0.2,0.3,0.2,0.4c0,0.1,0,0.1-0.1,0.2c-1,1.4-2.1,2.6-3.2,3.6c-1.2,1-2.3,1.9-3.6,2.6c-1.2,0.7-2.5,1.2-3.8,1.5
			c-1.3,0.3-2.6,0.5-3.8,0.5c-2.1,0-4.1-0.4-5.9-1.3c-1.8-0.9-3.3-2.1-4.6-3.6c-1.3-1.5-2.3-3.3-3-5.3c-0.7-2-1.1-4.2-1.1-6.6
			c0-1.9,0.2-3.8,0.6-5.7c0.4-1.9,1-3.7,1.8-5.5c0.8-1.7,1.8-3.3,2.9-4.8c1.1-1.5,2.4-2.8,3.9-3.9c1.5-1.1,3.1-2,4.8-2.6
			c1.7-0.6,3.6-0.9,5.6-0.9c1.3,0,2.6,0.2,3.8,0.5c1.2,0.4,2.2,0.9,3.1,1.5c0.9,0.7,1.6,1.5,2.2,2.5c0.5,1,0.8,2.1,0.8,3.4
			c0,1.8-0.6,3.4-1.8,4.8c-1.2,1.4-2.8,2.5-4.9,3.5c-2.1,0.9-4.6,1.7-7.4,2.3c-2.8,0.6-5.9,1-9.2,1.3v0.5c0,2.3,0.3,4.4,0.9,6.3
			c0.6,1.9,1.4,3.5,2.4,4.9c1,1.4,2.2,2.4,3.6,3.2c1.4,0.7,2.9,1.1,4.5,1.1c1.6,0,3.3-0.4,4.9-1.2
			C787.4,222.2,789.1,220.9,790.8,219.1 M785.8,197.6c0-0.8-0.1-1.6-0.4-2.3c-0.3-0.7-0.7-1.3-1.2-1.9c-0.5-0.5-1.1-0.9-1.8-1.2
			c-0.7-0.3-1.4-0.5-2.2-0.5c-1.2,0-2.2,0.2-3.2,0.6c-0.9,0.4-1.8,1-2.6,1.7c-0.7,0.7-1.4,1.5-2,2.5c-0.6,0.9-1.1,1.9-1.5,3
			c-0.4,1.1-0.7,2.1-1,3.2c-0.3,1.1-0.4,2.2-0.5,3.2c2.5-0.2,4.8-0.5,6.8-0.9c2-0.4,3.7-1,5.1-1.7c1.4-0.7,2.4-1.5,3.2-2.5
			C785.4,199.9,785.8,198.8,785.8,197.6z"/>
		<path fill="#C18B2C" d="M857.6,224.2c-0.7,0.5-1.5,1-2.4,1.6c-1,0.5-2,1-3,1.4s-2,0.8-3,1c-1,0.3-1.8,0.4-2.5,0.4
			c-0.5,0-0.9,0-1.3-0.1c-0.4-0.1-0.8-0.3-1.1-0.6c-0.3-0.3-0.6-0.8-0.9-1.4c-0.3-0.6-0.5-1.4-0.7-2.5c-0.2-1-0.3-2.3-0.4-3.9
			c-0.1-1.5-0.1-3.4-0.1-5.6c0-2.4,0-4.6,0.1-6.5c0-1.9,0.1-3.6,0.2-5.1c0.1-1.5,0.1-2.8,0.2-3.8c0.1-1.1,0.1-1.9,0.1-2.6
			c0-0.6,0-1.1-0.1-1.5c0-0.4-0.2-0.8-0.4-1.1c-0.2-0.3-0.5-0.6-0.9-0.7c-0.4-0.2-0.9-0.3-1.6-0.3c-1.1,0-2.4,0-4,0
			c-1.6,0-3.7,0-6.1,0c-0.1,2-0.2,4.1-0.3,6.4c-0.1,2.3-0.2,4.8-0.3,7.5c-0.1,2.8-0.2,5.8-0.3,9.2c-0.1,3.4-0.2,7.2-0.2,11.4
			l-5.6,0.7l-0.4,0c0.1-2.5,0.3-5.3,0.4-8.3c0.1-3,0.3-6,0.4-9.1c0.1-3.1,0.3-6.2,0.3-9.2c0.1-3,0.1-5.9,0.2-8.5c-0.9,0-1.9,0-2.9,0
			c-1,0-2.1,0-3.2,0h-7.3c0.1,0.3,0.1,0.6,0.2,1c0,0.3,0.1,0.8,0.1,1.5c0,0.7,0,1.9-0.1,3.8c-0.1,1.8-0.2,4.1-0.3,6.9
			c-0.1,2.8-0.3,5.9-0.4,9.6c-0.1,3.6-0.3,7.5-0.5,11.8l-5.5,0.7l-0.4,0c0.1-1.8,0.3-3.6,0.4-5.5c0.1-1.9,0.2-3.9,0.3-5.8
			c0.1-2,0.2-3.9,0.3-5.7c0.1-1.9,0.1-3.6,0.2-5.2c0-1.6,0.1-3.1,0.1-4.3c0-1.3,0-2.3,0-3c0-0.9,0-1.8-0.1-2.4
			c0-0.7-0.2-1.2-0.4-1.7c-0.2-0.5-0.5-0.9-0.8-1.1c-0.4-0.3-0.8-0.5-1.5-0.7c-0.6-0.2-1.4-0.3-2.2-0.3c-0.9-0.1-2-0.1-3.2-0.1
			l0-2.3c1.6,0,3,0.1,4.3,0.1c1.2,0,2.3,0,3.2,0c0.9,0,1.7,0,2.3,0c0.6,0,1.1,0,1.6,0h1.4c5.8,0,11,0,15.3,0c4.4,0,8.1-0.1,11.2-0.1
			c3.1,0,5.5-0.1,7.3-0.1s3.1,0,3.9,0c0.8,0,1.4,0.2,1.7,0.6c0.4,0.4,0.5,0.9,0.5,1.6c0,0.3,0,0.8-0.1,1.5c-0.1,0.7-0.1,1.6-0.2,2.6
			c-0.1,1-0.2,2.2-0.3,3.5c-0.1,1.3-0.2,2.6-0.3,4.1c-0.1,1.4-0.2,2.9-0.2,4.4c-0.1,1.5-0.1,3-0.1,4.4c0,1.8,0,3.3,0.1,4.6
			c0.1,1.3,0.2,2.4,0.3,3.2c0.1,0.9,0.3,1.6,0.5,2.1c0.2,0.5,0.4,0.9,0.7,1.2c0.3,0.3,0.6,0.5,1,0.6c0.4,0.1,0.8,0.1,1.3,0.1
			c0.9,0,1.7-0.1,2.6-0.4c0.9-0.2,1.9-0.6,2.9-1.1L857.6,224.2"/>
		<path fill="#C18B2C" d="M862,212c0-1.8,0.2-3.6,0.6-5.5c0.4-1.9,0.9-3.7,1.7-5.4c0.7-1.7,1.6-3.4,2.7-4.9c1.1-1.5,2.3-2.9,3.7-4
			c1.4-1.1,3-2.1,4.7-2.7c1.7-0.7,3.6-1,5.7-1c2.3,0,4.3,0.5,6.1,1.5c1.8,1,3.2,2.2,4.4,3.8c1.2,1.6,2.1,3.4,2.7,5.4
			c0.6,2,0.9,4.1,0.9,6.2c0,1.8-0.2,3.6-0.6,5.5c-0.4,1.9-0.9,3.7-1.7,5.4c-0.7,1.7-1.7,3.4-2.7,4.9c-1.1,1.5-2.3,2.9-3.7,4
			c-1.4,1.1-3,2-4.7,2.7c-1.7,0.7-3.6,1-5.7,1c-2.3,0-4.3-0.5-6.1-1.5c-1.8-1-3.2-2.2-4.4-3.8c-1.2-1.6-2.1-3.4-2.7-5.4
			C862.3,216.2,862,214.1,862,212 M868.4,209.5c0,1.2,0.1,2.5,0.3,3.7c0.2,1.2,0.5,2.5,0.9,3.6c0.4,1.2,0.9,2.2,1.5,3.3
			c0.6,1,1.3,1.9,2.1,2.6c0.8,0.7,1.7,1.3,2.7,1.8c1,0.4,2.1,0.6,3.3,0.6c1.3,0,2.5-0.3,3.5-0.8c1-0.6,1.9-1.3,2.6-2.2
			c0.7-0.9,1.3-2,1.8-3.2c0.5-1.2,0.9-2.4,1.1-3.7c0.3-1.3,0.5-2.5,0.6-3.8c0.1-1.2,0.2-2.4,0.2-3.5c0-1.2-0.1-2.5-0.3-3.7
			c-0.2-1.2-0.5-2.4-0.9-3.6c-0.4-1.1-0.9-2.2-1.5-3.2c-0.6-1-1.3-1.9-2.1-2.6c-0.8-0.7-1.7-1.3-2.7-1.8c-1-0.4-2.1-0.6-3.3-0.6
			c-1.3,0-2.5,0.3-3.5,0.8c-1,0.6-1.8,1.3-2.6,2.2c-0.7,0.9-1.3,2-1.8,3.2c-0.5,1.2-0.9,2.4-1.1,3.7c-0.3,1.3-0.5,2.5-0.6,3.8
			C868.4,207.3,868.4,208.4,868.4,209.5z"/>
		<path fill="#C18B2C" d="M906.4,196.6c0-0.6,0-1.1-0.1-1.6c0-0.5-0.2-0.9-0.3-1.2c-0.2-0.3-0.4-0.6-0.8-0.8
			c-0.3-0.2-0.8-0.3-1.4-0.3c-0.6,0-1.3,0.1-2.1,0.2c-0.8,0.2-1.9,0.4-3.2,0.7l-0.4-1.9c3-1,5.5-1.8,7.4-2.3c1.9-0.5,3.2-0.7,4-0.7
			c0.5,0,0.9,0.1,1.3,0.2c0.4,0.1,0.8,0.4,1.1,0.7c0.3,0.3,0.6,0.7,0.7,1.3c0.2,0.5,0.3,1.2,0.3,1.9c0,1.4-0.1,2.9-0.2,4.4
			c-0.1,1.6-0.2,3.2-0.2,5c0,0.6,0,1.4,0.1,2.2c0.1,0.8,0.3,1.6,0.7,2.3c0.4,0.7,1,1.3,1.8,1.8c0.8,0.5,1.9,0.7,3.3,0.7
			c1.2,0,2.6-0.2,4.2-0.5c1.6-0.3,3.5-1,5.6-2c0-1.4,0.1-2.8,0.1-4.2c0-1.4,0.1-2.8,0.1-4.1c0-1.3,0.1-2.6,0.1-3.8
			c0-1.2,0.1-2.3,0.1-3.3c0-0.5,0.1-0.9,0.3-1.2c0.2-0.3,0.5-0.6,0.8-0.7c0.3-0.2,0.7-0.3,1-0.3c0.4-0.1,0.7-0.1,1.1-0.1
			c0.6,0,1.2,0.1,1.7,0.2c0.5,0.1,1,0.3,1.6,0.6c-0.2,2.1-0.3,4.1-0.5,6.2c-0.2,2-0.3,4-0.4,6c-0.1,1.9-0.2,3.8-0.3,5.6
			c-0.1,1.8-0.1,3.5-0.1,5c0,1.8,0,3.3,0,4.6c0,1.3,0.1,2.3,0.2,3.2c0.1,0.9,0.2,1.6,0.3,2.1c0.1,0.5,0.3,0.9,0.6,1.2
			c0.2,0.3,0.5,0.5,0.9,0.6c0.3,0.1,0.7,0.1,1.2,0.1c0.9,0,1.8-0.1,2.8-0.4c1-0.3,2-0.6,3.1-1.1l0.5,1.4c-0.4,0.3-1,0.7-1.6,1
			c-0.6,0.4-1.3,0.7-2,1c-0.7,0.3-1.4,0.7-2.1,1c-0.7,0.3-1.5,0.6-2.2,0.8c-0.7,0.2-1.4,0.4-2,0.5c-0.6,0.1-1.2,0.2-1.6,0.2
			c-0.5,0-1,0-1.3-0.1c-0.4-0.1-0.7-0.3-1-0.6s-0.5-0.8-0.7-1.4c-0.2-0.6-0.4-1.5-0.5-2.6c-0.1-1.1-0.2-2.4-0.3-4.1
			c-0.1-1.6-0.1-3.6-0.1-5.9v-4.6c-2.1,1.1-4.3,2-6.4,2.6c-2.1,0.6-4.2,0.9-6.1,0.9c-1.3,0-2.6-0.2-3.7-0.5
			c-1.1-0.3-2.1-0.8-2.9-1.4c-0.8-0.6-1.5-1.5-1.9-2.5c-0.5-1-0.7-2.2-0.7-3.6c0-1,0-1.9,0-2.6c0-0.7,0-1.3,0.1-1.9
			c0-0.6,0-1.2,0.1-1.8C906.4,198,906.4,197.4,906.4,196.6"/>
		<path fill="#C18B2C" d="M953.3,196.6c0-0.6,0-1.1-0.1-1.6c-0.1-0.5-0.2-0.9-0.4-1.2c-0.2-0.3-0.5-0.6-0.8-0.8
			c-0.4-0.2-0.8-0.3-1.4-0.3c-0.6,0-1.3,0.1-2.1,0.2c-0.9,0.2-1.9,0.4-3.2,0.7l-0.4-1.9c3-1,5.5-1.8,7.4-2.3c1.9-0.5,3.2-0.7,4-0.7
			c0.5,0,0.9,0.1,1.3,0.2c0.4,0.1,0.8,0.4,1.1,0.7c0.3,0.3,0.6,0.7,0.7,1.3c0.2,0.5,0.3,1.2,0.3,1.9c0,0.2,0,0.8-0.1,1.6
			c0,0.8-0.1,1.8-0.2,3.1c-0.1,1.2-0.2,2.6-0.3,4.1c-0.1,1.5-0.2,3.1-0.3,4.7c1.6-0.1,3.2-0.1,4.7-0.2c1.5-0.1,3-0.1,4.5-0.1
			c1.5,0,3-0.1,4.5-0.1c1.5,0,3,0,4.5-0.1c0.1-2.2,0.1-4.5,0.2-6.9c0.1-2.4,0.2-4.9,0.4-7.7c0-0.5,0.2-0.9,0.4-1.2
			c0.2-0.3,0.5-0.6,0.9-0.7c0.3-0.2,0.7-0.3,1.1-0.3c0.4-0.1,0.7-0.1,1.1-0.1c0.6,0,1.2,0.1,1.7,0.2c0.5,0.1,1.1,0.3,1.6,0.6
			c-0.3,2.1-0.5,4.1-0.7,6.2c-0.2,2-0.4,4-0.5,5.9c-0.1,1.9-0.2,3.7-0.3,5.4c-0.1,1.7-0.1,3.2-0.1,4.6c0,1.9,0,3.5,0.1,4.8
			c0.1,1.4,0.1,2.5,0.3,3.4c0.1,0.9,0.3,1.7,0.5,2.2c0.2,0.6,0.5,1,0.7,1.3c0.3,0.3,0.6,0.5,1,0.6c0.4,0.1,0.8,0.1,1.2,0.1
			c0.9,0,1.8-0.1,2.7-0.4c0.9-0.3,1.9-0.6,2.9-1.1l0.5,1.4c-0.6,0.5-1.5,1-2.4,1.6c-1,0.5-2,1-3.1,1.5c-1.1,0.4-2.1,0.8-3.1,1.1
			c-1,0.3-1.9,0.4-2.6,0.4c-0.5,0-1,0-1.4-0.1c-0.4-0.1-0.8-0.3-1.1-0.6c-0.3-0.3-0.6-0.8-0.9-1.4c-0.3-0.6-0.5-1.5-0.6-2.6
			c-0.2-1.1-0.3-2.4-0.4-4.1c-0.1-1.6-0.1-3.6-0.1-5.9v-2.4c0-0.4,0-0.9,0-1.4c0-0.5,0-0.9,0-1.4c-3.1,0-6.1,0-9,0.1
			c-3,0.1-6,0.2-9.3,0.4c-0.1,2.8-0.3,5.8-0.3,8.8c-0.1,3.1-0.1,6.2-0.2,9.4l-5.8,0.7l-0.4,0c0.1-1.7,0.2-3.6,0.4-5.7
			c0.1-2,0.2-4.1,0.3-6.2c0.1-2.1,0.2-4.2,0.3-6.2c0.1-2,0.1-3.9,0.2-5.7c0.1-1.7,0.1-3.3,0.1-4.6
			C953.3,198.3,953.3,197.3,953.3,196.6"/>
		<path fill="#C18B2C" d="M996.9,212c0-1.8,0.2-3.6,0.6-5.5c0.4-1.9,0.9-3.7,1.7-5.4c0.7-1.7,1.6-3.4,2.7-4.9c1.1-1.5,2.3-2.9,3.7-4
			c1.4-1.1,3-2.1,4.7-2.7c1.7-0.7,3.6-1,5.7-1c2.3,0,4.3,0.5,6.1,1.5c1.8,1,3.2,2.2,4.4,3.8c1.2,1.6,2.1,3.4,2.7,5.4
			c0.6,2,0.9,4.1,0.9,6.2c0,1.8-0.2,3.6-0.6,5.5c-0.4,1.9-0.9,3.7-1.7,5.4c-0.7,1.7-1.7,3.4-2.7,4.9c-1.1,1.5-2.3,2.9-3.7,4
			c-1.4,1.1-3,2-4.7,2.7c-1.7,0.7-3.6,1-5.7,1c-2.3,0-4.3-0.5-6.1-1.5c-1.8-1-3.2-2.2-4.4-3.8c-1.2-1.6-2.1-3.4-2.7-5.4
			C997.2,216.2,996.9,214.1,996.9,212 M1003.3,209.5c0,1.2,0.1,2.5,0.3,3.7c0.2,1.2,0.5,2.5,0.9,3.6c0.4,1.2,0.9,2.2,1.5,3.3
			c0.6,1,1.3,1.9,2.1,2.6c0.8,0.7,1.7,1.3,2.7,1.8c1,0.4,2.1,0.6,3.3,0.6c1.3,0,2.5-0.3,3.5-0.8c1-0.6,1.8-1.3,2.6-2.2
			c0.7-0.9,1.3-2,1.8-3.2c0.5-1.2,0.9-2.4,1.1-3.7c0.3-1.3,0.5-2.5,0.6-3.8c0.1-1.2,0.2-2.4,0.2-3.5c0-1.2-0.1-2.5-0.3-3.7
			c-0.2-1.2-0.5-2.4-0.9-3.6c-0.4-1.1-0.9-2.2-1.5-3.2c-0.6-1-1.3-1.9-2.1-2.6s-1.7-1.3-2.7-1.8c-1-0.4-2.1-0.6-3.3-0.6
			c-1.3,0-2.5,0.3-3.5,0.8c-1,0.6-1.8,1.3-2.6,2.2c-0.7,0.9-1.3,2-1.8,3.2c-0.5,1.2-0.9,2.4-1.1,3.7c-0.3,1.3-0.5,2.5-0.6,3.8
			C1003.3,207.3,1003.3,208.4,1003.3,209.5z"/>
		<path fill="#C18B2C" d="M1044.5,228.5c-0.6,0-1.2-0.1-1.7-0.4c-0.5-0.3-0.9-0.6-1.3-1c-0.3-0.4-0.6-0.9-0.8-1.5
			c-0.2-0.6-0.3-1.1-0.3-1.7c0-0.8,0.1-1.5,0.4-2.2c0.3-0.6,0.6-1.2,1.1-1.6c0.4-0.4,0.9-0.7,1.5-1c0.5-0.2,1.1-0.3,1.6-0.3
			c0.6,0,1.2,0.1,1.7,0.4c0.5,0.2,0.9,0.5,1.3,0.9c0.4,0.4,0.6,0.8,0.8,1.4c0.2,0.5,0.3,1.1,0.3,1.7c0,0.6-0.1,1.3-0.3,1.9
			c-0.2,0.6-0.5,1.2-0.9,1.7c-0.4,0.5-0.9,0.9-1.5,1.2C1045.8,228.4,1045.1,228.5,1044.5,228.5"/>
	</g>
	<g>
		<g>
			<defs>
				<path id="SVGID_10_" d="M476.6,120.1c0.6-4.8,0.6-13.8,0.6-24.7v-20c0-17.8,0-21-0.2-24.6c-0.2-3.9-1.1-5.7-4.9-6.5
					c-0.9-0.2-2.8-0.3-3.9-0.3c-0.5,0-0.9-0.2-0.9-0.7c0-0.7,0.6-0.9,1.8-0.9c5.1,0,12.3,0.3,12.9,0.3c0.6,0,7.7-0.3,11.2-0.3
					c1.3,0,1.8,0.2,1.8,0.9c0,0.5-0.5,0.7-0.9,0.7c-0.8,0-1.5,0.1-2.8,0.3c-3.1,0.6-4,2.5-4.2,6.5c-0.2,3.6-0.2,6.8-0.2,24.6v20
					c0,8.7,0,16.1,0.2,21.2c-0.2,9.2,5.9,7.2,7.5,7.1c3.4-0.2,5.2-0.9,5.9-0.9c0.6,0,0.5,0.7,0.3,1.4c-0.7,3.4-2.3,11.8-2.5,13.1
					c-0.2,1-0.5,1.5-1.1,1.5c-0.6,0-0.9-0.3-0.8-1.9c0-0.3,0-0.8,0-1.3c0-3.5,0.3-7.4-8.9-7.4c-1.8,0-3.8,0-5.5,0
					c-0.5,0-4.6,0.2-8.1,0.3h-41.4c-4.9-0.1-9.2-0.3-9.7-0.3c-0.6,0-7.7,0.3-11.2,0.3c-1.3,0-1.8-0.2-1.8-0.9c0-0.3,0.2-0.7,0.9-0.7
					c1,0,2.4-0.2,3.4-0.5c2.3-0.5,2.8-3,3.3-6.3c0.6-4.8,0.6-13.8,0.6-24.7v-20c0-17.8,0-21-0.2-24.6c-0.2-3.9-1.1-5.7-4.9-6.5
					c-0.9-0.2-2.8-0.3-3.9-0.3c-0.5,0-0.9-0.2-0.9-0.7c0-0.7,0.6-0.9,1.8-0.9c5.1,0,12.3,0.3,12.9,0.3c0.6,0,7.7-0.3,11.2-0.3
					c1.3,0,1.8,0.2,1.8,0.9c0,0.5-0.5,0.7-0.9,0.7c-0.8,0-1.5,0.1-2.8,0.3c-3.1,0.6-4,2.5-4.2,6.5c-0.2,3.6-0.2,6.7-0.2,44.6
					c0,10.9,0,19.9,0.6,24.7c0.1,1.6,0.3,3,0.9,4c15.6,1,31.2,0.8,46.8,0C476.3,123,476.4,121.6,476.6,120.1"/>
			</defs>
			<use xlink:href="#SVGID_10_"  overflow="visible" fill="#C18B2C"/>
			<clipPath id="SVGID_11_">
				<use xlink:href="#SVGID_10_"  overflow="visible"/>
			</clipPath>
			<rect x="408.1" y="42.3" clip-path="url(#SVGID_11_)" fill="#C18B2C" width="92.9" height="96.3"/>
		</g>
		<g>
			<defs>
				<path id="SVGID_9_" d="M576.3,103.9c0,12.2-9.6,24.8-29,24.8c-2.6,0-14.2-0.7-15.1-0.7c-0.6,0-7.7,0.3-11.2,0.3
					c-1.3,0-1.8-0.2-1.8-0.9c0-0.3,0.2-0.7,0.9-0.7c1,0,2.4-0.1,3.4-0.5c1.8-0.6,2.4-1.6,3.1-4.9c0.6-3,0.8-12.2,0.8-26.1v-20
					c0-19.1-0.1-23.9-0.3-25.9c-0.3-2.7-1-4.4-4.8-5.2c-0.9-0.2-2.9-0.3-3.9-0.3c-0.5,0-0.9-0.2-0.9-0.7c0-0.7,0.6-0.9,1.8-0.9
					c5.1,0,12.3,0.3,12.9,0.3c2.7,0,7.2-0.3,12.4-0.3c18.7,0,22.8,11.4,22.8,17.1c0,9.3-5.4,14.9-10.7,20.5
					C565,82.5,576.3,90.6,576.3,103.9 M536.5,77.8c0,0.8,0.2,1,0.8,1.2c0.7,0.1,2.7,0.5,6.9,0.5c6.4,0,8-0.2,10.4-3
					c2.4-2.7,4.1-6.8,4.1-11.5c0-9.4-4.2-19.6-15.4-19.6c-1.3,0-3.6,0.1-5.5,0.6c-1,0.2-1.4,0.6-1.4,1.3V77.8z M536.5,111.1
					c0,8.5,0.5,10.6,4,12.3c3.1,1.5,8,1.7,10,1.7c6.2,0,16.1-3.3,16.1-16.2c0-6.8-2.3-17-11-23c-4.4-3-8.1-3.4-12.2-3.4
					c-6.7,0-6.8,0.1-6.8,0.9V111.1z"/>
			</defs>
			<use xlink:href="#SVGID_9_"  overflow="visible" fill="#C18B2C"/>
			<clipPath id="SVGID_12_">
				<use xlink:href="#SVGID_9_"  overflow="visible"/>
			</clipPath>
			<rect x="517.4" y="42.3" clip-path="url(#SVGID_12_)" fill="#C18B2C" width="58.9" height="86.4"/>
		</g>
		<g>
			<defs>
				<path id="SVGID_8_" d="M615.2,79.3c0,0.8,0.1,1.1,0.7,1.1c1.5,0,15.5,0,18.1-0.2c2.7-0.2,4.3-0.5,5.4-1.6
					c0.8-0.9,1.3-1.5,1.7-1.5c0.3,0,0.6,0.2,0.6,0.9c0,0.5-1.4,8.1-1.4,13.7c0,1.3-0.1,2.2-0.8,2.2c-0.6,0-0.8-0.5-0.8-1
					c0-1.1,0-2.3-0.4-3.8c-0.5-1.6-1.5-3.5-5.9-4c-3.1-0.3-14.4-0.6-16.3-0.6c-0.6,0-0.8,0.3-0.8,0.8v29.5c0,7.5,2.1,9.3,13.2,9.3
					c3,0,8,0,10.9-1.2c3-1.3,4.3-3.5,5.1-8.2c0.2-1.2,0.5-1.7,1-1.7c0.7,0,0.7,0.9,0.7,1.7c0,0.9-0.9,8.7-1.5,11.1
					c-0.8,3-1.7,3-6.1,3c-17.2,0-24.8-0.7-28.1-0.7c-3,0-8.7,0.3-11.2,0.3c-1.3,0-1.8-0.2-1.8-0.9c0-0.3,0.2-0.7,0.9-0.7
					c1,0,2.4-0.1,3.4-0.5c1.8-0.6,2.4-1.6,3.1-4.9c0.6-3,0.8-12.2,0.8-26.1v-20c0-19.1-0.1-23.9-0.3-25.9c-0.3-2.7-1-4.4-4.8-5.2
					c-0.9-0.2-2.8-0.3-3.9-0.3c-0.5,0-0.9-0.2-0.9-0.7c0-0.7,0.6-0.9,1.8-0.9c5.1,0,12.3,0.3,12.9,0.3c12.3,0,23.9-0.1,25.7-0.2
					c1.8-0.1,4.6-0.3,5-0.5c0.7-0.2,1.1-0.7,1.6-0.7s0.7,0.7,0.7,1.3c0,0.8-0.6,2.2-0.9,5.3c-0.1,1.1-0.3,6.2-0.6,7.5
					c-0.1,0.6-0.3,1.1-0.9,1.1c-0.6,0-0.8-0.5-0.8-1.3c0-0.9-0.3-2.8-1-4.3c-0.7-1.5-3.4-3.8-10.1-3.8c-0.7,0-10.9-0.3-13.2-0.3
					c-0.5,0-0.7,0.2-0.7,1V79.3"/>
			</defs>
			<use xlink:href="#SVGID_8_"  overflow="visible" fill="#C18B2C"/>
			<clipPath id="SVGID_13_">
				<use xlink:href="#SVGID_8_"  overflow="visible"/>
			</clipPath>
			<rect x="595.7" y="41.3" clip-path="url(#SVGID_13_)" fill="#C18B2C" width="50.5" height="87.5"/>
		</g>
		<g>
			<defs>
				<path id="SVGID_7_" d="M699.4,95.3c0,10.9,0,19.9,0.6,24.7c0.3,3.3,1,5.8,4.4,6.3c1.6,0.2,4.1,0.5,5.1,0.5
					c0.7,0,0.9,0.3,0.9,0.7c0,0.6-0.6,0.9-1.8,0.9c-6.3,0-13.4-0.3-14-0.3c-0.6,0-7.7,0.3-11.2,0.3c-1.2,0-1.8-0.2-1.8-0.9
					c0-0.3,0.2-0.7,0.9-0.7c1,0,2.4-0.2,3.4-0.5c2.3-0.5,2.8-3,3.3-6.3c0.6-4.8,0.6-13.8,0.6-24.7V47.2l-16.9,0.2
					c-7.1,0.1-9.8,0.9-11.6,3.6c-1.3,1.9-1.6,2.7-1.9,3.5c-0.3,0.9-0.7,1.1-1.1,1.1c-0.3,0-0.6-0.3-0.6-1c0-1.1,2.3-10.9,2.5-11.8
					c0.2-0.7,0.7-2.2,1.1-2.2c0.8,0,1.9,1.1,5,1.4c3.3,0.3,7.6,0.6,9,0.6H718c7.3,0,10.4-1.1,11.3-1.1c0.6,0,0.6,0.7,0.6,1.4
					c0,3.4-0.3,11.3-0.3,12.5c0,1-0.3,1.5-0.8,1.5c-0.6,0-0.8-0.3-0.9-1.9l-0.1-1.3c-0.5-3.4-3.1-6-14-6.3l-14.3-0.2V95.3"/>
			</defs>
			<use xlink:href="#SVGID_7_"  overflow="visible" fill="#C18B2C"/>
			<clipPath id="SVGID_14_">
				<use xlink:href="#SVGID_7_"  overflow="visible"/>
			</clipPath>
			<rect x="657.7" y="40.7" clip-path="url(#SVGID_14_)" fill="#C18B2C" width="72.2" height="87.7"/>
		</g>
		<g>
			<defs>
				<path id="SVGID_6_" d="M785.7,40.7c25.6,0,44.8,16.2,44.8,42.7c0,25.5-18,46.6-45.4,46.6c-31.2,0-44.2-24.3-44.2-44.8
					C740.9,66.8,754.3,40.7,785.7,40.7 M788.1,125.6c10.3,0,31.4-5.9,31.4-39.1c0-27.3-16.6-42-34.6-42c-19,0-33.3,12.5-33.3,37.5
					C751.7,108.6,767.6,125.6,788.1,125.6z"/>
			</defs>
			<use xlink:href="#SVGID_6_"  overflow="visible" fill="#C18B2C"/>
			<clipPath id="SVGID_15_">
				<use xlink:href="#SVGID_6_"  overflow="visible"/>
			</clipPath>
			<rect x="740.9" y="40.7" clip-path="url(#SVGID_15_)" fill="#C18B2C" width="89.6" height="89.3"/>
		</g>
		<g>
			<defs>
				<path id="SVGID_5_" d="M909,95.3c0,10.9,0,19.9,0.6,24.7c0.3,3.3,1,5.8,4.4,6.3c1.6,0.2,4.1,0.5,5.1,0.5c0.7,0,0.9,0.3,0.9,0.7
					c0,0.6-0.6,0.9-1.8,0.9c-6.3,0-13.4-0.3-14-0.3c-0.6,0-7.7,0.3-11.2,0.3c-1.2,0-1.8-0.2-1.8-0.9c0-0.3,0.2-0.7,0.9-0.7
					c1,0,2.4-0.2,3.4-0.5c2.3-0.5,2.8-3,3.3-6.3c0.6-4.8,0.7-17.5,0.7-31.4c-1.4,0.8-10.4,4-15.9,4c-2.5,0-9.7-0.1-15.7-2.7
					c-4.2-1.8-7.2-4.1-10-9.2c-2.5-4.4-3.3-12.2-3.4-20.2l-0.1-9.8c-0.2-3.9-1.2-5.7-4.9-6.5c-0.9-0.2-2.8-0.3-3.9-0.3
					c-0.5,0-0.9-0.2-0.9-0.7c0-0.7,0.6-0.9,1.8-0.9c5.1,0,12.1,0.3,13.1,0.3c1,0,7.9-0.3,11.3-0.3c1.3,0,1.8,0.2,1.8,0.9
					c0,0.5-0.5,0.7-0.9,0.7c-0.8,0-1.5,0.1-2.8,0.3c-3.1,0.5-4,2.5-4.2,6.5l-0.3,9.1c0,6.9,0.2,13.8,1.9,17.7
					c1.7,3.8,4.3,5.8,6.9,7.5c4,2.6,9.2,2.3,13.3,2.3c3.6,0,8.9-0.7,13-3.2l-0.3-33.4c-0.1-3.9-1.4-5.8-3.9-6.4
					c-1.3-0.3-2.7-0.5-3.5-0.5c-0.5,0-0.9-0.2-0.9-0.7c0-0.7,0.6-0.9,1.8-0.9c3.8,0,10.9,0.3,11.5,0.3c0.6,0,7.8-0.3,11.2-0.3
					c1.3,0,1.8,0.2,1.8,0.9c0,0.5-0.5,0.7-0.9,0.7c-0.8,0-1.5,0.1-2.9,0.3c-3.1,0.6-4,2.5-4.2,6.5c-0.2,3.6-0.2,6.8-0.2,24.6V95.3"
					/>
			</defs>
			<use xlink:href="#SVGID_5_"  overflow="visible" fill="#C18B2C"/>
			<clipPath id="SVGID_16_">
				<use xlink:href="#SVGID_5_"  overflow="visible"/>
			</clipPath>
			<rect x="844.7" y="42.3" clip-path="url(#SVGID_16_)" fill="#C18B2C" width="75.4" height="86.1"/>
		</g>
		<g>
			<defs>
				<path id="SVGID_4_" d="M1019.5,95.3c0,10.9,0,19.9,0.6,24.7c0.3,3.3,1,5.8,4.4,6.3c1.6,0.2,4.1,0.5,5.1,0.5
					c0.7,0,0.9,0.3,0.9,0.7c0,0.6-0.6,0.9-1.8,0.9c-6.3,0-13.4-0.3-14-0.3c-0.6,0-7.7,0.3-11.2,0.3c-1.3,0-1.8-0.2-1.8-0.9
					c0-0.3,0.2-0.7,0.9-0.7c1,0,2.4-0.2,3.4-0.5c2.3-0.5,2.9-3,3.3-6.3c0.6-4.8,0.6-13.8,0.6-24.7V84.6c0-0.4-0.3-0.7-0.7-0.7H961
					c-0.3,0-0.7,0.1-0.7,0.7v10.7c0,10.9,0,19.9,0.6,24.7c0.3,3.3,1,5.8,4.4,6.3c1.6,0.2,4.1,0.5,5.1,0.5c0.7,0,0.9,0.3,0.9,0.7
					c0,0.6-0.6,0.9-1.8,0.9c-6.3,0-13.4-0.3-14-0.3c-0.6,0-7.7,0.3-11.2,0.3c-1.3,0-1.8-0.2-1.8-0.9c0-0.3,0.2-0.7,0.9-0.7
					c1,0,2.4-0.2,3.4-0.5c2.3-0.5,2.8-3,3.3-6.3c0.6-4.8,0.6-13.8,0.6-24.7v-20c0-17.8,0-21-0.2-24.6c-0.2-3.9-1.1-5.7-4.9-6.5
					c-0.9-0.2-2.8-0.3-3.9-0.3c-0.5,0-0.9-0.2-0.9-0.7c0-0.7,0.6-0.9,1.8-0.9c5.1,0,12.3,0.3,12.9,0.3c0.6,0,7.7-0.3,11.2-0.3
					c1.2,0,1.8,0.2,1.8,0.9c0,0.5-0.5,0.7-0.9,0.7c-0.8,0-1.5,0.1-2.9,0.3c-3.1,0.6-4,2.5-4.2,6.5c-0.2,3.6-0.2,8.1-0.2,25.9v2.4
					c0,0.6,0.3,0.7,0.7,0.7h48.3c0.3,0,0.7-0.1,0.7-0.7v-2.4c0-17.8,0-22.2-0.2-25.9c-0.2-3.9-1.1-5.7-4.9-6.5
					c-0.9-0.2-2.8-0.3-3.9-0.3c-0.5,0-0.9-0.2-0.9-0.7c0-0.7,0.6-0.9,1.8-0.9c5.1,0,12.3,0.3,12.9,0.3c0.6,0,7.7-0.3,11.2-0.3
					c1.3,0,1.8,0.2,1.8,0.9c0,0.5-0.5,0.7-0.9,0.7c-0.8,0-1.5,0.1-2.9,0.3c-3.1,0.6-4,2.5-4.2,6.5c-0.2,3.6-0.2,6.8-0.2,24.6V95.3"
					/>
			</defs>
			<use xlink:href="#SVGID_4_"  overflow="visible" fill="#C18B2C"/>
			<clipPath id="SVGID_17_">
				<use xlink:href="#SVGID_4_"  overflow="visible"/>
			</clipPath>
			<rect x="940.8" y="42.3" clip-path="url(#SVGID_17_)" fill="#C18B2C" width="89.7" height="86.1"/>
		</g>
		<g>
			<defs>
				<path id="SVGID_3_" d="M1060.1,75.3c-0.2-17.8,0-21-0.2-24.6c-0.2-3.9-1.1-5.7-4.9-6.5c-0.9-0.2-2.9-0.3-3.9-0.3
					c-0.5,0-0.9-0.2-0.9-0.7c0-0.7,0.6-0.9,1.8-0.9c5.1,0,12.3,0.3,12.9,0.3s7.7-0.3,11.2-0.3c1.3,0,1.8,0.2,1.8,0.9
					c0,0.5-0.5,0.7-0.9,0.7c-0.8,0-1.5,0.1-2.8,0.3c-3.1,0.6-4,2.5-4.2,6.5c-0.2,3.6-0.2,21.3-0.2,58.9c0,0.9,0.6,1,1,0.5
					c16.2-18.8,32.1-37.8,55.5-68c1.5-2.4,3.3-1.9,2.7,1.8c0,10.5,0,16.2,0,31.4v20c0,10.9,0,19.9,0.6,24.7c0.3,3.3,1,5.8,4.4,6.3
					c1.6,0.2,4.1,0.5,5.1,0.5c0.7,0,0.9,0.3,0.9,0.7c0,0.6-0.6,0.9-1.8,0.9c-6.3,0-13.4-0.3-14-0.3c-0.6,0-7.7,0.3-11.2,0.3
					c-1.3,0-1.8-0.2-1.8-0.9c0-0.3,0.2-0.7,0.9-0.7c1,0,2.4-0.2,3.4-0.5c2.3-0.5,2.8-3,3.3-6.3c0.6-4.8,0.6-13.8,0.6-24.7V62.4
					c0-1.4-0.6-2.1-1.6-0.8c-15,17.5-30,35.4-44.1,53.9l-9.5,12.2l-1.4,1.8c-1.5,2.4-3.3,1.9-2.7-1.8V75.3"/>
			</defs>
			<use xlink:href="#SVGID_3_"  overflow="visible" fill="#C18B2C"/>
			<clipPath id="SVGID_18_">
				<use xlink:href="#SVGID_3_"  overflow="visible"/>
			</clipPath>
			<rect x="1050.2" y="39.7" clip-path="url(#SVGID_18_)" fill="#C18B2C" width="89.7" height="92.2"/>
		</g>
		<g>
			<defs>
				<path id="SVGID_2_" d="M1228.1,120.1c0.6-4.8,0.6-13.8,0.6-24.7v-20c0-17.8,0-21-0.2-24.6c-0.2-3.9-1.1-5.7-4.9-6.5
					c-0.9-0.2-2.9-0.3-3.9-0.3c-0.5,0-0.9-0.2-0.9-0.7c0-0.7,0.6-0.9,1.8-0.9c5.1,0,12.3,0.3,12.9,0.3c0.6,0,7.8-0.3,11.2-0.3
					c1.3,0,1.8,0.2,1.8,0.9c0,0.5-0.5,0.7-0.9,0.7c-0.8,0-1.5,0.1-2.8,0.3c-3.1,0.6-4,2.5-4.2,6.5c-0.2,3.6-0.2,6.8-0.2,24.6v20
					c0,8.7,0,16.1,0.2,21.2c-0.2,9.2,5.9,7.2,7.5,7.1c3.4-0.2,5.2-0.9,5.9-0.9c0.6,0,0.5,0.7,0.3,1.4c-0.7,3.4-2.3,11.8-2.5,13.1
					c-0.2,1-0.5,1.5-1.1,1.5c-0.6,0-0.9-0.3-0.8-1.9c0-0.3,0-0.8,0-1.3c0-3.5,0.3-7.4-8.9-7.4c-1.8,0-3.8,0-5.5,0
					c-0.5,0-4.5,0.2-8.1,0.3h-41.4c-4.9-0.1-9.2-0.3-9.7-0.3c-0.6,0-7.8,0.3-11.2,0.3c-1.3,0-1.8-0.2-1.8-0.9c0-0.3,0.2-0.7,0.9-0.7
					c1,0,2.4-0.2,3.4-0.5c2.3-0.5,2.9-3,3.3-6.3c0.6-4.8,0.6-13.8,0.6-24.7v-20c0-17.8,0-21-0.2-24.6c-0.2-3.9-1.1-5.7-4.9-6.5
					c-0.9-0.2-2.9-0.3-3.9-0.3c-0.5,0-0.9-0.2-0.9-0.7c0-0.7,0.6-0.9,1.8-0.9c5.1,0,12.3,0.3,12.9,0.3c0.6,0,7.7-0.3,11.2-0.3
					c1.3,0,1.8,0.2,1.8,0.9c0,0.5-0.5,0.7-0.9,0.7c-0.8,0-1.5,0.1-2.8,0.3c-3.1,0.6-4,2.5-4.2,6.5c-0.2,3.6-0.2,6.7-0.2,44.6
					c0,10.9,0,19.9,0.6,24.7c0.1,1.6,0.3,3,0.9,4c15.6,1,31.2,0.8,46.8,0C1227.8,123,1227.9,121.6,1228.1,120.1"/>
			</defs>
			<use xlink:href="#SVGID_2_"  overflow="visible" fill="#C18B2C"/>
			<clipPath id="SVGID_19_">
				<use xlink:href="#SVGID_2_"  overflow="visible"/>
			</clipPath>
			<rect x="1159.6" y="42.3" clip-path="url(#SVGID_19_)" fill="#C18B2C" width="92.9" height="96.3"/>
		</g>
		<g>
			<defs>
				<path id="SVGID_1_" d="M1300.3,44.8c1.7,4.3,19.6,51.4,26.5,68.7c4.1,10.1,7.4,12,9.8,12.6c1.7,0.6,3.4,0.7,4.6,0.7
					c0.7,0,1.1,0.1,1.1,0.7c0,0.7-1,0.9-2.3,0.9c-1.7,0-10,0-17.9-0.2c-2.2-0.1-3.4-0.1-3.4-0.8c0-0.5,0.5-0.8,0.8-0.8
					c0.2,0,0.9-0.6,0.9-1.6c0-0.3,0-1-0.2-1.5l-10.6-28c-0.2-0.5-0.5-0.7-1-0.7h-24.5c-0.6,0-0.9,0.3-1.1,0.9l-6.8,20.2
					c-1,2.9-1.6,5.6-1.6,7.6c0,2.3,2.4,3.3,4.3,3.3h1.1c0.8,0,1.1,0.2,1.1,0.7c0,0.7-0.7,0.9-1.7,0.9c-2.7,0-7.6-0.3-8.9-0.3
					c-1.3,0-7.5,0.3-12.9,0.3c-1.5,0-2.2-0.2-2.2-0.9c0-0.5,0.5-0.7,1-0.7c0.8,0,2.4-0.1,3.3-0.2c5.2-0.7,7.5-5,9.6-10.7l25.9-70.7
					c1.4-3.8,1.8-4.4,2.5-4.4C1298.4,40.7,1298.9,41.3,1300.3,44.8 M1307.1,90.7c0.6,0,0.6-0.3,0.5-0.8l-10.8-30.7
					c-0.3-0.9-0.6-1.3-0.9-1.3c-0.2,0-0.6,0.5-0.8,1.3l-10,30.7c-0.2,0.6,0,0.8,0.3,0.8H1307.1z"/>
			</defs>
			<use xlink:href="#SVGID_1_"  overflow="visible" fill="#C18B2C"/>
			<clipPath id="SVGID_20_">
				<use xlink:href="#SVGID_1_"  overflow="visible"/>
			</clipPath>
			<rect x="1255.5" y="40.7" clip-path="url(#SVGID_20_)" fill="#C18B2C" width="86.8" height="87.7"/>
		</g>
		<path fill="#C18B2C" d="M476.6,120.1c0.6-4.8,0.6-13.8,0.6-24.7v-20c0-17.8,0-21-0.2-24.6c-0.2-3.9-1.1-5.7-4.9-6.5
			c-0.9-0.2-2.8-0.3-3.9-0.3c-0.5,0-0.9-0.2-0.9-0.7c0-0.7,0.6-0.9,1.8-0.9c5.1,0,12.3,0.3,12.9,0.3c0.6,0,7.7-0.3,11.2-0.3
			c1.3,0,1.8,0.2,1.8,0.9c0,0.5-0.5,0.7-0.9,0.7c-0.8,0-1.5,0.1-2.8,0.3c-3.1,0.6-4,2.5-4.2,6.5c-0.2,3.6-0.2,6.8-0.2,24.6v20
			c0,8.7,0,16.1,0.2,21.2c-0.2,9.2,5.9,7.2,7.5,7.1c3.4-0.2,5.2-0.9,5.9-0.9c0.6,0,0.5,0.7,0.3,1.4c-0.7,3.4-2.3,11.8-2.5,13.1
			c-0.2,1-0.5,1.5-1.1,1.5c-0.6,0-0.9-0.3-0.8-1.9c0-0.3,0-0.8,0-1.3c0-3.5,0.3-7.4-8.9-7.4c-1.8,0-3.8,0-5.5,0
			c-0.5,0-4.6,0.2-8.1,0.3h-41.4c-4.9-0.1-9.2-0.3-9.7-0.3c-0.6,0-7.7,0.3-11.2,0.3c-1.3,0-1.8-0.2-1.8-0.9c0-0.3,0.2-0.7,0.9-0.7
			c1,0,2.4-0.2,3.4-0.5c2.3-0.5,2.8-3,3.3-6.3c0.6-4.8,0.6-13.8,0.6-24.7v-20c0-17.8,0-21-0.2-24.6c-0.2-3.9-1.1-5.7-4.9-6.5
			c-0.9-0.2-2.8-0.3-3.9-0.3c-0.5,0-0.9-0.2-0.9-0.7c0-0.7,0.6-0.9,1.8-0.9c5.1,0,12.3,0.3,12.9,0.3c0.6,0,7.7-0.3,11.2-0.3
			c1.3,0,1.8,0.2,1.8,0.9c0,0.5-0.5,0.7-0.9,0.7c-0.8,0-1.5,0.1-2.8,0.3c-3.1,0.6-4,2.5-4.2,6.5c-0.2,3.6-0.2,6.7-0.2,44.6
			c0,10.9,0,19.9,0.6,24.7c0.1,1.6,0.3,3,0.9,4c15.6,1,31.2,0.8,46.8,0C476.3,123,476.4,121.6,476.6,120.1"/>
		<path fill="#C18B2C" d="M576.3,103.9c0,12.2-9.6,24.8-29,24.8c-2.6,0-14.2-0.7-15.1-0.7c-0.6,0-7.7,0.3-11.2,0.3
			c-1.3,0-1.8-0.2-1.8-0.9c0-0.3,0.2-0.7,0.9-0.7c1,0,2.4-0.1,3.4-0.5c1.8-0.6,2.4-1.6,3.1-4.9c0.6-3,0.8-12.2,0.8-26.1v-20
			c0-19.1-0.1-23.9-0.3-25.9c-0.3-2.7-1-4.4-4.8-5.2c-0.9-0.2-2.9-0.3-3.9-0.3c-0.5,0-0.9-0.2-0.9-0.7c0-0.7,0.6-0.9,1.8-0.9
			c5.1,0,12.3,0.3,12.9,0.3c2.7,0,7.2-0.3,12.4-0.3c18.7,0,22.8,11.4,22.8,17.1c0,9.3-5.4,14.9-10.7,20.5
			C565,82.5,576.3,90.6,576.3,103.9 M536.5,77.8c0,0.8,0.2,1,0.8,1.2c0.7,0.1,2.7,0.5,6.9,0.5c6.4,0,8-0.2,10.4-3
			c2.4-2.7,4.1-6.8,4.1-11.5c0-9.4-4.2-19.6-15.4-19.6c-1.3,0-3.6,0.1-5.5,0.6c-1,0.2-1.4,0.6-1.4,1.3V77.8z M536.5,111.1
			c0,8.5,0.5,10.6,4,12.3c3.1,1.5,8,1.7,10,1.7c6.2,0,16.1-3.3,16.1-16.2c0-6.8-2.3-17-11-23c-4.4-3-8.1-3.4-12.2-3.4
			c-6.7,0-6.8,0.1-6.8,0.9V111.1z"/>
		<path fill="#C18B2C" d="M615.2,79.3c0,0.8,0.1,1.1,0.7,1.1c1.5,0,15.5,0,18.1-0.2c2.7-0.2,4.3-0.5,5.4-1.6
			c0.8-0.9,1.3-1.5,1.7-1.5c0.3,0,0.6,0.2,0.6,0.9c0,0.5-1.4,8.1-1.4,13.7c0,1.3-0.1,2.2-0.8,2.2c-0.6,0-0.8-0.5-0.8-1
			c0-1.1,0-2.3-0.4-3.8c-0.5-1.6-1.5-3.5-5.9-4c-3.1-0.3-14.4-0.6-16.3-0.6c-0.6,0-0.8,0.3-0.8,0.8v29.5c0,7.5,2.1,9.3,13.2,9.3
			c3,0,8,0,10.9-1.2c3-1.3,4.3-3.5,5.1-8.2c0.2-1.2,0.5-1.7,1-1.7c0.7,0,0.7,0.9,0.7,1.7c0,0.9-0.9,8.7-1.5,11.1c-0.8,3-1.7,3-6.1,3
			c-17.2,0-24.8-0.7-28.1-0.7c-3,0-8.7,0.3-11.2,0.3c-1.3,0-1.8-0.2-1.8-0.9c0-0.3,0.2-0.7,0.9-0.7c1,0,2.4-0.1,3.4-0.5
			c1.8-0.6,2.4-1.6,3.1-4.9c0.6-3,0.8-12.2,0.8-26.1v-20c0-19.1-0.1-23.9-0.3-25.9c-0.3-2.7-1-4.4-4.8-5.2c-0.9-0.2-2.8-0.3-3.9-0.3
			c-0.5,0-0.9-0.2-0.9-0.7c0-0.7,0.6-0.9,1.8-0.9c5.1,0,12.3,0.3,12.9,0.3c12.3,0,23.9-0.1,25.7-0.2c1.8-0.1,4.6-0.3,5-0.5
			c0.7-0.2,1.1-0.7,1.6-0.7s0.7,0.7,0.7,1.3c0,0.8-0.6,2.2-0.9,5.3c-0.1,1.1-0.3,6.2-0.6,7.5c-0.1,0.6-0.3,1.1-0.9,1.1
			c-0.6,0-0.8-0.5-0.8-1.3c0-0.9-0.3-2.8-1-4.3c-0.7-1.5-3.4-3.8-10.1-3.8c-0.7,0-10.9-0.3-13.2-0.3c-0.5,0-0.7,0.2-0.7,1V79.3"/>
		<path fill="#C18B2C" d="M699.4,95.3c0,10.9,0,19.9,0.6,24.7c0.3,3.3,1,5.8,4.4,6.3c1.6,0.2,4.1,0.5,5.1,0.5c0.7,0,0.9,0.3,0.9,0.7
			c0,0.6-0.6,0.9-1.8,0.9c-6.3,0-13.4-0.3-14-0.3c-0.6,0-7.7,0.3-11.2,0.3c-1.2,0-1.8-0.2-1.8-0.9c0-0.3,0.2-0.7,0.9-0.7
			c1,0,2.4-0.2,3.4-0.5c2.3-0.5,2.8-3,3.3-6.3c0.6-4.8,0.6-13.8,0.6-24.7V47.2l-16.9,0.2c-7.1,0.1-9.8,0.9-11.6,3.6
			c-1.3,1.9-1.6,2.7-1.9,3.5c-0.3,0.9-0.7,1.1-1.1,1.1c-0.3,0-0.6-0.3-0.6-1c0-1.1,2.3-10.9,2.5-11.8c0.2-0.7,0.7-2.2,1.1-2.2
			c0.8,0,1.9,1.1,5,1.4c3.3,0.3,7.6,0.6,9,0.6H718c7.3,0,10.4-1.1,11.3-1.1c0.6,0,0.6,0.7,0.6,1.4c0,3.4-0.3,11.3-0.3,12.5
			c0,1-0.3,1.5-0.8,1.5c-0.6,0-0.8-0.3-0.9-1.9l-0.1-1.3c-0.5-3.4-3.1-6-14-6.3l-14.3-0.2V95.3"/>
		<path fill="#C18B2C" d="M785.7,40.7c25.6,0,44.8,16.2,44.8,42.7c0,25.5-18,46.6-45.4,46.6c-31.2,0-44.2-24.3-44.2-44.8
			C740.9,66.8,754.3,40.7,785.7,40.7 M788.1,125.6c10.3,0,31.4-5.9,31.4-39.1c0-27.3-16.6-42-34.6-42c-19,0-33.3,12.5-33.3,37.5
			C751.7,108.6,767.6,125.6,788.1,125.6z"/>
		<path fill="#C18B2C" d="M909,95.3c0,10.9,0,19.9,0.6,24.7c0.3,3.3,1,5.8,4.4,6.3c1.6,0.2,4.1,0.5,5.1,0.5c0.7,0,0.9,0.3,0.9,0.7
			c0,0.6-0.6,0.9-1.8,0.9c-6.3,0-13.4-0.3-14-0.3c-0.6,0-7.7,0.3-11.2,0.3c-1.2,0-1.8-0.2-1.8-0.9c0-0.3,0.2-0.7,0.9-0.7
			c1,0,2.4-0.2,3.4-0.5c2.3-0.5,2.8-3,3.3-6.3c0.6-4.8,0.7-17.5,0.7-31.4c-1.4,0.8-10.4,4-15.9,4c-2.5,0-9.7-0.1-15.7-2.7
			c-4.2-1.8-7.2-4.1-10-9.2c-2.5-4.4-3.3-12.2-3.4-20.2l-0.1-9.8c-0.2-3.9-1.2-5.7-4.9-6.5c-0.9-0.2-2.8-0.3-3.9-0.3
			c-0.5,0-0.9-0.2-0.9-0.7c0-0.7,0.6-0.9,1.8-0.9c5.1,0,12.1,0.3,13.1,0.3c1,0,7.9-0.3,11.3-0.3c1.3,0,1.8,0.2,1.8,0.9
			c0,0.5-0.5,0.7-0.9,0.7c-0.8,0-1.5,0.1-2.8,0.3c-3.1,0.5-4,2.5-4.2,6.5l-0.3,9.1c0,6.9,0.2,13.8,1.9,17.7c1.7,3.8,4.3,5.8,6.9,7.5
			c4,2.6,9.2,2.3,13.3,2.3c3.6,0,8.9-0.7,13-3.2l-0.3-33.4c-0.1-3.9-1.4-5.8-3.9-6.4c-1.3-0.3-2.7-0.5-3.5-0.5
			c-0.5,0-0.9-0.2-0.9-0.7c0-0.7,0.6-0.9,1.8-0.9c3.8,0,10.9,0.3,11.5,0.3c0.6,0,7.8-0.3,11.2-0.3c1.3,0,1.8,0.2,1.8,0.9
			c0,0.5-0.5,0.7-0.9,0.7c-0.8,0-1.5,0.1-2.9,0.3c-3.1,0.6-4,2.5-4.2,6.5c-0.2,3.6-0.2,6.8-0.2,24.6V95.3"/>
		<path fill="#C18B2C" d="M1019.5,95.3c0,10.9,0,19.9,0.6,24.7c0.3,3.3,1,5.8,4.4,6.3c1.6,0.2,4.1,0.5,5.1,0.5
			c0.7,0,0.9,0.3,0.9,0.7c0,0.6-0.6,0.9-1.8,0.9c-6.3,0-13.4-0.3-14-0.3c-0.6,0-7.7,0.3-11.2,0.3c-1.3,0-1.8-0.2-1.8-0.9
			c0-0.3,0.2-0.7,0.9-0.7c1,0,2.4-0.2,3.4-0.5c2.3-0.5,2.9-3,3.3-6.3c0.6-4.8,0.6-13.8,0.6-24.7V84.6c0-0.4-0.3-0.7-0.7-0.7H961
			c-0.3,0-0.7,0.1-0.7,0.7v10.7c0,10.9,0,19.9,0.6,24.7c0.3,3.3,1,5.8,4.4,6.3c1.6,0.2,4.1,0.5,5.1,0.5c0.7,0,0.9,0.3,0.9,0.7
			c0,0.6-0.6,0.9-1.8,0.9c-6.3,0-13.4-0.3-14-0.3c-0.6,0-7.7,0.3-11.2,0.3c-1.3,0-1.8-0.2-1.8-0.9c0-0.3,0.2-0.7,0.9-0.7
			c1,0,2.4-0.2,3.4-0.5c2.3-0.5,2.8-3,3.3-6.3c0.6-4.8,0.6-13.8,0.6-24.7v-20c0-17.8,0-21-0.2-24.6c-0.2-3.9-1.1-5.7-4.9-6.5
			c-0.9-0.2-2.8-0.3-3.9-0.3c-0.5,0-0.9-0.2-0.9-0.7c0-0.7,0.6-0.9,1.8-0.9c5.1,0,12.3,0.3,12.9,0.3c0.6,0,7.7-0.3,11.2-0.3
			c1.2,0,1.8,0.2,1.8,0.9c0,0.5-0.5,0.7-0.9,0.7c-0.8,0-1.5,0.1-2.9,0.3c-3.1,0.6-4,2.5-4.2,6.5c-0.2,3.6-0.2,8.1-0.2,25.9v2.4
			c0,0.6,0.3,0.7,0.7,0.7h48.3c0.3,0,0.7-0.1,0.7-0.7v-2.4c0-17.8,0-22.2-0.2-25.9c-0.2-3.9-1.1-5.7-4.9-6.5
			c-0.9-0.2-2.8-0.3-3.9-0.3c-0.5,0-0.9-0.2-0.9-0.7c0-0.7,0.6-0.9,1.8-0.9c5.1,0,12.3,0.3,12.9,0.3c0.6,0,7.7-0.3,11.2-0.3
			c1.3,0,1.8,0.2,1.8,0.9c0,0.5-0.5,0.7-0.9,0.7c-0.8,0-1.5,0.1-2.9,0.3c-3.1,0.6-4,2.5-4.2,6.5c-0.2,3.6-0.2,6.8-0.2,24.6V95.3"/>
		<path fill="#C18B2C" d="M1060.1,75.3c-0.2-17.8,0-21-0.2-24.6c-0.2-3.9-1.1-5.7-4.9-6.5c-0.9-0.2-2.9-0.3-3.9-0.3
			c-0.5,0-0.9-0.2-0.9-0.7c0-0.7,0.6-0.9,1.8-0.9c5.1,0,12.3,0.3,12.9,0.3s7.7-0.3,11.2-0.3c1.3,0,1.8,0.2,1.8,0.9
			c0,0.5-0.5,0.7-0.9,0.7c-0.8,0-1.5,0.1-2.8,0.3c-3.1,0.6-4,2.5-4.2,6.5c-0.2,3.6-0.2,21.3-0.2,58.9c0,0.9,0.6,1,1,0.5
			c16.2-18.8,32.1-37.8,55.5-68c1.5-2.4,3.3-1.9,2.7,1.8c0,10.5,0,16.2,0,31.4v20c0,10.9,0,19.9,0.6,24.7c0.3,3.3,1,5.8,4.4,6.3
			c1.6,0.2,4.1,0.5,5.1,0.5c0.7,0,0.9,0.3,0.9,0.7c0,0.6-0.6,0.9-1.8,0.9c-6.3,0-13.4-0.3-14-0.3c-0.6,0-7.7,0.3-11.2,0.3
			c-1.3,0-1.8-0.2-1.8-0.9c0-0.3,0.2-0.7,0.9-0.7c1,0,2.4-0.2,3.4-0.5c2.3-0.5,2.8-3,3.3-6.3c0.6-4.8,0.6-13.8,0.6-24.7V62.4
			c0-1.4-0.6-2.1-1.6-0.8c-15,17.5-30,35.4-44.1,53.9l-9.5,12.2l-1.4,1.8c-1.5,2.4-3.3,1.9-2.7-1.8V75.3"/>
		<path fill="#C18B2C" d="M1228.1,120.1c0.6-4.8,0.6-13.8,0.6-24.7v-20c0-17.8,0-21-0.2-24.6c-0.2-3.9-1.1-5.7-4.9-6.5
			c-0.9-0.2-2.9-0.3-3.9-0.3c-0.5,0-0.9-0.2-0.9-0.7c0-0.7,0.6-0.9,1.8-0.9c5.1,0,12.3,0.3,12.9,0.3c0.6,0,7.8-0.3,11.2-0.3
			c1.3,0,1.8,0.2,1.8,0.9c0,0.5-0.5,0.7-0.9,0.7c-0.8,0-1.5,0.1-2.8,0.3c-3.1,0.6-4,2.5-4.2,6.5c-0.2,3.6-0.2,6.8-0.2,24.6v20
			c0,8.7,0,16.1,0.2,21.2c-0.2,9.2,5.9,7.2,7.5,7.1c3.4-0.2,5.2-0.9,5.9-0.9c0.6,0,0.5,0.7,0.3,1.4c-0.7,3.4-2.3,11.8-2.5,13.1
			c-0.2,1-0.5,1.5-1.1,1.5c-0.6,0-0.9-0.3-0.8-1.9c0-0.3,0-0.8,0-1.3c0-3.5,0.3-7.4-8.9-7.4c-1.8,0-3.8,0-5.5,0
			c-0.5,0-4.5,0.2-8.1,0.3h-41.4c-4.9-0.1-9.2-0.3-9.7-0.3c-0.6,0-7.8,0.3-11.2,0.3c-1.3,0-1.8-0.2-1.8-0.9c0-0.3,0.2-0.7,0.9-0.7
			c1,0,2.4-0.2,3.4-0.5c2.3-0.5,2.9-3,3.3-6.3c0.6-4.8,0.6-13.8,0.6-24.7v-20c0-17.8,0-21-0.2-24.6c-0.2-3.9-1.1-5.7-4.9-6.5
			c-0.9-0.2-2.9-0.3-3.9-0.3c-0.5,0-0.9-0.2-0.9-0.7c0-0.7,0.6-0.9,1.8-0.9c5.1,0,12.3,0.3,12.9,0.3c0.6,0,7.7-0.3,11.2-0.3
			c1.3,0,1.8,0.2,1.8,0.9c0,0.5-0.5,0.7-0.9,0.7c-0.8,0-1.5,0.1-2.8,0.3c-3.1,0.6-4,2.5-4.2,6.5c-0.2,3.6-0.2,6.7-0.2,44.6
			c0,10.9,0,19.9,0.6,24.7c0.1,1.6,0.3,3,0.9,4c15.6,1,31.2,0.8,46.8,0C1227.8,123,1227.9,121.6,1228.1,120.1"/>
		<path fill="#C18B2C" d="M1300.3,44.8c1.7,4.3,19.6,51.4,26.5,68.7c4.1,10.1,7.4,12,9.8,12.6c1.7,0.6,3.4,0.7,4.6,0.7
			c0.7,0,1.1,0.1,1.1,0.7c0,0.7-1,0.9-2.3,0.9c-1.7,0-10,0-17.9-0.2c-2.2-0.1-3.4-0.1-3.4-0.8c0-0.5,0.5-0.8,0.8-0.8
			c0.2,0,0.9-0.6,0.9-1.6c0-0.3,0-1-0.2-1.5l-10.6-28c-0.2-0.5-0.5-0.7-1-0.7h-24.5c-0.6,0-0.9,0.3-1.1,0.9l-6.8,20.2
			c-1,2.9-1.6,5.6-1.6,7.6c0,2.3,2.4,3.3,4.3,3.3h1.1c0.8,0,1.1,0.2,1.1,0.7c0,0.7-0.7,0.9-1.7,0.9c-2.7,0-7.6-0.3-8.9-0.3
			c-1.3,0-7.5,0.3-12.9,0.3c-1.5,0-2.2-0.2-2.2-0.9c0-0.5,0.5-0.7,1-0.7c0.8,0,2.4-0.1,3.3-0.2c5.2-0.7,7.5-5,9.6-10.7l25.9-70.7
			c1.4-3.8,1.8-4.4,2.5-4.4C1298.4,40.7,1298.9,41.3,1300.3,44.8 M1307.1,90.7c0.6,0,0.6-0.3,0.5-0.8l-10.8-30.7
			c-0.3-0.9-0.6-1.3-0.9-1.3c-0.2,0-0.6,0.5-0.8,1.3l-10,30.7c-0.2,0.6,0,0.8,0.3,0.8H1307.1z"/>
	</g>
</g>
</svg>
