<svg width="56" height="55" viewBox="0 0 56 55" fill="none" xmlns="http://www.w3.org/2000/svg">
<path d="M28.014 54.2793C43.0359 54.2793 55.2137 42.191 55.2137 27.2793C55.2137 12.3676 43.0359 0.279297 28.014 0.279297C12.9919 0.279297 0.814209 12.3676 0.814209 27.2793C0.814209 42.191 12.9919 54.2793 28.014 54.2793Z" fill="#FFFEFE"/>
<path d="M22.6009 31.4379C24.755 33.5209 27.1986 33.3844 27.1986 33.3844H28.3088C28.3088 33.3844 28.6457 33.3492 28.8165 33.1774C28.9731 33.0189 28.9683 32.7238 28.9683 32.7238C28.9683 32.7238 28.9446 31.3454 29.6373 31.1384C30.3158 30.9403 31.1936 32.4728 32.1188 33.0629C32.8211 33.5077 33.3525 33.4108 33.3525 33.4108L35.8245 33.38C35.8245 33.38 37.1198 33.3051 36.5077 32.3627C36.4555 32.2834 36.1519 31.6625 34.6668 30.3854C33.1152 29.0466 33.324 29.2624 35.1934 26.9504C36.3322 25.5412 36.7876 24.6824 36.6453 24.3125C36.5077 23.9602 35.6726 24.0527 35.6726 24.0527L32.8827 24.0703C32.8827 24.0703 32.674 24.0439 32.5221 24.1275C32.3703 24.2112 32.2754 24.405 32.2754 24.405C32.2754 24.405 31.8342 25.4971 31.2458 26.4219C30.0027 28.3772 29.5092 28.4829 29.3052 28.3596C28.8355 28.0778 28.9494 27.2234 28.9494 26.6157C28.9494 24.7177 29.2578 23.9294 28.3468 23.7224C28.0431 23.6563 27.8201 23.6079 27.0467 23.6035C26.0503 23.5947 25.2105 23.6079 24.7313 23.8237C24.4134 23.969 24.1714 24.2905 24.3185 24.3081C24.5035 24.3301 24.9211 24.4138 25.1393 24.6912C25.424 25.0523 25.4145 25.8627 25.4145 25.8627C25.4145 25.8627 25.5806 28.0954 25.0302 28.3728C24.6554 28.5622 24.1382 28.1747 23.0327 26.3999C22.4633 25.4927 22.0363 24.4843 22.0363 24.4843C22.0363 24.4843 21.9556 24.2949 21.8085 24.198C21.6282 24.0747 21.3815 24.0395 21.3815 24.0395L18.734 24.0571C18.734 24.0571 18.3354 24.0659 18.1883 24.2288C18.0555 24.3653 18.1788 24.6604 18.1788 24.6604C18.1788 24.6604 20.2523 29.1655 22.6009 31.4379Z" fill="#231F20"/>
</svg>
